<svg width="143" height="30" viewBox="0 0 143 30" fill="none" xmlns="http://www.w3.org/2000/svg">
<path fill-rule="evenodd" clip-rule="evenodd" d="M33.9819 9.12176C33.2565 9.52161 32.5312 10.2213 31.7367 10.4879C31.5295 10.5545 31.3309 10.5879 31.1668 10.5795C31.0028 10.5629 30.8819 10.5212 30.7782 10.4129C30.1393 9.74652 29.7161 8.47201 28.5763 7.35577C27.2292 6.03961 28.4122 5.18993 29.8025 5.38985C30.1565 5.42317 31.0459 5.44817 31.1237 5.94797C31.1323 6.02295 31.1237 6.13957 31.1064 6.2312C30.8819 7.4474 31.9526 7.39742 32.3585 7.0892C33.3515 6.33949 32.7039 5.33154 31.659 5.65642C31.5727 5.68141 31.5036 5.58978 31.4086 5.48982C31.2273 5.30655 30.9941 5.0983 30.8732 4.90671C30.856 4.79841 31.1668 4.5735 31.2618 4.54851C31.3654 4.51519 32.2289 4.55684 32.3153 4.58183C33.5674 5.06498 33.8437 4.68179 34.0769 4.10701C34.3186 3.51557 33.3083 2.74087 32.4276 3.67384C32.0994 4.02371 31.2359 3.99039 31.0028 3.86544C30.925 3.82379 32.3757 2.76586 32.6089 2.7492C33.6883 2.64924 33.8869 1.81622 33.5328 1.3414C33.2133 0.924897 32.2894 0.658332 31.9354 2.0578C31.8749 2.29104 30.6228 3.57388 30.571 3.5239C30.5451 3.49891 30.7351 1.95783 30.8905 1.84121C32.2376 0.799945 31.3654 -0.0164098 30.5969 0.000250516C29.8716 0.025241 29.2412 0.766624 30.1652 1.82455C30.2083 1.87453 29.9925 3.33231 29.6902 3.54889C29.6384 3.54889 28.5072 2.71588 28.4554 2.48263C28.3604 2.10778 28.559 1.68294 28.4727 1.37472C28.2482 0.54171 27.3587 0.666662 26.8925 1.1748C26.6593 1.42471 26.5643 1.81622 26.7975 2.27438C26.927 2.53261 27.4883 2.62425 27.8423 2.77419C27.9891 2.8325 28.6799 4.11534 28.7145 4.31527C28.7317 4.39857 28.6886 4.48187 28.6281 4.54018C28.015 5.11496 25.8476 4.75676 25.8908 6.85596C25.9081 8.10548 27.4624 9.33001 27.4365 9.34667C27.4019 9.37999 26.5989 9.49662 26.4693 9.51328C25.1827 9.72153 24.3883 9.80483 23.1276 10.1797C22.8599 10.263 22.1172 10.4796 21.8496 10.5795C20.5802 11.0294 19.7167 11.5458 18.9395 12.1539C18.0242 12.8787 17.2471 13.7617 16.3404 15.1861C16.2108 15.3944 15.5114 16.4773 15.3301 16.7605L15.3042 16.7272L15.0451 16.3523L14.717 15.9358L14.3716 15.511L14.0175 15.2611L13.7153 15.1445L13.2835 15.1111L12.7482 15.1528L12.2214 15.1944L11.6083 15.2278L11.0125 15.2444L10.5808 15.2111L10.3821 15.0362L10.2958 14.7696L10.5462 13.1452C10.7016 12.862 11.0211 12.4538 10.6757 12.0206C10.1058 11.3209 8.56014 12.2289 9.45819 13.1702L9.59635 13.5451L9.62226 13.8533L9.64816 14.2615L9.6568 14.7696V15.1694L9.29412 15.0278C9.00917 14.9362 8.19747 14.603 8.10248 14.3531C7.85206 13.6867 7.34259 13.3202 6.95401 13.4451C6.12504 13.7117 5.61557 15.3527 7.61892 15.2278C7.62755 15.2278 8.89691 15.7109 9.18187 15.8025C8.85373 16.0358 7.67073 16.6355 7.42031 16.4356C6.7295 15.8858 6.28047 16.1108 6.01279 16.5439C5.35652 17.6185 6.92811 18.7264 7.7139 17.2187C7.78298 17.0937 8.94872 16.6522 9.22504 16.5689C9.06961 16.9521 8.41334 18.2099 8.15429 18.185C6.77268 18.0433 6.83312 19.1429 7.33396 19.6094C7.61028 19.8593 8.09385 19.9759 8.41334 19.7927C8.88828 19.5178 8.65513 18.843 8.75875 18.7181L9.70861 17.5352L9.84677 17.8601C9.93312 18.1766 10.0022 18.4099 10.0367 18.7431C9.47546 19.8177 10.3649 20.1759 11.0039 19.8843C11.5652 19.6261 11.9192 18.7847 11.1938 18.4265C10.6326 18.3516 10.598 18.1183 10.4944 17.4936L10.5203 16.4273L11.3234 16.6189C12.4805 17.102 13.1281 17.7268 13.3613 18.7098C13.534 19.4345 13.344 20.1925 12.9036 20.809C12.9036 20.809 12.9036 20.8173 12.895 20.8173C11.427 22.8915 9.52727 23.3413 7.27351 22.5333C5.64148 21.9502 3.76766 20.3758 3.18047 17.9767C3.11139 17.6935 3.03368 17.3769 3.01641 17.102C2.84371 9.9631 12.2991 9.16341 15.5459 13.3285C15.6496 13.4534 15.7964 13.7117 15.8827 13.7283C16.0209 13.7617 15.9691 13.5534 15.9 13.3618C15.8395 13.1702 15.6927 12.8453 15.5028 12.6121C13.0677 9.69654 10.1835 8.93017 7.55847 9.28836C1.31529 10.188 -3.44265 18.2183 3.24092 23.9994C4.40666 25.0073 5.9178 25.9653 7.43758 26.2652C9.06098 26.5734 10.7276 26.3235 12.2473 25.6321C14.1211 24.7824 15.6496 23.5079 16.8326 22.9165C19.9498 21.2505 20.5111 24.4409 20.2521 25.2906C20.1916 25.3156 18.8186 24.8158 18.8014 24.6491C18.715 24.0161 18.1796 23.7745 17.9206 23.7995C16.9016 23.9244 16.5908 25.4155 17.7738 25.4822C18.0933 25.4988 18.4042 25.3405 18.5941 25.3655C18.6718 25.3739 19.9671 25.8903 19.9844 25.9237C20.0189 26.0153 18.8618 26.3901 18.715 26.4485C18.6546 26.4734 18.1796 26.5984 18.1537 26.5817C17.627 26.1902 17.1175 26.4151 16.8844 26.8067C16.703 27.1065 16.7635 27.4981 16.8498 27.6647C17.1089 28.1645 18.0156 28.4893 18.4128 27.4397C18.6977 27.2482 20.1053 26.5817 20.2952 26.6401C20.2866 26.665 20.0535 26.9899 19.7685 27.3814C19.544 27.698 19.4749 27.7979 19.2504 28.1395C19.2072 28.2145 18.9913 28.1311 18.81 28.1978C18.0069 28.481 18.0933 29.439 18.6373 29.7722C19.1727 30.0971 20.1053 29.8388 19.9757 28.7809C19.9671 28.6809 19.8808 28.6143 19.9326 28.4977C20.1139 28.0812 20.4679 27.4814 20.6838 27.1065C20.7615 26.9982 20.8306 26.8316 20.9342 26.89C21.0292 26.9399 21.1933 28.1062 21.2278 28.2894C21.2624 28.4477 21.3055 28.556 21.2796 28.6809C21.2365 28.7976 21.0897 28.8892 21.0379 29.0725C20.7874 30.0221 21.9014 30.172 22.3418 29.8388C22.9462 29.3807 22.9721 28.506 21.9791 28.4644C21.8409 28.456 21.556 26.9566 21.5301 26.9233C21.6337 26.8566 22.6872 27.1399 22.7994 27.2315C22.998 27.3898 23.0412 27.6313 23.3693 27.6647C24.3106 27.8396 24.6473 26.2569 23.6025 26.1402C23.4902 26.1236 23.2053 26.3068 23.0326 26.3735C22.9462 26.4068 22.8858 26.4235 22.7908 26.4485C22.6958 26.4651 22.5576 26.4818 22.4627 26.4818C22.264 26.4901 21.7977 26.3818 21.651 26.2569C21.5473 26.1736 21.5128 26.0736 21.4869 25.9653C21.461 25.857 21.4783 25.7404 21.5128 25.6404C21.556 25.5405 21.651 25.4572 21.7114 25.3822C21.7718 25.3072 21.8323 25.2489 21.8841 25.1906C22.4195 24.6408 22.2986 23.7828 22.1345 23.0414C21.8582 22.1751 21.5819 21.7003 21.2624 21.3421C21.0551 21.1005 20.7961 20.9506 20.6147 20.6507C20.6147 20.6507 20.5198 20.4841 20.6493 20.2592C21.2365 19.5511 22.2036 19.3762 23.0153 19.0513C23.2225 18.968 23.3521 18.9263 23.5593 18.8347C23.7579 18.7347 24.0429 18.5848 24.2242 18.4765C24.4055 18.3682 24.5264 18.2599 24.6646 18.1683C24.8028 18.0767 24.9323 18.01 25.0618 17.9101L25.839 17.3103C25.7699 17.5602 25.5022 18.3849 25.5022 18.6764C25.5281 20.9006 26.2189 20.4424 27.5919 21.3088C27.6696 21.3587 27.7301 21.3837 27.7042 21.4837C27.6782 21.5837 27.566 21.6586 27.4537 21.7752C27.212 21.9835 26.9874 22.2417 26.7111 22.4167C26.5211 22.4667 25.649 22.1334 25.4245 23.0164C25.1568 24.0744 26.8234 24.2826 26.927 23.0914C26.9788 22.9831 27.1256 22.8165 27.2206 22.7249C27.3156 22.6416 28.1014 21.9419 28.1877 22.0668C28.2136 22.3417 27.9891 23.7245 27.7128 23.7995C26.7111 24.066 27.1342 25.4988 28.2482 25.1156C28.749 24.9407 28.6281 24.2993 28.5072 23.9911C28.4813 23.9328 28.7576 22.7166 28.9303 22.3084C29.0081 22.1334 29.5866 23.233 29.6039 23.7495C29.6125 23.8994 29.5434 24.0077 29.5521 24.1243C29.6298 25.0157 30.6746 24.7741 30.8646 24.1243C31.0028 23.6412 30.8301 23.4663 30.2861 23.2747C30.0788 23.1997 29.4398 21.8419 29.5348 21.7669C29.673 21.6586 30.3638 21.9335 30.5365 21.9918C30.6574 22.0252 30.761 22.0751 30.8819 22.1085C31.0028 22.1501 31.2014 22.1751 31.2705 22.2667C31.9008 23.1164 32.5053 22.325 32.4707 21.7503C32.4448 21.3754 32.0735 21.1255 31.4691 21.4004C31.3741 21.442 31.1064 21.442 30.9423 21.4254C30.8214 21.4171 30.6919 21.3837 30.5624 21.3587C30.3465 21.3004 29.7593 21.1005 29.5693 20.9506C29.8716 20.7673 30.0702 20.2675 30.9078 20.0592C31.4086 19.9343 31.564 19.4928 31.4432 19.1263C31.2877 18.6598 30.7351 18.4099 30.3465 18.8347C30.2083 18.8847 30.122 18.993 30.0529 19.1013C29.9838 19.2096 29.9752 19.3345 29.9493 19.4511C29.9234 19.5761 29.9234 19.6427 29.8716 19.7594C29.8198 19.876 29.3189 20.2425 29.1894 20.3008C28.2654 20.634 27.5833 19.7677 28.11 19.0763C28.1791 18.9846 28.2741 18.9597 28.3604 18.8597C28.4468 18.7597 28.5159 18.6265 28.6108 18.4848C28.7145 18.3432 28.8526 18.16 28.9649 18.0184C29.0771 17.8767 29.1808 17.7518 29.293 17.6185C29.4053 17.4852 29.5262 17.3353 29.6125 17.202C30.0011 16.6355 30.3724 15.9025 30.5278 15.2444C30.5969 14.9779 30.7178 14.2698 30.925 14.0865C31.0114 14.0116 31.1409 13.9699 31.2273 13.9532C31.3309 13.9366 32.773 15.2111 33.2565 15.4777C33.6365 15.6942 33.9819 15.8442 34.3877 16.0025C36.3133 16.7688 38.7312 16.369 40.6654 15.486C40.9849 15.3444 41.503 15.1278 41.7103 14.8779C44.603 11.3209 36.7624 7.614 33.9819 9.12176ZM102.398 2.48263C100.204 2.51595 98.1666 3.54889 97.9507 5.4565C97.9075 5.82302 97.9421 6.15623 98.0198 6.46444C98.9869 6.47277 99.6086 6.4811 100.653 6.49776C100.334 6.26452 100.688 5.21492 101.629 4.86506C102.864 4.39857 104.237 5.08164 104.531 6.50609C104.859 6.50609 105.8 6.50609 106.897 6.50609C106.638 4.45688 105.135 2.44098 102.398 2.48263ZM104.237 8.82187C103.365 8.6636 101.888 9.13009 100.93 8.26375C100.058 8.29707 98.9524 8.28874 98.0111 8.28041C99.3496 12.2955 103.995 9.83815 103.952 12.1623C103.918 14.0116 100.308 14.4197 99.3496 11.4292C98.6501 11.4125 97.9421 11.4542 97.2426 11.4375C97.6053 16.8938 102.812 16.9271 105.455 14.8946C107.691 13.1785 107.303 9.75485 104.237 8.82187ZM55.5351 2.56594H51.8047L51.7356 6.46444L56.8735 6.44778L55.5351 2.56594ZM62.21 2.54927L60.5003 6.47277H65.7159L65.8281 2.59093L62.21 2.54927ZM51.6752 8.29707L51.5111 15.8775L54.0844 15.9192L54.2657 8.29707H51.6752ZM59.9217 8.24709L58.8251 10.9544L57.832 8.25542L54.8184 8.26375L57.0549 15.8608L60.1721 15.8525L62.8058 8.25542L59.9217 8.24709ZM63.1771 8.25542L62.9613 15.8692H65.4741L65.69 8.25542H63.1771ZM93.6763 2.54927L93.6072 6.45611L96.0164 6.43945L96.1719 2.54927H93.6763ZM93.5468 8.28041L93.3654 15.8858L95.861 15.8942L96.1546 8.26375L93.5468 8.28041ZM72.1231 2.55761L72.054 6.46444L74.515 6.47277L74.6014 2.55761H72.1231ZM78.6858 2.54927L75.0677 6.46444H78.3836L82.1226 2.55761L78.6858 2.54927ZM78.4699 8.28874L72.1058 8.28041L71.89 15.8359L74.4891 15.8192L74.5323 11.4959L76.8292 11.5708L78.7376 15.8775L81.9585 15.8525L78.4699 8.28874ZM82.9861 2.52428L82.917 6.4811L85.3607 6.46444L85.4471 2.53261L82.9861 2.52428ZM89.4106 2.54927L85.8615 6.46444L89.1429 6.47277L92.8473 2.54927H89.4106ZM89.117 8.26375L82.8134 8.24709L82.6147 15.8525L85.1707 15.8775L85.2225 11.5792L87.4936 11.6625L89.3847 15.8942L92.6056 15.8858L89.117 8.26375ZM68.0819 2.54927L68.0301 6.46444H70.4134L70.5515 2.56594L68.0819 2.54927ZM67.9783 8.25542L67.8228 15.9025L70.3184 15.8858L70.6033 8.24709L67.9783 8.25542ZM125.376 2.51595L125.307 6.43945H127.716L127.871 2.54094L125.376 2.51595ZM125.298 8.24709L125.117 15.8442L127.612 15.8525L127.889 8.24709H125.298ZM132.759 2.53261L129.063 2.54927L128.994 6.47277L134.089 6.45611L132.759 2.53261ZM139.408 2.50762L137.724 6.44778H142.888L143 2.54094L139.408 2.50762ZM128.959 8.2221L128.804 15.8442L131.351 15.8858L131.533 8.24709L128.959 8.2221ZM137.12 8.24709L136.057 10.9461L135.082 8.25542H132.068L134.296 15.8692L137.404 15.8858L139.96 8.25542L137.12 8.24709ZM140.401 8.24709L140.185 15.8109L142.672 15.8775L142.879 8.23876L140.401 8.24709ZM109.556 2.52428L106.707 2.53261L107.76 6.47277C108.572 6.46444 109.574 6.47277 110.549 6.45611L109.556 2.52428ZM112.414 8.25542L111.387 11.7957L110.558 8.25542C109.617 8.27208 108.667 8.24709 107.838 8.25542L109.72 15.8442L113.088 15.8942L115.35 8.27208C114.47 8.25542 113.166 8.24709 112.414 8.25542ZM117.509 2.54927H114.193L112.915 6.46444C113.667 6.45611 114.504 6.46444 115.368 6.47277L115.722 5.23991L116.024 6.53108C116.87 6.53108 117.587 6.53108 118.537 6.52275L117.509 2.54927ZM120.523 8.25542L119.651 12.0456L119.012 8.26375C118.07 8.26375 116.827 8.24709 116.007 8.24709L118.304 15.8692L121.421 15.9108L123.666 8.26375C123.208 8.29707 120.877 8.26375 120.523 8.25542ZM121.939 2.55761L120.903 6.44778C121.248 6.44778 123.355 6.44778 123.813 6.43945L124.875 2.52428L121.939 2.55761Z" fill="#1E1E1E"/>
<path fill-rule="evenodd" clip-rule="evenodd" d="M94.3341 27H54.6743C52.3571 27 50.4706 25.1238 50.4706 22.8C50.4706 20.4848 52.3485 18.6 54.6743 18.6H94.3341C96.6513 18.6 98.5378 20.4762 98.5378 22.8C98.5292 25.1238 96.6513 27 94.3341 27Z" fill="#11CB5B"/>
<path d="M61.7465 23.6176C61.7465 24.2889 61.2124 24.6676 60.1959 24.6676H58.1975V20.8033H60.084C61.0488 20.8033 61.5484 21.2078 61.5484 21.8102C61.5484 22.1975 61.3503 22.4988 61.0315 22.6623C61.4708 22.8 61.7465 23.1357 61.7465 23.6176ZM59.0847 21.4832V22.3955H59.972C60.4113 22.3955 60.6439 22.2406 60.6439 21.9393C60.6439 21.6381 60.4027 21.4832 59.972 21.4832H59.0847ZM60.842 23.5229C60.842 23.1959 60.5922 23.041 60.127 23.041H59.0847V23.9963H60.127C60.6008 23.9963 60.842 23.8586 60.842 23.5229Z" fill="white"/>
<path d="M65.1835 23.9447V24.6762H62.2633V24.0996L63.7536 22.6881C64.0982 22.3611 64.1584 22.1631 64.1584 21.9738C64.1584 21.6725 63.9517 21.4918 63.5382 21.4918C63.2109 21.4918 62.9266 21.6209 62.7371 21.8791L62.0824 21.4574C62.3839 21.0184 62.918 20.743 63.6158 20.743C64.4772 20.743 65.0543 21.182 65.0543 21.8877C65.0543 22.2664 64.951 22.6021 64.4083 23.1098L63.521 23.9447H65.1835Z" fill="white"/>
<path d="M69.4476 23.6176C69.4476 24.2889 68.9136 24.6676 67.8971 24.6676H65.8986V20.8033H67.7851C68.7499 20.8033 69.2495 21.2078 69.2495 21.8102C69.2495 22.1975 69.0514 22.4988 68.7327 22.6623C69.172 22.8 69.4476 23.1357 69.4476 23.6176ZM66.7945 21.4832V22.3955H67.6817C68.121 22.3955 68.3536 22.2406 68.3536 21.9393C68.3536 21.6381 68.1124 21.4832 67.6817 21.4832H66.7945ZM68.5518 23.5229C68.5518 23.1959 68.3019 23.041 67.8368 23.041H66.7945V23.9963H67.8368C68.3019 23.9963 68.5518 23.8586 68.5518 23.5229Z" fill="white"/>
<path d="M71.6097 24.2889L71.9112 23.6176C72.2385 23.8586 72.7209 24.0221 73.1861 24.0221C73.7202 24.0221 73.9355 23.8414 73.9355 23.609C73.9355 22.8861 71.6872 23.3852 71.6872 21.948C71.6872 21.2939 72.2213 20.743 73.3153 20.743C73.7977 20.743 74.2973 20.8549 74.6591 21.0873L74.3835 21.7672C74.0217 21.5607 73.6513 21.466 73.3153 21.466C72.7812 21.466 72.5831 21.6639 72.5831 21.9049C72.5831 22.6193 74.8314 22.1287 74.8314 23.5402C74.8314 24.1857 74.2973 24.7365 73.1947 24.7365C72.5745 24.7365 71.9543 24.5557 71.6097 24.2889Z" fill="white"/>
<path d="M76.2958 21.5348H75.0554V20.8033H78.4235V21.5348H77.1831V24.6676H76.2872V21.5348H76.2958Z" fill="white"/>
<path d="M78.7164 22.7398C78.7164 21.5951 79.6123 20.743 80.8355 20.743C82.0501 20.743 82.9546 21.5865 82.9546 22.7398C82.9546 23.893 82.0501 24.7365 80.8355 24.7365C79.6123 24.7365 78.7164 23.8844 78.7164 22.7398ZM82.0415 22.7398C82.0415 22.0082 81.5246 21.5004 80.8355 21.5004C80.1464 21.5004 79.6295 21.9996 79.6295 22.7398C79.6295 23.4713 80.1464 23.9791 80.8355 23.9791C81.5246 23.9791 82.0415 23.4713 82.0415 22.7398Z" fill="white"/>
<path d="M86.2022 24.6762L85.4528 23.6004H84.6344V24.6762H83.7386V20.8119H85.4097C86.4434 20.8119 87.0895 21.3455 87.0895 22.2148C87.0895 22.7914 86.7966 23.2217 86.297 23.4369L87.167 24.6762H86.2022ZM85.358 21.5348H84.6258V22.8775H85.358C85.9007 22.8775 86.185 22.6193 86.185 22.2061C86.185 21.7844 85.9093 21.5348 85.358 21.5348Z" fill="white"/>
<path d="M90.897 24.6676H87.8993V20.8033H90.8195V21.5176H88.7865V22.3525H90.5783V23.0496H88.7865V23.9447H90.897V24.6676Z" fill="white"/>
</svg>
