<svg width="193" height="30" viewBox="0 0 193 30" fill="none" xmlns="http://www.w3.org/2000/svg">
<path d="M19.4081 29.1502H1.13256C0.540531 29.1502 0.0514678 28.661 0.0514678 28.0687C0.0514678 27.4764 0.540531 26.9872 1.13256 26.9872H19.4081C20.0001 26.9872 20.4892 27.4764 20.4892 28.0687C20.4892 28.661 20.0001 29.1502 19.4081 29.1502Z" fill="#303030"/>
<path d="M20.4892 1.64807C20.4892 1.95709 20.2575 2.18884 19.9486 2.18884H18.8676C18.5844 2.18884 18.327 1.95709 18.327 1.64807V0.540774C18.327 0.231761 18.5587 0 18.8676 0H19.9744C20.2833 0 20.5149 0.231761 20.5149 0.540774V1.64807H20.4892Z" fill="#303030"/>
<path d="M2.18792 1.64807C2.18792 1.93133 1.95625 2.18884 1.64737 2.18884H0.540544C0.257402 2.18884 0 1.95709 0 1.64807V0.540774C0 0.257512 0.231661 0 0.540544 0H1.64737C1.93051 0 2.18792 0.231761 2.18792 0.540774V1.64807Z" fill="#303030"/>
<path d="M1.10682 17.4335C0.514798 17.4335 0.0257339 16.9442 0.0257339 16.3519V4.09442C0.0257339 3.50215 0.514798 3.01288 1.10682 3.01288C1.69885 3.01288 2.18791 3.50215 2.18791 4.09442V16.3519C2.18791 16.9442 1.72459 17.4335 1.10682 17.4335Z" fill="#303030"/>
<path d="M19.4081 17.4335C18.8161 17.4335 18.327 16.9442 18.327 16.3519V4.09442C18.327 3.50215 18.8161 3.01288 19.4081 3.01288C20.0001 3.01288 20.4892 3.50215 20.4892 4.09442V16.3519C20.4892 16.9442 20.0259 17.4335 19.4081 17.4335Z" fill="#303030"/>
<path d="M16.3708 2.18883H4.11844C3.52642 2.18883 3.03736 1.69956 3.03736 1.10729C3.03736 0.515015 3.52642 0.0257448 4.11844 0.0257448H16.3708C16.9628 0.0257448 17.4519 0.515015 17.4519 1.10729C17.4776 1.69956 16.9885 2.18883 16.3708 2.18883Z" fill="#303030"/>
<path d="M20.4892 18.7983C20.4892 18.515 20.2575 18.2575 19.9486 18.2575H18.8676C18.5844 18.2575 18.327 18.4893 18.327 18.7983V19.9056C18.327 20.1889 18.5587 20.4464 18.8676 20.4464H19.9744C20.2575 20.4464 20.5149 20.2146 20.5149 19.9056V18.7983H20.4892Z" fill="#303030"/>
<path d="M2.21365 18.7983C2.21365 18.4893 1.98199 18.2575 1.67311 18.2575H0.566279C0.283136 18.2575 0.0257339 18.4893 0.0257339 18.7983V19.9056C0.0257339 20.2146 0.257396 20.4464 0.566279 20.4464H1.67311C1.95625 20.4464 2.21365 20.2146 2.21365 19.9056V18.7983Z" fill="#303030"/>
<path d="M16.3708 18.2575H4.11844C3.52642 18.2575 3.03736 18.7468 3.03736 19.3391C3.03736 19.9314 3.52642 20.4206 4.11844 20.4206H16.3708C16.9628 20.4206 17.4519 19.9314 17.4519 19.3391C17.4776 18.7468 16.9885 18.2575 16.3708 18.2575Z" fill="#303030"/>
<path d="M16.448 17.382C16.1906 17.382 15.9332 17.279 15.7273 17.0987L3.34623 4.76395C2.93439 4.35193 2.93439 3.70816 3.32049 3.29614C3.7066 2.88412 4.3501 2.88412 4.76195 3.27039L17.143 15.6052C17.5548 16.0172 17.5548 16.661 17.1687 17.073C16.9885 17.279 16.7054 17.382 16.448 17.382Z" fill="#303030"/>
<path d="M4.06696 17.382C3.80956 17.382 3.52642 17.279 3.34623 17.073C2.96013 16.661 2.96013 16.0172 3.37197 15.6052L15.753 3.27039C16.1649 2.85837 16.8084 2.88412 17.1945 3.29614C17.5806 3.70816 17.5806 4.35193 17.1687 4.76395L4.78768 17.0987C4.58176 17.279 4.32436 17.382 4.06696 17.382Z" fill="#303030"/>
<path d="M37.4263 8.54935H34.4404L34.5434 8.5751H37.0659L37.4263 8.54935Z" fill="#303030"/>
<path d="M100.181 20.3176L102.369 13.0043L104.557 20.3176H107.594L103.81 8.93561H100.927L97.1435 20.3176H100.181Z" fill="#303030"/>
<path d="M83.1151 8.88411H79.7174L75.8564 12.6695V8.88411H72.9992V20.2918H75.8564V16.5837L76.6286 15.7339L80.3866 20.2918H83.913L78.5591 13.5451L83.1151 8.88411Z" fill="#303030"/>
<path d="M54.0029 8.88411V9.96566C54.0029 9.93991 53.9772 9.93991 53.9772 9.91415C52.8961 8.5751 50.9399 8.5751 50.9141 8.5751C50.8626 8.5751 50.8112 8.5751 50.8112 8.5751C48.1599 8.54935 46.1522 10.3262 45.4057 12.7468C45.2255 13.3133 45.1226 13.9313 45.1226 14.5751C45.1226 14.6524 45.1226 14.7296 45.1226 14.8069C45.2513 17.9742 47.7738 20.4978 50.8884 20.5751C51.6863 20.5751 52.8446 20.3948 53.5139 19.7511C53.5139 19.7511 53.7713 19.5193 53.9772 19.2103V20.2918H56.9888V8.90986H54.0029V8.88411ZM54.0029 15.9914C53.9772 16.0429 53.9515 16.1202 53.9257 16.1717C53.3594 17.2275 52.2784 17.9742 51.0171 17.9742C50.2706 17.9742 49.5499 17.7167 49.0093 17.2532C48.3401 16.6609 47.9025 15.8112 47.851 14.8326C47.851 14.7554 47.851 14.7039 47.851 14.6266C47.851 14.0343 48.0055 13.4678 48.2629 12.9785C48.8292 11.9227 49.9103 11.176 51.1715 11.176C51.918 11.176 52.6387 11.4335 53.1793 11.897C53.5396 12.206 53.8228 12.618 54.0287 13.0558C54.2089 13.4421 54.3118 13.8541 54.3376 14.3176C54.3376 14.3948 54.3376 14.4463 54.3376 14.5236C54.3118 15.0386 54.2089 15.5279 54.0029 15.9914Z" fill="#303030"/>
<path d="M92.3044 8.96137V10.0429C92.3044 10.0172 92.2786 10.0172 92.2786 9.99141C91.1975 8.67811 89.2413 8.65235 89.2413 8.65235C89.1898 8.65235 89.1383 8.65235 89.1383 8.65235C86.5128 8.6266 84.5051 10.4034 83.7586 12.7983C83.5784 13.3648 83.4755 13.9828 83.4755 14.6009C83.4755 14.6781 83.4755 14.7554 83.4755 14.8326C83.6042 18 86.1267 20.5236 89.2155 20.5751C90.0135 20.5751 91.146 20.3948 91.841 19.7511C91.841 19.7511 92.0984 19.5193 92.3044 19.2103V20.2918H95.2902V8.96137H92.3044ZM92.3044 16.0429C92.2786 16.0944 92.2529 16.1717 92.2271 16.2232C91.6609 17.279 90.5798 18 89.3185 18C88.572 18 87.877 17.7425 87.3108 17.279C86.6415 16.6867 86.2039 15.8369 86.1525 14.8841C86.1525 14.8069 86.1525 14.7554 86.1525 14.6781C86.1525 14.0858 86.3069 13.5193 86.5643 13.03C87.1306 11.9742 88.2117 11.2532 89.4472 11.2532C90.1937 11.2532 90.8886 11.5107 91.4549 11.9742C91.8153 12.2833 92.0984 12.6953 92.3044 13.133C92.4845 13.5193 92.5875 13.9313 92.6132 14.3691C92.6132 14.4464 92.6132 14.4978 92.6132 14.5751C92.6132 15.0901 92.5103 15.6051 92.3044 16.0429Z" fill="#303030"/>
<path d="M43.3722 14.1631C43.295 12.3348 42.3426 10.7124 40.8754 9.68239C39.4082 8.47209 37.2203 8.5236 37.2203 8.5236H34.2345V4.91844H41.2615V2.06007H31.3773V20.2403H37.3233C37.4263 20.2403 37.555 20.2403 37.7351 20.2146C40.2577 20.0343 42.3684 18.3863 43.1148 16.1459C43.295 15.5794 43.398 14.9871 43.398 14.3691C43.398 14.3176 43.398 14.2403 43.3722 14.1631ZM39.7171 15.8369C39.2538 16.6094 38.4301 17.176 37.4777 17.382H34.2345V11.3562L36.6798 11.3305H37.452C37.5292 11.3562 37.6322 11.3562 37.7094 11.382C38.1727 11.485 38.5846 11.6652 38.9449 11.9227C39.6399 12.4635 40.1032 13.236 40.1547 14.1116C40.1547 14.1631 40.1547 14.2403 40.1547 14.2918C40.1547 14.8841 40.0003 15.3991 39.7171 15.8369Z" fill="#303030"/>
<path d="M70.6311 19.9056C70.6311 19.8798 70.6311 19.8541 70.6054 19.8283C70.6054 19.8026 70.6054 19.7768 70.5796 19.7511C70.5796 19.7253 70.5796 19.6996 70.5796 19.6996C70.4767 19.0815 70.4509 17.897 70.4252 16.8669V8.72959H67.4136V14.4721C67.4136 14.4721 67.4136 14.5751 67.4136 14.7554V14.7811C67.3878 15.2446 67.2849 16.0944 66.9245 16.6352C66.4354 17.3047 65.6632 17.7425 64.8138 17.7425C64.7366 17.7425 64.6594 17.7425 64.5822 17.7425C64.1188 17.691 63.707 17.5365 63.3466 17.3047C62.8576 16.9699 62.4715 16.4549 62.2913 15.8626C62.2913 15.8626 62.2913 15.8626 62.2913 15.8369C62.2141 15.6309 62.1626 15.1674 62.1368 14.8584C62.1111 14.7039 62.1111 14.5751 62.1111 14.5751C61.9567 12.2832 62.1111 8.75535 62.1111 8.75535L62.0339 8.72959H59.2025C59.2025 9.83689 59.2282 14.0343 59.2025 14.7554C59.2282 15.4249 59.3054 16.5322 59.6658 17.5107C59.8202 17.897 60.0261 18.309 60.2835 18.6695C60.335 18.7468 60.3865 18.824 60.4637 18.8755C60.5409 18.9528 60.6182 19.03 60.6696 19.1073C61.03 19.4678 61.4676 19.8026 62.0081 20.0343H62.0339C62.2655 20.1373 62.9863 20.4206 64.1188 20.4206C64.2733 20.4206 64.402 20.4206 64.5049 20.3948C64.5049 20.3948 66.4612 20.4206 67.5938 18.824C67.6195 19.2618 67.6967 19.9056 67.9026 20.1373H70.6826C70.6826 20.0601 70.6568 19.9828 70.6311 19.9056Z" fill="#303030"/>
<path d="M190.4 16.3519C189.834 17.4077 188.779 18.0773 187.62 18.0773C185.921 18.0773 184.531 16.6609 184.429 14.8584V14.8069C184.429 14.7554 184.429 14.7039 184.429 14.6524C184.429 14.0858 184.557 13.4936 184.815 13.0043C185.381 11.897 186.462 11.2275 187.62 11.2275C188.779 11.2275 189.86 11.897 190.426 12.9785L190.477 13.0815L193 12.0515L192.949 11.9485C191.97 9.73389 189.834 8.31759 187.517 8.31759C184.892 8.31759 182.601 10.0687 181.803 12.6953C181.623 13.3133 181.52 13.9571 181.52 14.6009C181.52 14.6781 181.52 14.7554 181.52 14.8326C181.649 18.206 184.274 20.8584 187.517 20.8584C189.808 20.8584 191.867 19.5193 192.897 17.382L192.949 17.279L190.477 16.2747L190.4 16.3519Z" fill="#303030"/>
<path d="M138.688 9.45064C138.585 9.37338 138.482 9.29613 138.354 9.21888C138.328 9.19313 138.302 9.19312 138.276 9.16737C138.199 9.11587 138.148 9.09012 138.07 9.03862L137.967 8.98711C137.839 8.90986 137.71 8.85836 137.607 8.80686C137.556 8.78111 137.53 8.78111 137.478 8.75535C137.401 8.7296 137.35 8.70385 137.272 8.6781C137.221 8.65235 137.195 8.65235 137.144 8.6266H137.118C137.015 8.60085 136.912 8.54935 136.835 8.5236C136.783 8.49784 136.706 8.49784 136.655 8.47209C136.603 8.44634 136.526 8.44634 136.475 8.42059C136.397 8.39484 136.32 8.39484 136.217 8.36909C136.166 8.36909 136.088 8.34334 136.037 8.34334C135.934 8.31758 135.857 8.31759 135.754 8.31759C135.702 8.31759 135.677 8.31759 135.625 8.31759C135.496 8.31759 135.393 8.29184 135.265 8.29184H135.239C135.085 8.29184 134.93 8.29184 134.776 8.31759H134.698C134.57 8.34334 134.441 8.34334 134.312 8.36909L134.209 8.39484C134.081 8.42059 133.952 8.44634 133.849 8.47209L133.772 8.49784C133.643 8.52359 133.514 8.5751 133.386 8.60085L133.334 8.6266C133.206 8.6781 133.077 8.72961 132.922 8.80686C131.61 9.39913 130.554 10.4549 129.911 11.7682L129.859 11.8712C129.731 12.1287 129.653 12.3863 129.55 12.6695C129.37 13.2875 129.267 13.9313 129.267 14.5751C129.267 14.6524 129.267 14.7296 129.267 14.8069C129.293 15.3219 129.37 15.8627 129.499 16.3519L129.525 16.4807C129.602 16.7124 129.679 16.9442 129.808 17.2275C129.834 17.279 129.859 17.3047 129.859 17.3562L129.911 17.4592C130.039 17.691 130.168 17.9485 130.323 18.1545L130.374 18.206C130.529 18.412 130.683 18.618 130.863 18.824L130.915 18.8755C130.966 18.927 131.018 19.0043 131.095 19.0558L131.121 19.0815C131.224 19.1845 131.352 19.3133 131.481 19.4163C131.507 19.4421 131.532 19.4678 131.558 19.4678C131.61 19.5193 131.687 19.5708 131.738 19.6223L131.79 19.6481C131.919 19.7253 132.021 19.8283 132.15 19.9056L132.227 19.9571C132.305 20.0086 132.356 20.0343 132.433 20.0858L132.511 20.1373C132.639 20.1888 132.742 20.2661 132.871 20.3176C132.922 20.3433 132.948 20.3433 133 20.3691C133.077 20.3948 133.128 20.4206 133.206 20.4463C133.257 20.4721 133.308 20.4721 133.36 20.4979C133.463 20.5236 133.566 20.5751 133.643 20.6009C133.695 20.6266 133.772 20.6266 133.823 20.6524C133.875 20.6781 133.952 20.6781 134.003 20.7039C134.081 20.7296 134.158 20.7296 134.261 20.7554C134.312 20.7554 134.39 20.7811 134.441 20.7811C134.544 20.8069 134.621 20.8069 134.724 20.8069C134.776 20.8069 134.801 20.8069 134.853 20.8069C134.982 20.8069 135.085 20.8326 135.239 20.8326C135.393 20.8326 135.548 20.8326 135.702 20.8069H135.78C135.908 20.8069 136.037 20.7811 136.166 20.7554L136.269 20.7296C136.397 20.7039 136.526 20.6781 136.629 20.6524L136.706 20.6266C136.835 20.6009 136.964 20.5494 137.092 20.5236L137.169 20.4979C137.298 20.4463 137.453 20.3948 137.556 20.3433H137.581C138.894 19.7511 139.949 18.721 140.593 17.382L140.644 17.279L137.916 16.1459L137.864 16.2489C137.298 17.3047 136.217 17.9485 135.085 17.9485C134.647 17.9485 134.235 17.8712 133.849 17.691C132.871 17.1502 132.356 16.5064 132.202 15.6309H140.825V15.5279C140.953 14.5751 141.082 11.2532 138.688 9.45064ZM138.122 13.3648H132.408C132.459 13.236 132.511 13.133 132.562 13.0043C133.128 11.897 134.209 11.2275 135.368 11.2275C135.805 11.2275 136.217 11.3047 136.603 11.485C137.298 11.8712 137.864 12.5408 138.122 13.3648Z" fill="#303030"/>
<path d="M125.355 14.6266L125.303 14.7296C124.325 16.5322 122.678 17.588 120.876 17.588C117.993 17.588 115.651 14.8326 115.651 11.4335C115.651 8.03432 117.993 5.27896 120.876 5.27896C122.987 5.27896 124.891 6.77252 125.689 9.06437L125.741 9.16737L128.752 7.87982L128.701 7.77682C127.362 4.24892 124.299 1.98282 120.85 1.98282C116.166 1.98282 112.356 6.206 112.356 11.4077C112.356 16.6094 116.166 20.8326 120.85 20.8326C123.836 20.8326 126.642 19.0558 128.186 16.1717L128.289 15.9914V15.9657L125.355 14.6266Z" fill="#303030"/>
<path d="M154.493 12.824C153.669 10.1717 151.455 8.44635 148.856 8.44635H148.778C148.778 8.44635 148.727 8.44635 148.675 8.44635H148.65C148.624 8.44635 146.771 8.47209 145.612 9.68239V8.75535H142.266V27.2961H145.612V19.8798C145.767 20.0601 145.895 20.1631 145.895 20.1631H145.921C146.719 20.9099 147.98 21.0386 148.701 21.0386C151.996 20.9871 154.647 18.309 154.776 14.9871C154.776 14.9099 154.776 14.8326 154.776 14.7554C154.802 14.0858 154.699 13.4421 154.493 12.824ZM146.462 12.0515C147.054 11.588 147.749 11.3305 148.469 11.3305C149.679 11.3305 150.786 12.0257 151.378 13.133C151.635 13.6481 151.79 14.2146 151.79 14.8069C151.79 14.8584 151.79 14.8841 151.79 14.9356V15.0129C151.738 15.9399 151.327 16.8154 150.632 17.4335C150.04 17.897 149.345 18.1545 148.624 18.1545C147.414 18.1545 146.307 17.4592 145.715 16.3519C145.69 16.3004 145.664 16.2232 145.638 16.1717C145.432 15.7082 145.329 15.2189 145.329 14.6781C145.329 14.6266 145.329 14.5751 145.329 14.5493V14.4721C145.355 14.0343 145.458 13.6223 145.638 13.2103C145.818 12.7725 146.101 12.3863 146.462 12.0515Z" fill="#303030"/>
<path d="M167.286 16.5064V16.4807C167.26 15.7339 166.977 15.1159 166.436 14.5751L166.41 14.5493C166.204 14.3433 165.973 14.1631 165.69 13.9571C165.741 13.8798 165.818 13.7768 165.87 13.6996C166.436 13.2103 166.745 12.5408 166.745 11.8197C166.745 10.4549 165.381 9.06437 163.811 8.83261C163.347 8.80686 163.013 8.78111 162.832 8.78111C162.73 8.78111 162.678 8.78111 162.678 8.78111L156.32 8.80686V20.4206H159.435L160.979 20.3948H163.373C165.072 20.2661 166.565 19.2103 167.08 17.7682C167.208 17.382 167.286 16.9957 167.286 16.6094C167.286 16.5837 167.286 16.5579 167.286 16.5064ZM164.042 16.9699C164.017 17.485 163.579 17.8712 163.193 17.9742C163.141 18 163.064 18 162.987 18.0257C162.704 18.0772 162.369 18.103 162.137 18.103H161.314C161.005 18.103 160.696 18.103 160.413 18.103H159.589V15.3734H160.413C160.696 15.3734 161.005 15.3734 161.314 15.3734H162.035C162.137 15.3734 162.704 15.3734 163.09 15.4764H163.116C163.141 15.4764 163.141 15.4764 163.167 15.5021C163.219 15.5021 163.244 15.5279 163.296 15.5536L163.322 15.5794C163.347 15.6051 163.373 15.6051 163.424 15.6309C163.759 15.8369 163.991 16.1717 164.017 16.5322V16.5579C164.017 16.6094 164.017 16.7639 164.017 16.7639C164.017 16.7639 164.068 16.9442 164.042 16.9699ZM163.27 12.9013C163.013 13.0043 162.858 13.03 162.807 13.03H162.266C162.137 13.03 162.035 13.03 162.035 13.03H159.563V11.0987H162.832C162.858 11.0987 162.987 11.1245 163.141 11.2017C163.476 11.382 163.708 11.7167 163.708 12C163.733 12.4635 163.605 12.721 163.27 12.9013Z" fill="#303030"/>
<path d="M180.49 20.3176C180.465 20.2661 180.439 20.1888 180.439 20.1116C180.439 20.0858 180.439 20.0601 180.413 20.0343L180.387 19.9056C180.284 19.2618 180.259 18.0257 180.233 17.0987V8.83261H176.99V14.7039C176.99 14.7039 176.99 14.8069 176.99 14.9614V15.0129C176.964 15.4764 176.861 16.3004 176.526 16.8154C176.063 17.4592 175.291 17.8712 174.493 17.8712C174.416 17.8712 174.338 17.8712 174.287 17.8712C173.849 17.8455 173.463 17.691 173.103 17.4592C172.639 17.1245 172.279 16.6352 172.099 16.0944V16.0687C172.047 15.9142 171.996 15.5794 171.945 15.1416V15.1159C171.945 15.0129 171.919 14.9356 171.919 14.8841V14.8326C171.764 12.5665 171.919 9.06437 171.919 9.01287V8.85836H168.753V8.98711C168.753 10.9699 168.778 14.3691 168.753 15.0129C168.778 15.7597 168.881 16.8154 169.216 17.794C169.396 18.2318 169.628 18.6438 169.86 18.9785C169.911 19.0558 169.963 19.133 170.04 19.2103C170.117 19.2875 170.194 19.3648 170.246 19.4421C170.632 19.8541 171.121 20.1631 171.636 20.3948H171.661C171.919 20.5236 172.665 20.7811 173.746 20.7811H173.798C173.952 20.7811 174.081 20.7811 174.184 20.7554C174.261 20.7554 176.011 20.7296 177.196 19.3648C177.247 19.9056 177.35 20.2661 177.53 20.4463L177.556 20.4721H180.542L180.49 20.3176Z" fill="#303030"/>
<path d="M66.6414 5.63946C66.2553 6.12873 65.6375 6.515 64.9168 6.54075C64.1188 6.5665 63.4239 6.18024 63.012 5.63946L61.4933 6.4635C62.0339 7.77681 63.4239 8.70384 64.994 8.62659C66.4355 8.57509 67.671 7.69955 68.1858 6.48925L66.6414 5.63946Z" fill="#303030"/>
<path d="M32.9989 26.8326V29.0987H32.1495V26.8326H31.2743V26.1116H33.8998V26.8326H32.9989Z" fill="#303030"/>
<path d="M35.7274 26.1116H36.5768V26.5494C36.7828 26.2661 37.0659 26.0601 37.5035 26.0601C38.1985 26.0601 38.8677 26.6009 38.8677 27.6052C38.8677 28.6094 38.2242 29.1502 37.5035 29.1502C37.0402 29.1502 36.7828 28.9442 36.5768 28.7124V30H35.7274V26.1116ZM38.0183 27.6052C38.0183 27.1159 37.6837 26.7811 37.2976 26.7811C36.9115 26.7811 36.5768 27.1159 36.5768 27.6052C36.5768 28.0944 36.9115 28.4292 37.2976 28.4292C37.6837 28.4292 38.0183 28.1202 38.0183 27.6052Z" fill="#303030"/>
<path d="M40.6952 28.2232C40.6952 27.5794 41.1843 27.2704 41.905 27.2704C42.2139 27.2704 42.4198 27.3219 42.6258 27.3991V27.3476C42.6258 26.9871 42.4198 26.8069 41.9823 26.8069C41.6476 26.8069 41.4417 26.8584 41.1586 26.9614L40.9526 26.3176C41.2873 26.1631 41.5962 26.0858 42.111 26.0858C42.5743 26.0858 42.9089 26.2146 43.1148 26.4206C43.3465 26.6524 43.4494 26.9614 43.4494 27.3734V29.0987H42.6258V28.7639C42.4198 28.9957 42.1367 29.1502 41.7249 29.1502C41.1586 29.1502 40.6952 28.8412 40.6952 28.2232ZM42.6258 28.0429V27.8884C42.4713 27.8112 42.2911 27.7854 42.0852 27.7854C41.7249 27.7854 41.4932 27.9399 41.4932 28.1974C41.4932 28.4292 41.6734 28.5579 41.9565 28.5579C42.3684 28.5579 42.6258 28.3519 42.6258 28.0429Z" fill="#303030"/>
<path d="M48.2886 29.0987H47.4392V27.9657H46.4096V29.0987H45.5602V26.1116H46.4096V27.2704H47.4392V26.1116H48.2886V29.0987Z" fill="#303030"/>
<path d="M50.2964 27.6052C50.2964 26.7554 50.9399 26.0601 51.8665 26.0601C52.4328 26.0601 52.7674 26.2661 53.0506 26.5751L52.5615 27.0644C52.3813 26.8841 52.2011 26.7811 51.8665 26.7811C51.4547 26.7811 51.1458 27.1416 51.1458 27.6052C51.1458 28.0687 51.4289 28.4292 51.8922 28.4292C52.1754 28.4292 52.3813 28.3004 52.5872 28.1202L53.0763 28.6094C52.7931 28.9185 52.4585 29.1502 51.8665 29.1502C50.9399 29.176 50.2964 28.4807 50.2964 27.6052Z" fill="#303030"/>
<path d="M57.7095 29.0987H56.8601V26.8326H55.8305V29.0987H54.9811V26.1116H57.6838V29.0987H57.7095Z" fill="#303030"/>
<path d="M59.7173 27.6052C59.7173 26.7554 60.4122 26.0601 61.3389 26.0601C62.2655 26.0601 62.9348 26.7554 62.9348 27.6052C62.9348 28.4549 62.2398 29.1502 61.3131 29.1502C60.3865 29.176 59.7173 28.4807 59.7173 27.6052ZM62.1111 27.6052C62.1111 27.1674 61.8022 26.7811 61.3389 26.7811C60.8498 26.7811 60.5667 27.1416 60.5667 27.6052C60.5667 28.0429 60.8756 28.4292 61.3389 28.4292C61.8279 28.4292 62.1111 28.0687 62.1111 27.6052Z" fill="#303030"/>
<path d="M64.9425 26.1116H65.792V26.5494C65.9979 26.2661 66.281 26.0601 66.7186 26.0601C67.4136 26.0601 68.0828 26.6009 68.0828 27.6052C68.0828 28.6094 67.4393 29.1502 66.7186 29.1502C66.2553 29.1502 65.9979 28.9442 65.792 28.7124V30H64.9425V26.1116ZM67.2334 27.6052C67.2334 27.1159 66.8988 26.7811 66.5127 26.7811C66.1266 26.7811 65.792 27.1159 65.792 27.6052C65.792 28.0944 66.1266 28.4292 66.5127 28.4292C66.8988 28.4292 67.2334 28.1202 67.2334 27.6052Z" fill="#303030"/>
<path d="M71.4291 26.8326V29.0987H70.5796V26.8326H69.7045V26.1116H72.33V26.8326H71.4291Z" fill="#303030"/>
<path d="M76.886 29.0987H76.0365V27.9657H75.0069V29.0987H74.1575V26.1116H75.0069V27.2704H76.0365V26.1116H76.886V29.0987Z" fill="#303030"/>
<path d="M78.868 28.2232C78.868 27.5794 79.357 27.2704 80.0778 27.2704C80.3866 27.2704 80.5926 27.3219 80.7985 27.3991V27.3476C80.7985 26.9871 80.5926 26.8069 80.155 26.8069C79.8204 26.8069 79.6144 26.8584 79.3313 26.9614L79.1254 26.3176C79.46 26.1631 79.7689 26.0858 80.2837 26.0858C80.747 26.0858 81.0816 26.2146 81.2875 26.4206C81.5192 26.6524 81.6222 26.9614 81.6222 27.3734V29.0987H80.7985V28.7639C80.5926 28.9957 80.3094 29.1502 79.8976 29.1502C79.3313 29.1502 78.868 28.8412 78.868 28.2232ZM80.7985 28.0429V27.8884C80.644 27.8112 80.4639 27.7854 80.2579 27.7854C79.8976 27.7854 79.6659 27.9399 79.6659 28.1974C79.6659 28.4292 79.8461 28.5579 80.1292 28.5579C80.5411 28.5579 80.7985 28.3519 80.7985 28.0429Z" fill="#303030"/>
<path d="M85.5347 29.0987V28.1459H85.0714L84.4536 29.0987H83.4755L84.2477 27.9914C83.8616 27.8369 83.6299 27.5536 83.6299 27.0901C83.6299 26.4978 84.0675 26.0858 84.8397 26.0858H86.4099V29.0987H85.5347ZM85.5347 27.5279V26.7811H84.9684C84.6595 26.7811 84.4793 26.9099 84.4793 27.1674C84.4793 27.3991 84.6595 27.5279 84.9684 27.5279H85.5347Z" fill="#303030"/>
<path d="M92.433 26.1116V27.3476L93.4884 26.1116H94.4665L93.3597 27.3476L94.5952 29.0987H93.5913L92.7934 27.9657L92.4073 28.3777V29.0987H91.5579V26.1116H92.433Z" fill="#303030"/>
<path d="M96.0624 27.6052C96.0624 26.7554 96.7574 26.0601 97.684 26.0601C98.6107 26.0601 99.2799 26.7554 99.2799 27.6052C99.2799 28.4549 98.5849 29.1502 97.6583 29.1502C96.7317 29.176 96.0624 28.4807 96.0624 27.6052ZM98.4562 27.6052C98.4562 27.1674 98.1474 26.7811 97.684 26.7811C97.195 26.7811 96.9118 27.1416 96.9118 27.6052C96.9118 28.0429 97.2207 28.4292 97.684 28.4292C98.1474 28.4292 98.4562 28.0687 98.4562 27.6052Z" fill="#303030"/>
<path d="M101.288 26.1116H102.137L102.935 27.3734L103.759 26.1116H104.608V29.0987H103.759V27.2961L102.935 28.5322L102.111 27.3219V29.0987H101.288V26.1116Z" fill="#303030"/>
<path d="M109.473 29.0987H108.624V26.8326H107.594V29.0987H106.745V26.1116H109.473V29.0987Z" fill="#303030"/>
<path d="M111.455 28.2232C111.455 27.5794 111.944 27.2704 112.665 27.2704C112.974 27.2704 113.18 27.3219 113.386 27.3991V27.3476C113.386 26.9871 113.18 26.8069 112.742 26.8069C112.407 26.8069 112.202 26.8584 111.918 26.9614L111.712 26.3176C112.047 26.1631 112.356 26.0858 112.871 26.0858C113.334 26.0858 113.669 26.2146 113.875 26.4206C114.106 26.6524 114.209 26.9614 114.209 27.3734V29.0987H113.386V28.7639C113.18 28.9957 112.897 29.1502 112.485 29.1502C111.918 29.1502 111.455 28.8412 111.455 28.2232ZM113.386 28.0429V27.8884C113.231 27.8112 113.051 27.7854 112.845 27.7854C112.485 27.7854 112.253 27.9399 112.253 28.1974C112.253 28.4292 112.433 28.5579 112.716 28.5579C113.128 28.5579 113.386 28.3519 113.386 28.0429Z" fill="#303030"/>
<path d="M119.048 29.0987H118.199V27.9657H117.169V29.0987H116.32V26.1116H117.169V27.2704H118.199V26.1116H119.048V29.0987Z" fill="#303030"/>
<path d="M123.965 29.0987H123.141V27.3734L121.983 29.0987H121.185V26.1116H122.009V27.8627L123.167 26.1116H123.965V29.0987Z" fill="#303030"/>
<path d="M127.903 29.0987V28.1459H127.44L126.822 29.0987H125.844L126.616 27.9914C126.23 27.8369 125.998 27.5536 125.998 27.0901C125.998 26.4978 126.436 26.0858 127.208 26.0858H128.778V29.0987H127.903ZM127.903 27.5279V26.7811H127.337C127.028 26.7811 126.848 26.9099 126.848 27.1674C126.848 27.3991 127.028 27.5279 127.337 27.5279H127.903Z" fill="#303030"/>
</svg>
