<svg width="133" height="30" viewBox="0 0 133 30" fill="none" xmlns="http://www.w3.org/2000/svg">
<path fill-rule="evenodd" clip-rule="evenodd" d="M132.209 9.33295L132.005 9.86568C131.8 10.3984 131.663 10.7126 131.458 11.1497C131.335 11.4229 131.199 11.7371 130.994 12.1878L126.814 22.5965C126.09 24.4542 124.628 25.506 122.825 25.506C122.197 25.506 121.473 25.3147 121.05 25.1508L120.681 24.9869L120.845 24.6044C121.432 23.3614 121.801 22.9516 123.017 22.856C123.481 22.815 123.973 22.2823 124.328 21.4354L124.505 20.9983L120.722 12.1605C120.517 11.6824 120.367 11.3273 120.216 10.9584C120.066 10.617 119.929 10.2755 119.752 9.85202L119.52 9.30563H121.377C122.456 9.30563 122.935 9.63346 123.344 10.6989C123.344 10.6989 125.421 15.8896 125.585 16.272C125.735 16.6545 125.912 17.5697 125.912 17.5697H126.008C126.008 17.5697 126.145 16.7501 126.308 16.272C126.472 15.794 128.33 10.7126 128.33 10.7126C128.713 9.67444 129.245 9.30563 130.352 9.30563H132.209V9.33295Z" fill="#303030"/>
<path fill-rule="evenodd" clip-rule="evenodd" d="M108.906 9.19635C107.636 9.19635 106.079 10.2891 105.737 11.6961C105.737 11.6824 105.737 11.0131 105.737 10.8628C105.737 10.1252 105.3 9.3466 103.907 9.3466H102.869V21.4764H105.819V16.436C105.819 15.6847 105.901 15.0563 106.065 14.51C106.502 13.062 107.595 12.1332 108.838 12.1332C109.138 12.1332 109.398 12.1878 109.398 12.1878L109.89 12.2971V9.30562L109.548 9.25099C109.534 9.25099 109.22 9.19635 108.906 9.19635Z" fill="#303030"/>
<path fill-rule="evenodd" clip-rule="evenodd" d="M117.457 9.19635C116.2 9.19635 114.643 10.2891 114.288 11.6961C114.288 11.6824 114.288 11.0131 114.288 10.8628C114.288 10.1252 113.851 9.3466 112.458 9.3466H111.42V21.4764H114.37V16.436C114.37 15.6847 114.452 15.0563 114.616 14.51C115.053 13.062 116.146 12.1332 117.402 12.1332C117.703 12.1332 117.962 12.1878 117.962 12.1878L118.441 12.2971V9.30562L118.113 9.25099C118.085 9.25099 117.771 9.19635 117.457 9.19635Z" fill="#303030"/>
<path fill-rule="evenodd" clip-rule="evenodd" d="M55.5106 9.46954C51.8361 9.46954 49.0632 12.1878 49.0632 15.7803C49.0632 19.4001 51.8361 22.1457 55.5106 22.1457C59.1441 22.1457 61.9853 19.3455 61.9853 15.7803C61.9853 12.1878 59.1987 9.46954 55.5106 9.46954ZM55.5106 19.4684C53.5436 19.4684 52.0547 17.8839 52.0547 15.7803C52.0547 13.704 53.5436 12.1468 55.5106 12.1468C57.4912 12.1468 58.9938 13.7177 58.9938 15.7803C58.9938 17.8839 57.4912 19.4684 55.5106 19.4684Z" fill="#303030"/>
<path fill-rule="evenodd" clip-rule="evenodd" d="M42.1515 9.46955C40.485 9.46955 39.3512 10.1525 38.6819 10.7262H38.6C38.6 10.7262 38.6819 10.0569 38.6819 9.38759C38.6819 8.70461 38.6819 7.09277 38.6819 7.09277C38.6819 5.8634 38.0809 5.26238 36.8652 5.26238H35.7451V15.8896C35.8953 19.7553 38.2858 22.1457 41.9875 22.1457C45.4025 22.1457 47.9841 19.4138 47.9841 15.8076C47.9841 12.2015 45.4708 9.46955 42.1515 9.46955ZM41.6734 19.4957C39.7747 19.4957 38.5726 17.6517 38.5726 15.8623C38.5726 13.144 40.3074 12.1742 41.7143 12.1742C43.3398 12.1742 45.0063 13.5401 45.0063 15.8349C45.0063 18.1298 43.3125 19.4957 41.6734 19.4957Z" fill="#303030"/>
<path fill-rule="evenodd" clip-rule="evenodd" d="M81.983 9.46955C80.3165 9.46955 79.1828 10.1525 78.5134 10.7262H78.4315C78.4315 10.7262 78.5134 10.0569 78.5134 9.38759C78.5134 8.70461 78.5134 7.09277 78.5134 7.09277C78.5134 5.8634 77.9124 5.26238 76.6967 5.26238H75.5766V15.8896C75.7269 19.7553 78.1173 22.1457 81.8191 22.1457C85.234 22.1457 87.8157 19.4138 87.8157 15.8076C87.802 12.2015 85.3023 9.46955 81.983 9.46955ZM81.4912 19.4957C79.5926 19.4957 78.3905 17.6517 78.3905 15.8623C78.3905 13.144 80.1253 12.1742 81.5322 12.1742C83.1577 12.1742 84.8379 13.5401 84.8379 15.8349C84.8379 18.1298 83.1304 19.4957 81.4912 19.4957Z" fill="#303030"/>
<path fill-rule="evenodd" clip-rule="evenodd" d="M72.3392 19.2225L69.9488 15.3978L71.9841 12.3244C72.3529 11.7644 72.6397 11.3682 72.9539 10.9448C73.1725 10.6443 73.4047 10.3301 73.6642 9.9613L74.0877 9.34662H71.8611C70.6181 9.34662 70.14 9.61981 69.4844 10.7262C69.4844 10.7262 68.5828 12.2151 68.4599 12.4337C68.337 12.6386 68.0364 13.3352 68.0228 13.3489H67.9408C67.9408 13.3489 67.6676 12.7069 67.4901 12.4337C67.3261 12.1605 66.4519 10.7262 66.4519 10.7262C65.7416 9.61981 65.2772 9.34662 64.0751 9.34662H61.8623L62.313 9.97496C62.8458 10.7399 63.16 11.177 63.6244 11.86L66.0012 15.4115L63.9795 18.7581C63.6107 19.3045 63.3239 19.7143 63.0097 20.1377C62.7911 20.4519 62.5589 20.7524 62.2994 21.1212L61.8759 21.7496H64.1025C65.3455 21.7496 65.8236 21.4764 66.4929 20.3699C66.4929 20.3699 67.3808 18.8811 67.5174 18.6762C67.6403 18.4713 67.9408 17.7746 67.9545 17.761H68.0364C68.0364 17.761 68.3096 18.403 68.4735 18.6762C68.6375 18.9493 69.5117 20.3836 69.5117 20.3836C70.222 21.49 70.6864 21.7632 71.8885 21.7632H74.1013L73.6506 21.1349C73.1042 20.3563 72.8037 19.9055 72.3392 19.2225Z" fill="#303030"/>
<path fill-rule="evenodd" clip-rule="evenodd" d="M99.0302 18.4166C98.6887 18.4166 98.3882 18.5532 98.0877 18.6898L98.0467 18.7035C97.4184 18.9903 96.6671 19.3455 95.7655 19.3455C94.2357 19.3455 92.2413 18.4029 92.0638 16.313C92.0638 16.313 100.451 16.313 100.546 16.313C100.601 15.9169 100.628 15.3295 100.628 15.029C100.628 11.6141 98.3745 9.31929 95.0552 9.31929C91.5037 9.31929 89.004 11.9283 89.004 15.6574C89.004 19.3318 91.9545 21.9954 95.6426 21.9954C98.6477 21.9954 100.314 20.1514 100.396 20.0831L100.601 19.8782L100.478 19.6187C100.205 19.0723 99.8088 18.4166 99.0302 18.4166ZM95.2601 11.6414C96.5168 11.6414 97.8418 12.42 97.8418 14.0592H92.0911C92.2823 12.8025 93.5663 11.6414 95.2601 11.6414Z" fill="#303030"/>
<path fill-rule="evenodd" clip-rule="evenodd" d="M12.7969 23.2111C14.0809 21.9271 16.1571 21.9271 17.4411 23.2111C18.7252 24.5088 18.7252 26.5987 17.4411 27.8964C16.1571 29.1941 14.0809 29.1941 12.7969 27.8964C11.5265 26.5987 11.5265 24.5088 12.7969 23.2111Z" fill="#303030"/>
<path fill-rule="evenodd" clip-rule="evenodd" d="M18.3154 17.6517C17.0314 18.9357 17.0314 21.0393 18.3154 22.3369C19.5994 23.6209 21.6757 23.6209 22.9597 22.3369C24.2437 21.0393 24.2437 18.9493 22.9597 17.6517C21.6757 16.3677 19.5994 16.3677 18.3154 17.6517Z" fill="#303030"/>
<path fill-rule="evenodd" clip-rule="evenodd" d="M23.8339 12.0922C22.5499 13.3762 22.5499 15.4798 23.8339 16.7638C25.1179 18.0615 27.1941 18.0615 28.4782 16.7638C29.7622 15.4798 29.7622 13.3762 28.4782 12.0922C27.1941 10.8082 25.1179 10.8082 23.8339 12.0922Z" fill="#303030"/>
<path fill-rule="evenodd" clip-rule="evenodd" d="M7.29204 17.6517C6.00803 18.9357 6.00803 21.0393 7.29204 22.3369C8.57604 23.6209 10.6523 23.6209 11.9363 22.3369C13.2203 21.0393 13.2203 18.9493 11.9363 17.6517C10.6523 16.3677 8.56238 16.3677 7.29204 17.6517Z" fill="#303030"/>
<path fill-rule="evenodd" clip-rule="evenodd" d="M1.75988 12.0922C0.475873 13.3899 0.475873 15.4798 1.75988 16.7638C3.04389 18.0615 5.12015 18.0615 6.40416 16.7638C7.68816 15.4798 7.68816 13.3762 6.40416 12.0922C5.13381 10.8082 3.04389 10.8082 1.75988 12.0922Z" fill="#303030"/>
<path fill-rule="evenodd" clip-rule="evenodd" d="M12.7969 12.0922C11.5265 13.3762 11.5265 15.4798 12.7969 16.7638C14.0809 18.0615 16.1571 18.0615 17.4411 16.7638C18.7252 15.4798 18.7252 13.3762 17.4411 12.0922C16.1571 10.8082 14.0809 10.8082 12.7969 12.0922Z" fill="#303030"/>
<path fill-rule="evenodd" clip-rule="evenodd" d="M7.29204 6.53273C6.00803 7.83039 6.00803 9.92032 7.29204 11.218C8.57604 12.5156 10.6523 12.5156 11.9363 11.218C13.2203 9.92032 13.2203 7.83039 11.9363 6.53273C10.6523 5.24872 8.56238 5.24872 7.29204 6.53273Z" fill="#303030"/>
<path fill-rule="evenodd" clip-rule="evenodd" d="M18.3154 6.53273C17.0314 7.83039 17.0314 9.92032 18.3154 11.218C19.5994 12.5156 21.6757 12.5156 22.9597 11.218C24.2437 9.92032 24.2437 7.83039 22.9597 6.53273C21.6757 5.24872 19.5994 5.24872 18.3154 6.53273Z" fill="#303030"/>
<path fill-rule="evenodd" clip-rule="evenodd" d="M12.7969 0.97325C14.0809 -0.324417 16.1571 -0.324417 17.4411 0.97325C18.7252 2.27092 18.7252 4.36084 17.4411 5.64485C16.1571 6.94251 14.0809 6.94251 12.7969 5.64485C11.5265 4.36084 11.5265 2.27092 12.7969 0.97325Z" fill="#303030"/>
<path fill-rule="evenodd" clip-rule="evenodd" d="M38.8458 26.8173V29.7951H38.3404V27.2954H36.9881V29.7951H36.4827V26.8173H38.8458Z" fill="#303030"/>
<path fill-rule="evenodd" clip-rule="evenodd" d="M40.321 26.8173V28.7843L42.3427 26.5988V29.7951H41.8236V27.8145L39.8156 30V26.8173H40.321Z" fill="#303030"/>
<path fill-rule="evenodd" clip-rule="evenodd" d="M45.6074 27.6505C45.3342 27.309 44.9517 27.2134 44.6785 27.2134C44.1321 27.2134 43.6404 27.5959 43.6404 28.3198C43.6404 29.0438 44.1458 29.4263 44.6785 29.4263C44.979 29.4263 45.3615 29.2897 45.6347 28.9619V29.5765C45.3205 29.8088 44.979 29.8771 44.7058 29.8771C43.7906 29.8771 43.135 29.2214 43.135 28.3198C43.135 27.4183 43.8043 26.749 44.7058 26.749C45.1702 26.749 45.4844 26.9266 45.621 27.0358V27.6505H45.6074Z" fill="#303030"/>
<path fill-rule="evenodd" clip-rule="evenodd" d="M46.4133 26.8173H46.9187V27.951H47.4378C47.6973 27.951 48.0661 27.9784 48.3256 28.2379C48.4486 28.3472 48.5578 28.5657 48.5578 28.8662C48.5578 29.1804 48.4212 29.4126 48.2983 29.5356C48.0524 29.7814 47.7246 29.7814 47.4378 29.7814H46.4133V26.8173ZM47.3968 29.3307C47.5607 29.3307 47.7383 29.317 47.8475 29.2487C47.9022 29.2077 48.0388 29.0984 48.0388 28.8662C48.0388 28.7296 47.9978 28.5794 47.8475 28.4974C47.7246 28.4155 47.5607 28.4155 47.3968 28.4155H46.9187V29.3307H47.3968Z" fill="#303030"/>
<path fill-rule="evenodd" clip-rule="evenodd" d="M49.6233 26.5988L50.839 29.0165L52.0274 26.5988L52.7513 29.7951H52.2186L51.8225 27.9511L50.8253 30L49.8145 27.9511L49.432 29.7951H48.913L49.6233 26.5988Z" fill="#303030"/>
<path fill-rule="evenodd" clip-rule="evenodd" d="M55.6199 26.8173H56.1389V29.7814H55.6199V29.3716C55.456 29.5902 55.1281 29.8771 54.6091 29.8771C53.8714 29.8771 53.1748 29.3443 53.1748 28.3062C53.1748 27.2817 53.8578 26.749 54.6091 26.749C55.1828 26.749 55.4833 27.0632 55.6199 27.2407V26.8173ZM53.7075 28.3062C53.7075 28.9482 54.0627 29.4263 54.6774 29.4263C55.3057 29.4263 55.6609 28.9072 55.6609 28.3198C55.6609 27.5549 55.1418 27.2134 54.6774 27.2134C54.172 27.2134 53.7075 27.5822 53.7075 28.3062Z" fill="#303030"/>
<path fill-rule="evenodd" clip-rule="evenodd" d="M59.267 26.8173V28.7843L61.2749 26.5988V29.7951H60.7695V27.8145L58.7479 30V26.8173H59.267Z" fill="#303030"/>
<path fill-rule="evenodd" clip-rule="evenodd" d="M66.2744 26.8173V29.7951H65.7553V27.2954H64.403V29.7951H63.8976V26.8173H66.2744Z" fill="#303030"/>
<path fill-rule="evenodd" clip-rule="evenodd" d="M67.0529 28.3199C67.0529 27.4183 67.7086 26.7627 68.6101 26.7627C69.5117 26.7627 70.1673 27.432 70.1673 28.3199C70.1673 29.2214 69.498 29.8771 68.6101 29.8771C67.7086 29.8771 67.0529 29.2214 67.0529 28.3199ZM67.572 28.3199C67.572 29.0575 68.0774 29.4263 68.6101 29.4263C69.1429 29.4263 69.6483 29.0438 69.6483 28.3199C69.6483 27.5959 69.1565 27.2134 68.6101 27.2134C68.0774 27.2134 67.572 27.5959 67.572 28.3199Z" fill="#303030"/>
<path fill-rule="evenodd" clip-rule="evenodd" d="M73.2545 27.6505C72.9813 27.309 72.5988 27.2134 72.3393 27.2134C71.7929 27.2134 71.3011 27.5959 71.3011 28.3198C71.3011 29.0438 71.8202 29.4263 72.3393 29.4263C72.6398 29.4263 73.0222 29.2897 73.2818 28.9619V29.5765C72.9676 29.8088 72.6261 29.8771 72.3529 29.8771C71.4377 29.8771 70.7821 29.2214 70.7821 28.3198C70.7821 27.4183 71.4514 26.749 72.3529 26.749C72.8174 26.749 73.1315 26.9266 73.2681 27.0358V27.6505H73.2545Z" fill="#303030"/>
<path fill-rule="evenodd" clip-rule="evenodd" d="M74.0604 26.8173H74.5794V27.951H75.0985C75.3581 27.951 75.7269 27.9784 76.0001 28.2379C76.1093 28.3472 76.2323 28.5657 76.2323 28.8662C76.2323 29.1804 76.0957 29.4126 75.9727 29.5356C75.7132 29.7814 75.399 29.7814 75.0985 29.7814H74.074V26.8173H74.0604ZM75.0439 29.3307C75.2078 29.3307 75.3717 29.317 75.4946 29.2487C75.5629 29.2077 75.6859 29.0984 75.6859 28.8662C75.6859 28.7296 75.6586 28.5794 75.5083 28.4974C75.3854 28.4155 75.2215 28.4155 75.0575 28.4155H74.5658V29.3307H75.0439ZM76.5738 26.8173H77.0928V29.7814H76.5738V26.8173Z" fill="#303030"/>
<path fill-rule="evenodd" clip-rule="evenodd" d="M80.2755 29.7951H79.7701V27.2954H78.7183V28.634C78.7183 28.8799 78.7183 29.2077 78.4861 29.4946C78.3905 29.6039 78.1719 29.8088 77.7758 29.8088C77.7348 29.8088 77.6665 29.7951 77.6256 29.7951V29.3307C77.6529 29.3307 77.7075 29.3443 77.7348 29.3443C77.9261 29.3443 78.049 29.2487 78.1037 29.1531C78.1993 29.0165 78.1993 28.8253 78.1993 28.6477V26.8446H80.2755V29.7951Z" fill="#303030"/>
<path fill-rule="evenodd" clip-rule="evenodd" d="M81.7508 26.8173V28.033L82.9392 26.8173H83.5675L82.2971 28.1423L83.7314 29.7951H83.0621L81.9147 28.4838L81.7508 28.634V29.7951H81.2454V26.8173H81.7508Z" fill="#303030"/>
<path fill-rule="evenodd" clip-rule="evenodd" d="M84.7422 26.8173V28.7843L86.7638 26.5988V29.7951H86.2584V27.8145L84.2368 30V26.8173H84.7422Z" fill="#303030"/>
</svg>
