<svg width="71" height="20" viewBox="0 0 71 20" fill="none" xmlns="http://www.w3.org/2000/svg">
<path fill-rule="evenodd" clip-rule="evenodd" d="M10.8959 15.1453H7.80384C2.98083 15.1453 6.48476 4.83412 10.5453 4.83412H15.4305C16.2135 4.83412 17.5945 4.97912 18.2749 3.02912L19.3261 0H12.6271C8.9994 0 6.17553 1.28618 4.13501 3.44412C0.610245 7.13706 -0.585017 12.9047 0.259941 15.6638C1.06383 18.2159 3.24869 19.8962 6.67019 19.9376L9.32917 19.9585H12.6066L13.4105 17.5312C14.0081 15.8091 12.6682 15.1453 10.8959 15.1453ZM48.5329 10.8715L49.543 7.57265H38.7631C36.9699 7.57265 36.166 8.07059 35.8568 9.10794L34.8466 12.4068H45.6269C47.4201 12.4068 48.224 11.9088 48.5329 10.8715ZM33.2391 16.6806L32.229 19.9791H43.009C44.7816 19.9791 45.6061 19.4815 45.9153 18.4441L46.9254 15.1453H36.1452C34.3728 15.1453 33.5689 15.6432 33.2391 16.6806ZM51.0478 3.31941L52.0577 0.0208821H41.2777C39.4845 0.0208821 38.6806 0.518527 38.3714 1.55588L37.3613 4.85471H48.1415C49.9142 4.85471 50.7178 4.35676 51.0478 3.31941ZM34.7642 3.98353C34.3109 0.912943 32.6826 0.0208821 28.7251 0.0208821H21.5109L17.3061 12.4068H19.9651C21.552 12.4068 22.3559 12.4274 23.2012 10.1453L24.953 4.83412H27.6325C29.9206 4.83412 29.4051 7.71794 28.251 10.5185C27.2203 12.9876 25.4271 15.1659 23.2628 15.1659H18.7901C16.9969 15.1659 16.1724 15.6638 15.8427 16.7012L14.7296 20H18.0067L21.2223 19.9791C24.0667 19.9585 26.3959 19.7512 29.1167 17.2821C32.0022 14.6474 35.3416 7.88383 34.7642 3.98353ZM71 0H64.7546L58.8801 6.28618C58.2001 7.01235 57.4991 7.73853 56.8191 8.58912H56.7572L59.684 0H54.5928L47.7293 19.9791H52.8202L55.005 13.6929L57.2724 11.7635L59.0658 17.4482C59.6221 19.2118 60.1995 19.9791 61.4361 19.9791H65.3317L61.3331 8.81735L71 0Z" fill="#303030"/>
</svg>
