<svg width="199" height="30" viewBox="0 0 199 30" fill="none" xmlns="http://www.w3.org/2000/svg">
<path d="M3.90978 21.0463L17.3623 23.6271L18.4074 21.8247L6.44967 16.6622L3.90978 21.0463ZM10.1418 10.2892L20.6057 18.0357L21.6509 16.2325L12.6825 5.90434L10.1427 10.2892H10.1418ZM7.01608 15.6876L18.9738 20.8517L20.0393 19.0095L9.57544 11.2638L7.01608 15.6876ZM16.1021 0L13.2782 4.88109L22.2473 15.2109L23.5765 12.9211L16.1021 0ZM0.5 26.9409H15.4472L16.7756 24.6511L3.3239 22.0703L0.5 26.9409ZM24.22 20.9101L27.7174 26.9409H31.6936L24.22 14.0311L16.7464 26.9409H20.7226L24.22 20.9101Z" fill="#303030"/>
<path d="M56.0308 26.9213H61.7273L63.0362 24.6122H56.0316L56.0308 26.9213ZM56.0308 20.5094V22.8186H64.0725L65.4106 20.5094H56.0308ZM176.764 23.2476V16.427H174.243V26.9213H176.353L182.42 20.0521V26.9213H184.94V16.427H182.714L176.764 23.2476ZM70.8523 16.427L64.815 26.9213H67.7849L71.7611 19.9929L75.7665 26.9213H78.8931L72.8558 16.427H70.8523ZM52.7111 24.6113L46.6738 14.1081H44.6127L38.5746 24.6113H37.0604V30H39.4631V26.9205H51.8218V30H54.2253V24.6113H52.7111ZM41.5835 24.6113L45.5597 17.674L49.5651 24.6113H41.5835ZM135.106 16.427H123.373V18.7362H133.757L135.106 16.427ZM67.7549 16.427H56.0316V18.7362H66.4168L67.7549 16.427ZM196.273 16.427L190.323 23.2476V16.427H187.802V26.9213H189.922L195.98 20.0521V26.9213H198.5V16.427H196.273ZM168.86 20.5094H163.34V16.427H160.819V26.9213H163.34V22.8186H168.86V26.9213H171.38V16.427H168.86V20.5094ZM138.193 16.427L132.156 26.9213H135.136L139.112 19.9929L143.117 26.9213H146.234L140.196 16.427H138.193ZM113.281 20.1892H109.451V16.4181H106.931V26.9213H113.261C114.971 26.9213 116.749 25.9767 116.749 23.5013C116.739 20.2475 114.453 20.1892 113.281 20.1892ZM113.135 24.7005H109.442V22.3621H113.135C113.564 22.3621 114.219 22.4789 114.219 23.5313C114.219 24.5051 113.681 24.7005 113.135 24.7005ZM120.521 16.427H118.029V26.9311H120.521V16.427ZM85.2436 16.1732C81.0321 16.1732 79.04 18.7459 79.04 21.6203C79.04 24.6211 80.9834 27.0665 85.2436 27.0665C87.0994 27.0665 91.3978 26.2095 91.3978 21.6203C91.3978 18.6194 89.4738 16.1732 85.2436 16.1732ZM85.2144 24.7573C82.7816 24.7573 81.7559 23.3643 81.7559 21.6494C81.7559 19.7684 82.9277 18.5116 85.2144 18.5116C87.7932 18.5116 88.6721 19.7684 88.6721 21.6494C88.6721 23.9003 86.9826 24.7573 85.2144 24.7573ZM123.373 26.9213H129.068L130.387 24.6122H123.373V26.9213ZM123.373 20.5094V22.8186H131.413L132.761 20.5094H123.373ZM149.78 23.1892V16.427H147.26V26.9213H149.38L155.447 20.1105V26.9213H157.967V16.427H155.848L149.78 23.1892ZM102.398 20.734C103.062 20.4511 103.629 19.9938 103.629 18.8529C103.629 16.68 101.802 16.427 100.512 16.427H93.7032V26.9311H100.63C103.804 26.9311 104.459 25.187 104.459 23.5889C104.469 21.7865 103.443 21.0454 102.398 20.734ZM96.1944 18.6486H100.229C100.834 18.6486 101.088 18.9608 101.088 19.5648C101.088 20.1884 100.688 20.5094 100.229 20.5094H96.1944V18.6486ZM100.63 24.6997H96.1944V22.4489H100.63C101.342 22.4489 101.861 22.624 101.861 23.5597C101.861 24.3 101.548 24.6997 100.63 24.6997Z" fill="#303030"/>
</svg>
