<svg width="63" height="30" viewBox="0 0 63 30" fill="none" xmlns="http://www.w3.org/2000/svg">
<path d="M0.5 30H30.5301V0H0.5V30Z" fill="#303030"/>
<path d="M32.4699 0V30H62.5V0H32.4699Z" fill="#303030"/>
<path d="M34.2658 28.2079H60.7038V1.79211H34.2658V28.2079Z" fill="white"/>
<path d="M3.2301 16.4516V22.6881H4.27182V20.8602C4.48734 21.0394 4.70287 21.1469 4.9184 21.1469C5.27761 21.1469 5.52906 20.9677 5.74459 20.6093C5.99603 20.215 6.1038 19.6057 6.1038 18.853C6.1038 18.3154 5.99604 17.8494 5.81643 17.4193L5.70867 17.2042L5.67274 17.1684L5.6009 17.025L5.24169 16.6666L5.16985 16.6308L5.098 16.5591L4.81064 16.4157H4.59511L4.52327 16.3799H4.30774L3.2301 16.4516ZM4.19997 17.3118H4.30774C4.55919 17.3118 4.77471 17.4551 4.9184 17.7419C5.06208 18.0286 5.13393 18.4587 5.13393 19.1039C5.13393 19.4265 5.098 19.7132 4.99024 19.8924C4.9184 20.0716 4.77471 20.1791 4.66695 20.1791C4.55919 20.1791 4.45142 20.1075 4.34366 19.9283C4.27182 19.7849 4.19997 19.534 4.19997 19.2473V17.3118Z" fill="white"/>
<path d="M27.5485 16.129L27.4407 16.2007C27.4407 16.2007 25.2855 18.4588 25.1059 18.638V16.4158H24.1001V22.6882H25.1059V20.1075C25.1418 20.0717 26.4349 18.7097 26.5786 18.5663C26.5786 18.7814 26.7223 22.6882 26.7223 22.6882H27.764L27.5485 16.129Z" fill="white"/>
<path d="M22.5558 16.2365H22.4839L22.3402 16.3799L22.4121 16.4157L22.1247 16.7025L22.0529 16.81L20.9752 17.8853L20.9034 17.9928L20.2927 18.6021V16.3799H19.2869V22.6523H20.2927V20.0716C20.3286 20.0358 21.6218 18.6738 21.7655 18.5304C21.7655 18.7455 21.9092 22.6523 21.9092 22.6523H22.9509L22.6994 16.0932L22.5558 16.2365Z" fill="white"/>
<path d="M16.7363 21.147L16.5208 20.9319L16.413 20.7169L16.1975 20.0717V19.6416C16.1975 18.9964 16.3412 18.4588 16.6645 18.0646C17.0237 17.6344 17.5266 17.4194 18.1732 17.4194H18.2091V16.3441H18.1732C17.1674 16.3441 16.3771 16.6667 15.8383 17.276C15.3354 17.8495 15.1199 18.638 15.1199 19.6416C15.1199 20.6093 15.4073 21.3979 15.9101 21.9713C16.449 22.6165 17.2392 22.9391 18.2091 22.9391H18.245V21.828H18.2091C17.5984 21.7922 17.0955 21.5771 16.7363 21.147Z" fill="white"/>
<path d="M8.61831 16.2724C8.07949 16.2724 7.64844 16.595 7.32515 17.1684C7.03778 17.7778 6.85817 18.5304 6.85817 19.4982C6.85817 20.5018 7.00186 21.2903 7.28923 21.8996C7.5766 22.5089 8.04357 22.7957 8.61831 22.7957C9.19305 22.7957 9.66003 22.4731 9.98332 21.8279C10.3066 21.2545 10.4503 20.4659 10.4503 19.4623C10.4503 18.4946 10.3066 17.7061 9.98332 17.1326L9.87555 16.9175L9.83963 16.8817V16.9175L9.19305 16.2724H9.15713L9.08529 16.2365H8.69015L8.61831 16.2724ZM8.61831 17.276C8.90568 17.276 9.12121 17.491 9.26489 17.8853C9.40858 18.2437 9.4445 18.7813 9.4445 19.4982C9.4445 20.1792 9.37266 20.7527 9.22897 21.1828L9.19305 21.2186V21.362L9.15713 21.3978V21.4337L9.12121 21.4695V21.5053L9.08529 21.5412V21.6129L9.01344 21.6846V21.7204H8.97752V21.7562L8.9416 21.7921H8.90568L8.86976 21.8279H8.47463C8.22318 21.8279 8.04357 21.6129 7.89989 21.1828C7.7562 20.7527 7.68436 20.1792 7.68436 19.534C7.68436 18.853 7.7562 18.3154 7.89989 17.8853C8.18726 17.491 8.36686 17.276 8.61831 17.276Z" fill="white"/>
<path d="M12.8567 21.147L12.713 21.0036L12.5693 20.7169L12.4257 20.2868V19.6416C12.4257 18.9964 12.5693 18.4588 12.8926 18.0646C13.2518 17.6344 13.7188 17.4194 14.4013 17.4194H14.4372V16.3441H14.4013C13.3955 16.3441 12.6053 16.6667 12.0664 17.276C11.5635 17.8495 11.348 18.638 11.348 19.6416C11.348 20.6093 11.5995 21.3979 12.1383 21.9713C12.6771 22.6165 13.4674 22.9391 14.4372 22.9391H14.4732V21.828H14.4372C13.6829 21.7922 13.18 21.5771 12.8567 21.147Z" fill="white"/>
<path d="M3.2301 7.2402V13.5484H4.4155V8.27963H5.85235V13.5484H7.00183V7.2402H3.2301Z" fill="white"/>
<path d="M10.5579 7.09677C9.94722 7.09677 9.44432 7.41937 9.08511 8.02868C8.7259 8.638 8.58221 9.42653 8.58221 10.3943C8.58221 11.3979 8.76182 12.2222 9.08511 12.7957C9.4084 13.405 9.9113 13.6918 10.5579 13.6918C11.2045 13.6918 11.7433 13.3692 12.1025 12.724C12.4617 12.1147 12.6413 11.3262 12.6413 10.3584C12.6413 9.39069 12.4617 8.60215 12.1025 7.99283L11.9947 7.77778L11.9588 7.74195L11.9229 7.67026L11.5996 7.34767L11.5278 7.31184L11.42 7.20432L11.3481 7.16846L11.3122 7.13263L11.1685 7.06094H11.1326L11.0608 7.0251H10.5579V7.09677ZM10.5938 8.13621C10.9171 8.13621 11.1326 8.35126 11.2763 8.74553C11.42 9.10395 11.4918 9.64159 11.4918 10.3584C11.4918 11.0394 11.42 11.5771 11.2404 12.0072C11.0967 12.4373 10.8812 12.6165 10.5938 12.6165H10.1627L10.1268 12.5807H10.0909L10.055 12.5448H10.0191V12.509L9.94722 12.4373V12.4014L9.87538 12.3298V12.2939L9.83946 12.2581V12.2222L9.80354 12.1864V12.1147L9.76761 12.0789V12.0072L9.73169 11.9713C9.58801 11.5412 9.48024 10.9677 9.48024 10.3226C9.48024 9.64157 9.55209 9.10394 9.73169 8.70967C10.0909 8.35125 10.3064 8.13621 10.5938 8.13621Z" fill="white"/>
<path d="M18.9636 7.2402V8.27963H19.9335V13.5484H21.083V8.27963H22.0888V7.2402H18.9636Z" fill="white"/>
<path d="M16.4131 9.42657H15.7665C15.5151 9.42657 15.2996 9.35488 15.1918 9.24736C15.1199 9.17567 15.0481 9.06816 15.0481 8.92479V7.2402H13.8986V9.03231C13.8986 9.46242 14.0782 9.78501 14.4015 10.0717C14.7248 10.3585 15.1199 10.5018 15.551 10.5018H16.4131V13.5484H17.5626V7.2402H16.4131V9.42657Z" fill="white"/>
<path d="M23.5971 7.2402L23.3816 13.5484H24.5311C24.5311 13.5484 24.6388 10.6094 24.6388 10.466H26.0757C26.0757 10.6094 26.399 13.5484 26.399 13.5484H27.5485L27.0096 8.96062V8.31547L26.9737 8.27963V8.20794L26.8659 8.10042V8.06457L26.4349 7.63445C26.1475 7.4194 25.7524 7.31189 25.2495 7.31189L23.5971 7.2402ZM24.7107 8.27963H25.1417C25.4291 8.27963 25.6446 8.38715 25.7883 8.56637C25.8961 8.70974 25.9679 8.99646 26.0038 9.42657H24.7107V8.27963Z" fill="white"/>
<path d="M41.5579 9.71334L41.5938 9.82086L41.6297 9.89255L41.6656 10.0001L41.7375 10.1076H41.8093L42.0608 10.3585L42.0967 10.4302L42.1326 10.466L42.1685 10.5377L42.8151 11.1829H42.887L43.1025 11.3979C43.318 11.5413 43.5695 11.8639 43.3899 12.294C43.2102 12.7241 42.851 13.3692 43.0666 13.6201C43.2821 13.871 44.0364 13.9786 44.6471 13.7635C44.6471 13.7635 44.7908 14.1578 45.0063 14.4087C45.0063 14.4087 44.8985 14.6237 44.5393 14.5162C44.5393 14.5162 44.683 14.8388 44.5034 15.1613C44.5034 15.1613 44.1083 15.0897 43.9287 14.7313C43.9287 14.7313 43.785 15.018 43.4258 15.1255C43.4258 15.1255 43.1384 14.9821 43.2102 14.4445C43.2102 14.4445 42.9947 14.9105 42.42 15.018C42.42 15.018 42.0608 14.5879 42.5277 13.9786C42.5277 13.9786 42.2045 14.2653 41.5938 14.1219C41.5938 14.1219 41.486 13.8352 42.0248 13.4051C42.0248 13.4051 41.4142 13.3692 41.1987 12.8675C41.1987 12.8675 41.4501 12.5449 42.0967 12.6166C42.0967 12.6166 41.5219 12.4732 41.3783 11.7922C41.3783 11.7922 41.8093 11.5054 42.4559 11.9714C42.4559 11.9714 42.3481 11.7563 42.0608 11.5413C41.7734 11.2187 41.4501 10.6094 41.5579 9.71334Z" fill="#303030"/>
<path d="M44.0006 16.7383L43.9288 16.6666V16.2724C44.0365 17.1326 44.0724 17.7061 44.5394 18.2437C44.5394 18.2437 44.8268 17.8853 44.6472 16.9892C44.5753 16.9534 44.5035 16.9176 44.3957 16.8817C44.3957 16.8817 44.5035 17.2401 44.4317 17.5986C44.288 17.7419 44.1443 17.5985 44.0006 16.7383Z" fill="#303030"/>
<path d="M43.2101 16.6666L43.1742 16.6308V16.5949L43.1383 16.5591V16.4874L43.1023 16.4516V16.3799C43.0664 16.8817 42.9227 18.172 43.3897 18.5662C43.3897 18.5662 43.6771 18.3512 43.7849 16.4516C43.713 16.5591 43.6052 16.6666 43.5693 16.7383C43.5693 16.7383 43.6412 17.3476 43.4256 17.7777C43.3179 17.7419 43.1023 17.5627 43.2101 16.6666Z" fill="#303030"/>
<path d="M42.1684 17.6702L42.2402 17.5986L42.5994 16.8817L42.6354 16.7383V16.6667L42.6713 16.595V15.9857C42.7072 15.9498 42.7791 15.914 42.815 15.8781C42.8509 15.8781 42.8509 15.8423 42.8868 15.8065C42.8868 15.8423 42.8868 15.914 42.8868 15.9498C42.815 16.7383 42.7791 17.5627 42.5276 17.957C42.2762 18.3513 41.8451 18.5663 41.8451 18.5663C41.4141 17.8136 41.9169 16.8459 42.348 16.129C42.4198 16.129 42.4558 16.0932 42.4917 16.0573C42.348 16.5233 42.0606 17.1684 42.1684 17.6702Z" fill="#303030"/>
<path d="M41.1269 15.3764V15.4122C41.1269 15.4122 41.1269 15.448 41.1269 15.4839C40.7677 15.8065 40.5162 16.1649 40.0133 16.8817C39.4745 17.5986 38.6842 17.6344 38.6842 17.6344C38.7561 17.0609 38.9357 16.595 39.3667 16.0932C39.7978 15.5914 40.3725 15.1255 40.7677 14.8387C40.8754 14.8746 41.0191 14.9104 41.1987 14.9104H41.2346C41.1628 14.9821 41.1628 15.0538 41.1269 15.1255C40.8036 15.3047 39.9056 15.7706 39.5464 16.4875C39.5823 16.6308 40.157 16.4516 41.1269 15.3764Z" fill="#303030"/>
<path d="M40.4805 14.6595L40.5165 14.5878C40.5165 14.5878 40.5524 14.552 40.5524 14.5161C40.1932 14.6595 39.0078 15.0896 38.6126 15.3047C38.2175 15.5197 37.6428 15.9498 37.3554 16.8817C37.3554 16.8817 38.1816 16.9534 38.8282 16.4158C39.5107 15.8781 40.265 15.0896 40.6242 14.8387C40.5883 14.8029 40.5524 14.767 40.5524 14.767C40.5524 14.767 39.6543 15.5556 38.6845 15.914C38.6845 15.914 38.9 15.5556 39.2592 15.2688C39.7262 14.9463 40.0854 14.8387 40.4805 14.6595Z" fill="#303030"/>
<path d="M39.7977 14.1219L39.8336 14.0861C39.4385 14.1578 38.4327 14.3011 38.0016 14.4087C37.5706 14.552 36.7444 14.8746 36.2774 15.7707C36.2774 15.7707 36.9959 15.9857 38.289 15.3764C39.6181 14.7671 40.0132 14.6237 40.2647 14.552C40.0492 14.552 39.9055 14.4803 39.8336 14.4445C39.2948 14.6954 38.6123 14.9463 37.8939 14.9821C37.8939 14.9821 38.2531 14.7312 38.6123 14.5879C39.0434 14.337 39.4744 14.1936 39.7977 14.1219Z" fill="#303030"/>
<path d="M39.834 13.4409L39.8699 13.4768H40.2291C40.1573 13.5485 40.0495 13.6201 39.9776 13.7276C39.5107 13.871 38.7204 14.0144 37.4272 14.0861C36.1341 14.1936 35.4157 13.9427 35.4157 13.9427C35.8826 13.656 36.6011 13.3692 37.104 13.2976C37.6068 13.19 38.9 13.2259 39.4388 13.1183C39.4388 13.1183 39.5107 13.19 39.6184 13.2617C39.1515 13.2975 38.1097 13.3334 37.6068 13.6201C37.6068 13.6918 38.5767 13.8352 39.834 13.4409Z" fill="#303030"/>
<path d="M39.7259 12.6882L39.7619 12.6524C39.1153 12.4731 38.1813 12.1147 36.8163 12.0431C35.8105 11.9714 35.0921 12.043 34.7329 12.1147C34.7329 12.1147 35.6309 12.7599 36.7086 12.9749C37.7503 13.19 38.6124 13.0466 39.223 13.0466C39.259 12.9749 39.2949 12.9391 39.4026 12.8674C38.6842 12.8674 37.4629 12.6882 37.0318 12.5448C37.2114 12.509 38.2532 12.2939 39.7259 12.6882Z" fill="#303030"/>
<path d="M39.7258 11.9354V12.258L40.0131 12.5447H40.0491L40.1209 12.6164H40.1568C39.2229 12.2222 37.3909 11.9713 36.421 11.577C35.0919 11.0394 34.8405 10.3225 34.8405 10.3225C35.99 10.2867 36.9239 10.5734 37.6423 10.7885C38.4685 11.0394 39.7617 11.5053 40.1927 11.7204C40.0131 11.7204 39.8335 11.7562 39.6898 11.8637C39.0792 11.6129 38.7918 11.5053 38.2171 11.3619C37.786 11.2544 37.4268 11.2186 37.1754 11.1827C37.1754 11.1827 37.5705 11.4336 38.2171 11.6487C38.9355 11.792 39.2229 11.8279 39.7258 11.9354Z" fill="#303030"/>
<path d="M39.6543 10.9319L39.6902 10.9677V11.0394C38.2174 10.7885 36.601 9.67739 36.0981 8.99639C35.5952 8.31539 35.7389 7.27594 35.7389 7.27594C36.2058 7.38347 37.2835 8.27954 37.5349 8.56628C37.8223 8.85302 38.6485 9.64155 39.2232 10.0717L39.4028 10.5734C38.9359 10.1792 38.3252 9.74908 37.966 9.46234C37.6786 9.24728 37.2835 8.96055 36.8524 8.81718C36.8524 8.81718 37.2116 9.31897 37.5349 9.53403C37.8941 9.82076 38.2534 10.0716 38.5407 10.215C39.0077 10.5734 39.1155 10.6451 39.6543 10.9319Z" fill="#303030"/>
<path d="M43.8208 15.0179L43.8568 14.9821C43.9286 15.0538 44.1441 15.3405 44.2519 15.6273C44.3237 15.8781 44.4315 16.2007 44.4674 16.3799C44.5033 16.5591 44.647 16.9534 44.7189 17.0968C44.7189 17.0968 44.3596 17.1326 44.1082 16.8459C43.8568 16.5591 43.749 16.2366 43.7131 15.914C43.749 15.5914 43.7849 15.233 43.8208 15.0179Z" fill="#303030"/>
<path d="M43.2463 15.0538L43.2822 15.0897L43.3541 15.1255H43.39C43.4259 15.1255 43.4618 15.0897 43.4977 15.0897C43.5696 15.233 43.5696 15.3047 43.5696 15.4122C43.5696 15.5914 43.6055 15.8423 43.5696 16.0574C43.4977 16.3083 43.3541 16.4517 43.2463 16.5592C43.2463 16.5592 42.9948 16.3083 42.9589 16.0932C42.8871 15.8782 42.8512 15.6273 42.9589 15.3405C43.1026 15.2689 43.1744 15.1255 43.2463 15.0538Z" fill="#303030"/>
<path d="M42.4199 15.0897H43.0306C43.0665 15.1614 43.1024 15.2689 43.0665 15.4481C43.0306 15.6273 42.9228 15.8065 42.7432 15.9141C42.4918 16.0933 42.1685 16.2725 41.8093 16.2366C41.8093 16.0216 41.7374 15.7348 42.4199 15.0897Z" fill="#303030"/>
<path d="M42.1687 14.6595V14.767C42.0968 14.8745 41.7736 15.3763 41.1629 15.3047C41.1629 15.3047 40.9833 14.9462 41.4143 14.6595C41.8454 14.7312 41.9891 14.6953 42.1687 14.6595Z" fill="#303030"/>
<path d="M42.2047 14.1936L42.1328 14.2294H41.3785L41.3426 14.1577C41.0193 14.4086 40.6241 14.4803 40.5164 14.6953C40.5164 14.6953 40.696 14.9821 41.0911 14.9462C41.5222 14.9104 41.8095 14.6953 42.061 14.4086C42.1688 14.3369 42.2047 14.2652 42.2047 14.1936Z" fill="#303030"/>
<path d="M41.4859 13.8352L41.5218 13.7993V13.5843C41.2344 13.5485 40.983 13.5126 40.6597 13.5843C40.2646 13.656 39.8694 13.7635 39.6898 14.337C39.6898 14.337 39.9413 14.552 40.4082 14.4445C40.983 14.2653 41.3063 14.1219 41.4859 13.8352Z" fill="#303030"/>
<path d="M41.3422 13.19L41.3063 13.1542V12.8316L41.2704 12.7599C40.9471 12.6165 40.5879 12.5449 40.2646 12.6882C39.9054 12.8316 39.8335 12.975 39.7617 13.0825C39.7617 13.0825 40.1209 13.4051 40.5879 13.4051C40.7675 13.4409 41.1626 13.3334 41.3422 13.19Z" fill="#303030"/>
<path d="M41.4502 12.5089H41.4861C41.3425 12.3656 41.1988 12.1864 41.1269 11.8638C40.9832 11.8996 40.5881 11.8996 40.4444 11.8279C40.2648 11.7562 39.9772 11.7562 39.7258 11.9354C39.7258 11.9354 39.7978 12.3656 40.3726 12.5089C41.0192 12.6165 41.2347 12.5806 41.4502 12.5089Z" fill="#303030"/>
<path d="M41.2349 11.6846L41.3067 11.6487C41.3067 11.6487 41.4504 11.5771 41.6659 11.5412C41.4863 11.3978 41.0553 11.0394 40.7679 10.8961C40.4446 10.7168 39.9058 10.466 39.6184 10.4301C39.6184 10.4301 39.8699 11.1111 40.1931 11.3978C40.4805 11.6487 40.696 11.7563 41.2349 11.6846Z" fill="#303030"/>
<path d="M41.8096 11.362L41.7737 11.2903L41.7018 11.2186V11.1828L41.63 11.1111V11.0394L41.5941 11.0036V10.7527C41.5222 10.5018 41.3785 9.96415 41.3067 9.78494C41.2349 9.64157 40.9116 9.13979 40.3009 8.96057C40.3009 8.96057 40.1572 9.64159 40.4446 10.1792C40.5883 10.5735 41.1271 11.0394 41.8096 11.362Z" fill="#303030"/>
<path d="M45.15 14.4803L45.1859 14.5161H45.2218C45.2218 14.5161 45.4014 14.8745 45.1859 15.3046C44.9344 15.7347 44.7548 16.2007 44.683 16.4516C44.683 16.4516 44.5752 16.4516 44.4315 15.7348C44.3238 15.2688 44.216 15.1613 44.1083 14.9821C44.2519 15.0537 44.3597 15.0537 44.3597 15.0537L44.4315 15.0896L44.4675 15.0179C44.5393 14.8745 44.5752 14.6953 44.5752 14.5878C44.5752 14.552 44.5752 14.5161 44.5752 14.4803C44.9344 14.6236 45.0781 14.5161 45.15 14.4803C45.114 14.4803 45.114 14.4803 45.15 14.4803Z" fill="#303030"/>
<path d="M40.0134 9.17562V9.56987C39.6542 9.10392 39.2231 8.56629 38.828 8.06449C38.5406 7.70607 38.3251 7.52686 38.0377 7.34765C38.2533 7.99281 38.6484 8.49461 38.9358 8.74551C39.2231 8.9964 39.6183 9.42651 40.0134 9.71325L40.0493 9.82077C40.0852 9.9283 40.1212 10.0717 40.193 10.1792C40.3008 10.3584 40.4085 10.5018 40.5522 10.6451C40.4445 10.5735 40.3008 10.5376 40.193 10.4659L40.0852 10.3942C39.0076 9.82077 37.93 8.63797 37.4989 7.81359C37.0679 6.98922 37.2475 6.02149 37.3552 5.5197C37.8581 5.94981 38.5766 6.77418 38.8639 7.20429C39.2231 7.74193 39.726 8.53046 40.0134 9.17562Z" fill="#303030"/>
<path d="M55.2441 12.6882L55.2082 12.6524H54.9568C55.6033 12.4731 56.5373 12.1147 57.9023 12.0431C58.9081 11.9714 59.6265 12.043 59.9857 12.1147C59.9857 12.1147 59.0518 12.7599 58.046 12.9749C57.0043 13.19 56.1422 13.0466 55.5315 13.0466C55.4956 12.9749 55.4597 12.9391 55.3878 12.8674C56.1062 12.8674 57.3276 12.6882 57.7586 12.5448C57.7586 12.509 56.7169 12.2939 55.2441 12.6882Z" fill="#303030"/>
<path d="M55.2439 11.9354V12.1505L54.8488 12.5447H54.8129L54.741 12.6164H54.7051C55.639 12.2222 57.471 11.9713 58.4409 11.577C59.77 11.0394 60.0214 10.3225 60.0214 10.3225C58.872 10.2867 57.938 10.5734 57.2196 10.7885C56.3934 11.0394 55.1002 11.5053 54.6692 11.7204C54.8488 11.7204 55.0284 11.7562 55.1721 11.8637C55.7827 11.6129 56.0701 11.5053 56.6448 11.3619C57.0759 11.2544 57.4351 11.2186 57.6866 11.1827C57.6866 11.1827 57.2914 11.4336 56.6448 11.6487C56.0342 11.792 55.7468 11.8279 55.2439 11.9354Z" fill="#303030"/>
<path d="M55.3157 10.9319L55.2798 10.9677V11.0394H55.2439V11.0753C56.7166 10.8244 58.3331 9.71324 58.836 9.03224C59.3389 8.35124 59.1952 7.31181 59.1952 7.31181C58.7282 7.41934 57.6506 8.31539 57.3991 8.60213C57.1118 8.88887 56.2856 9.6774 55.7468 10.1075L55.5671 10.6093C56.0341 10.215 56.6448 9.78492 57.004 9.49819C57.2914 9.28313 57.6865 8.9964 58.1176 8.85303C58.1176 8.85303 57.7224 9.35482 57.435 9.56987C57.0758 9.85661 56.7166 10.1075 56.4293 10.2509C55.9623 10.5735 55.8186 10.6451 55.3157 10.9319Z" fill="#303030"/>
<path d="M54.9566 9.17565V9.60574C55.3158 9.13979 55.7469 8.60218 56.142 8.10038C56.4294 7.74196 56.6449 7.56275 56.9323 7.38354C56.7167 8.0287 56.3216 8.53048 56.0342 8.78137C55.7469 9.03227 55.3517 9.46238 54.9566 9.74912L54.9207 9.85664C54.8848 9.96417 54.8488 10.1075 54.777 10.2151C54.6692 10.3943 54.5615 10.5376 54.4178 10.681C54.5255 10.6093 54.6692 10.5735 54.8129 10.5018L54.9207 10.4301C55.9983 9.85666 57.076 8.67386 57.507 7.84948C57.9381 7.02511 57.7585 6.05736 57.6507 5.55557C57.1478 5.98568 56.4653 6.81005 56.142 7.24016C55.7469 7.74195 55.244 8.53049 54.9566 9.17565Z" fill="#303030"/>
<path d="M41.4143 15.699L41.3065 15.8065L41.2706 15.8782L40.4085 16.7384L40.2289 17.0968L40.193 17.2044L40.1571 17.276L40.0493 17.5986V18.2438C40.0493 18.2438 40.9114 17.957 41.2706 17.3477C41.6298 16.7026 41.8454 16.3083 41.989 16.1649C41.8813 16.1649 41.8094 16.1649 41.7017 16.1649H41.6298C41.4143 16.5592 40.9832 17.2402 40.5522 17.4553C40.5522 17.4553 40.4444 16.9176 41.6298 15.8423C41.6298 15.8065 41.6657 15.7348 41.7017 15.699C41.6657 15.699 41.558 15.699 41.4143 15.699Z" fill="#303030"/>
<path d="M53.4119 9.71334L53.3759 9.82086L53.34 9.89255L53.3041 10.0001L53.2323 10.1076L52.9449 10.3943L52.909 10.466L52.873 10.5019L52.8371 10.5735L51.9032 11.5055C51.6876 11.6488 51.4362 11.9714 51.6158 12.4015C51.7954 12.8316 52.1546 13.4768 51.9391 13.7277C51.7236 13.9786 50.9692 14.0861 50.3586 13.871C50.3586 13.871 50.2149 14.2653 49.9993 14.5162C49.9993 14.5162 50.1071 14.7312 50.4663 14.6237C50.4663 14.6237 50.3226 14.9463 50.5022 15.2689C50.5022 15.2689 50.8974 15.1972 51.077 14.8388C51.077 14.8388 51.2207 15.1255 51.5799 15.233C51.5799 15.233 51.8672 15.0897 51.7954 14.552C51.7954 14.552 52.0109 15.018 52.6216 15.1255C52.6216 15.1255 52.9808 14.6954 52.5138 14.0861C52.5138 14.0861 52.8371 14.3728 53.4478 14.2295C53.4478 14.2295 53.5555 13.9427 53.0167 13.5126C53.0167 13.5126 53.6274 13.4768 53.8429 12.975C53.8429 12.975 53.5915 12.6524 52.9449 12.7241C52.9449 12.7241 53.5196 12.5807 53.6633 11.8997C53.6633 11.8997 53.2323 11.613 52.5857 12.0789C52.5857 12.0789 52.6934 11.8639 52.9808 11.6488C53.1963 11.2187 53.5196 10.6094 53.4119 9.71334Z" fill="#303030"/>
<path d="M50.9691 16.7383L51.005 16.7025V16.6666L51.0409 16.6308V16.2724C50.9332 17.1326 50.8972 17.7061 50.4303 18.2437C50.4303 18.2437 50.1429 17.8853 50.3225 16.9892C50.3943 16.9534 50.4662 16.9176 50.574 16.8817C50.574 16.8817 50.4662 17.2401 50.538 17.5986C50.6458 17.7419 50.8254 17.5985 50.9691 16.7383Z" fill="#303030"/>
<path d="M51.7594 16.6666L51.7953 16.6308H51.8313V16.5591L51.8672 16.5233V16.3799C51.9031 16.8817 52.0468 18.172 51.6157 18.5662C51.6157 18.5662 51.3284 18.3512 51.2206 16.4516C51.2924 16.5591 51.4002 16.6666 51.4361 16.7383C51.4361 16.7383 51.3643 17.3476 51.5798 17.7777C51.6517 17.7419 51.8672 17.5627 51.7594 16.6666Z" fill="#303030"/>
<path d="M52.8011 17.6703L52.7292 17.5986L52.5855 17.3118V17.276L52.4059 16.9176L52.37 16.7742L52.3341 16.7025V16.0215C52.2623 15.9857 52.2263 15.9499 52.1904 15.914C52.1545 15.914 52.1545 15.8782 52.1186 15.8423C52.1186 15.8782 52.1186 15.9499 52.1186 15.9857C52.1904 16.7742 52.2263 17.5986 52.4778 17.9929C52.7292 18.3871 53.1603 18.6022 53.1603 18.6022C53.5913 17.8495 53.0884 16.8818 52.6574 16.1649C52.5855 16.1649 52.5496 16.1291 52.5137 16.0932C52.6215 16.5233 52.9088 17.1685 52.8011 17.6703Z" fill="#303030"/>
<path d="M53.843 15.3764V15.4122C53.843 15.4122 53.843 15.448 53.8071 15.4839C54.1663 15.8065 54.4177 16.1649 54.9206 16.8817C55.4235 17.5986 56.2497 17.6344 56.2497 17.6344C56.1779 17.0609 55.9983 16.595 55.5672 16.0932C55.1362 15.5914 54.5614 15.1255 54.1663 14.8387C54.0585 14.8746 53.9148 14.9104 53.7352 14.9104C53.6993 14.9104 53.6993 14.9104 53.6993 14.9104C53.7712 14.9821 53.7712 15.0538 53.8071 15.1255C54.1304 15.3047 55.0284 15.7706 55.3876 16.4875C55.3876 16.6308 54.8129 16.4516 53.843 15.3764Z" fill="#303030"/>
<path d="M54.4896 14.6595L54.4536 14.5878C54.4536 14.5878 54.4177 14.552 54.4177 14.5161C54.741 14.6595 55.9623 15.0896 56.3575 15.3047C56.7526 15.5197 57.3273 15.9498 57.6147 16.8817C57.6147 16.8817 56.7885 16.9534 56.1419 16.4158C55.4594 15.8781 54.7051 15.0896 54.3459 14.8387C54.3818 14.8029 54.4177 14.767 54.4177 14.767C54.4177 14.767 55.3158 15.5556 56.2856 15.914C56.2856 15.914 56.0701 15.5556 55.7109 15.2688C55.2439 14.9463 54.8847 14.8387 54.4896 14.6595Z" fill="#303030"/>
<path d="M55.1719 14.1219L55.1359 14.0861C55.5311 14.1578 56.5369 14.3011 56.9679 14.4087C57.399 14.552 58.2252 14.8746 58.6921 15.7707C58.6921 15.7707 58.0096 15.9857 56.6805 15.3764C55.3515 14.7671 54.9563 14.6237 54.7049 14.552C54.9204 14.552 55.0641 14.4803 55.1359 14.4445C55.6747 14.6954 56.3573 14.9463 57.0757 14.9821C57.0757 14.9821 56.7165 14.7312 56.3573 14.5879C55.9262 14.337 55.4951 14.1936 55.1719 14.1219Z" fill="#303030"/>
<path d="M55.1364 13.4409L55.1004 13.4768H54.6335C54.7053 13.5485 54.8131 13.6201 54.8849 13.7276C55.3519 13.871 56.1422 14.0144 57.4353 14.0861C58.7285 14.1936 59.4469 13.9427 59.4469 13.9427C58.9799 13.656 58.2615 13.3692 57.7586 13.2976C57.2557 13.19 55.9985 13.2259 55.4237 13.1183C55.4237 13.1183 55.3519 13.19 55.2441 13.2617C55.7111 13.2975 56.7169 13.3334 57.2557 13.6201C57.3635 13.6918 56.3936 13.8352 55.1364 13.4409Z" fill="#303030"/>
<path d="M51.1488 15.0179L51.1128 14.9821C51.041 15.0538 50.8255 15.3405 50.7177 15.6273C50.6459 15.8781 50.5381 16.2007 50.5022 16.3799C50.4663 16.5591 50.3226 16.9534 50.2507 17.0968C50.2507 17.0968 50.6099 17.1326 50.8614 16.8459C51.1128 16.5591 51.2206 16.2366 51.2565 15.914C51.2206 15.5914 51.1847 15.233 51.1488 15.0179Z" fill="#303030"/>
<path d="M51.7234 15.0538L51.6516 15.1255H51.5797C51.5438 15.1255 51.5079 15.0897 51.472 15.0897C51.4361 15.233 51.4001 15.3047 51.4001 15.4122C51.3642 15.5914 51.3642 15.8423 51.4001 16.0574C51.472 16.3083 51.6157 16.4517 51.7234 16.5592C51.7234 16.5592 51.9749 16.3083 52.0108 16.0932C52.0826 15.8782 52.1186 15.6273 52.0108 15.3405C51.8671 15.2689 51.7953 15.1255 51.7234 15.0538Z" fill="#303030"/>
<path d="M52.5497 15.0897H51.939C51.9031 15.1614 51.8672 15.2689 51.9031 15.4481C51.939 15.6273 52.0468 15.8065 52.2264 15.9141C52.4778 16.0933 52.8011 16.2725 53.1603 16.2366C53.1603 16.0216 53.2322 15.7348 52.5497 15.0897Z" fill="#303030"/>
<path d="M52.8013 14.6595V14.767C52.8732 14.8745 53.1965 15.3763 53.8071 15.3047C53.8071 15.3047 53.9867 14.9462 53.5557 14.6595C53.1246 14.7312 52.9809 14.6953 52.8013 14.6595Z" fill="#303030"/>
<path d="M52.7294 14.1936L52.8013 14.2294H53.4119L53.4478 14.2295L53.5197 14.2294L53.5556 14.1577C53.8789 14.4086 54.2741 14.4803 54.3818 14.6953C54.3818 14.6953 54.2381 14.9821 53.8071 14.9462C53.376 14.9104 53.0887 14.6953 52.8372 14.4086C52.8013 14.3369 52.7654 14.2652 52.7294 14.1936Z" fill="#303030"/>
<path d="M53.4838 13.8352L53.4479 13.7993V13.5843C53.7353 13.5485 53.9867 13.5126 54.31 13.5843C54.7052 13.656 55.1003 13.7635 55.2799 14.337C55.2799 14.337 55.0284 14.552 54.5974 14.4445C53.9867 14.2653 53.6634 14.1219 53.4838 13.8352Z" fill="#303030"/>
<path d="M53.6274 13.19L53.6633 13.1542H53.7711L53.807 13.1183H53.8429V13.0825L53.8789 13.0466V12.8316L53.9148 12.7599C54.2381 12.6165 54.5973 12.5449 54.9206 12.6882C55.2439 12.8316 55.3516 12.975 55.4235 13.0825C55.4235 13.0825 55.0283 13.4051 54.6332 13.4051C54.2021 13.4409 53.807 13.3334 53.6274 13.19Z" fill="#303030"/>
<path d="M53.5195 12.5089H53.4836C53.6273 12.3656 53.771 12.1864 53.8428 11.8638C53.9865 11.8996 54.3457 11.8996 54.5253 11.8279C54.669 11.7562 54.9925 11.7562 55.2439 11.9354C55.2439 11.9354 55.1719 12.3656 54.5972 12.5089C53.9506 12.6165 53.7351 12.5806 53.5195 12.5089Z" fill="#303030"/>
<path d="M53.7352 11.6846L53.6633 11.6487C53.6633 11.6487 53.5196 11.5771 53.3041 11.5412C53.4837 11.3978 53.9148 11.0394 54.2022 10.8961C54.5254 10.7168 55.0643 10.466 55.3516 10.4301C55.3516 10.4301 55.1002 11.1111 54.7769 11.3978C54.4895 11.6487 54.274 11.7563 53.7352 11.6846Z" fill="#303030"/>
<path d="M53.1603 11.362L53.1963 11.2903L53.5555 10.9319V10.8961L53.5914 10.8602V10.7885L53.6273 10.7527C53.6992 10.5018 53.8428 9.96415 53.9147 9.78494C53.9865 9.64157 54.3098 9.13979 54.9205 8.96057C54.9205 8.96057 55.0642 9.64159 54.7768 10.1792C54.3817 10.5735 53.8428 11.0394 53.1603 11.362Z" fill="#303030"/>
<path d="M49.8197 14.4803L49.7838 14.5161H49.712C49.712 14.5161 49.5324 14.8745 49.7479 15.3046C49.9993 15.7347 50.179 16.2007 50.2867 16.4516C50.2867 16.4516 50.3945 16.4516 50.5382 15.7348C50.6459 15.2688 50.7537 15.1613 50.8615 14.9821C50.7178 15.0537 50.61 15.0537 50.61 15.0537L50.5382 15.0896L50.5022 15.0179C50.4304 14.8745 50.3945 14.6953 50.3945 14.5878C50.3945 14.552 50.3945 14.5161 50.3945 14.4803C50.0353 14.6236 49.8916 14.5161 49.8197 14.4803C49.8557 14.4803 49.8557 14.4803 49.8197 14.4803Z" fill="#303030"/>
<path d="M53.5558 15.6989L53.6636 15.8065L53.6995 15.8781L53.7714 15.9498L53.8073 16.0215L53.951 16.1649L54.0228 16.2007L54.4539 16.6308L54.4898 16.7025L54.5616 16.7742L54.7053 17.061L54.7412 17.1685L54.7772 17.2402L54.9568 17.7778V18.2079C54.9568 18.2079 54.0947 17.9212 53.7355 17.3118C53.3762 16.6667 53.1607 16.2724 53.017 16.129C53.1248 16.129 53.1966 16.129 53.3044 16.129H53.3762C53.5918 16.5233 54.0228 17.2043 54.418 17.4194C54.418 17.4194 54.5257 16.8817 53.3762 15.8065C53.3403 15.7706 53.3403 15.6989 53.3044 15.6631C53.3044 15.6989 53.4122 15.6989 53.5558 15.6989Z" fill="#303030"/>
<path d="M46.8027 7.06094L46.8386 7.0251H47.6288C48.024 7.0251 48.3113 7.09678 48.3113 7.16846C48.3113 7.24015 48.024 7.31184 47.6288 7.31184C47.09 7.20431 46.8027 7.13262 46.8027 7.06094Z" fill="#303030"/>
<path d="M44.4677 7.84947L44.5037 7.81362H45.0425C45.2939 7.81362 45.4735 7.84946 45.4735 7.8853C45.4735 7.92115 45.258 7.95699 45.0425 7.95699C44.6833 7.92115 44.4677 7.88531 44.4677 7.84947Z" fill="#303030"/>
<path d="M47.6286 7.38349V7.41932C47.5568 7.41932 47.4849 7.34763 47.4849 7.27595C47.4849 7.20426 47.5568 7.13259 47.6286 7.13259C47.5568 7.24012 47.6286 7.31181 47.6286 7.38349Z" fill="#303030"/>
<path d="M46.7667 6.9175L46.7308 6.84583L46.5152 6.63077V6.59493L46.4434 6.52325V6.48741L46.4075 6.45156V5.91392C46.4075 5.84224 46.5152 5.77055 46.5871 5.73471C46.6948 5.69887 46.7667 5.69887 46.8385 5.73471C46.9463 5.84224 47.054 6.5591 47.09 6.84583C46.9463 6.80999 46.8744 6.84582 46.7667 6.9175Z" fill="#303030"/>
<path d="M47.1617 6.81H47.3772C47.3413 6.52326 47.2335 6.02146 47.1617 5.84225C47.0899 5.66304 47.018 5.51967 46.9102 5.48383C46.9102 5.48383 47.018 5.73473 47.0539 6.02146C47.0899 6.27236 47.1258 6.52326 47.1617 6.81Z" fill="#303030"/>
<path d="M46.4432 7.77781H46.7665H47.0538C46.5509 7.49108 46.4432 7.77781 46.4432 7.77781Z" fill="#303030"/>
<path d="M46.8385 7.74195L46.7665 7.77781H46.4432L46.12 7.77778C46.1919 7.63441 46.2637 7.49104 46.4793 7.34767C46.6948 7.2043 47.054 7.16846 47.1977 7.16846C47.1258 7.41936 46.9822 7.63442 46.8385 7.74195Z" fill="#303030"/>
<path d="M46.7307 7.9211C46.4792 8.02863 45.653 8.06446 45.222 8.06446H44.3239C44.3599 9.0322 45.0064 9.06804 45.0064 9.06804C45.0064 8.99635 45.0064 8.85299 45.0064 8.85299C45.222 9.0322 45.6171 9.17558 45.6171 9.17558C45.6171 9.06805 45.5812 8.96051 45.5812 8.96051C45.7608 9.06804 45.8686 9.06804 45.8686 9.06804C45.8326 8.92467 45.7608 8.7813 45.7608 8.7813C45.8686 8.92467 46.0482 8.96051 46.0482 8.96051C46.0841 8.88883 46.0122 8.67378 46.0122 8.67378C46.0841 8.74546 46.1918 8.96052 46.5511 9.0322C46.9103 9.10389 47.0899 8.88883 47.0899 8.88883C46.7307 8.92467 46.4074 8.56626 46.4074 8.56626C46.587 8.49457 46.6588 8.35119 46.6588 8.35119C46.5511 8.24366 46.4433 8.24367 46.4433 8.24367C46.6947 8.1003 46.7307 7.9211 46.7307 7.9211ZM45.5093 8.27952C45.5093 8.31537 44.9346 8.31535 44.9346 8.60209C44.8628 8.53041 44.7909 8.42288 44.7909 8.31536C44.755 8.31536 45.1861 8.31537 45.5093 8.27952Z" fill="#303030"/>
<path d="M44.2878 7.99284V8.56633C44.2878 8.56633 44.0363 8.38712 43.9645 8.20791C44.0363 8.0287 44.0004 7.92116 44.2878 7.99284Z" fill="#303030"/>
<path d="M43.5337 8.20787C43.4259 8.20787 43.3182 8.27954 43.2463 8.35122C43.1027 8.53044 43.1745 8.9247 43.4259 9.06807C43.4259 9.06807 43.8211 8.70965 44.324 9.06807C44.324 9.06807 44.4317 8.99639 44.6832 8.96055V8.88886H44.5395C44.3958 8.81717 44.0725 8.70967 43.9648 8.45877C43.7492 8.20787 43.6415 8.17203 43.5337 8.20787ZM43.7492 8.56629C43.8211 8.56629 43.857 8.63797 43.857 8.67381C43.7852 8.67381 43.7492 8.60213 43.7492 8.56629C43.7133 8.56629 43.6415 8.63798 43.7492 8.56629Z" fill="#303030"/>
<path d="M44.755 8.99644L44.8987 9.1398C44.8987 9.1398 44.2162 9.13981 44.0725 9.71329C44.0725 9.71329 43.857 9.35485 44.0006 9.1398C44.3599 9.06812 44.5395 9.03229 44.755 8.99644Z" fill="#303030"/>
<path d="M45.5095 9.13979H45.6532C45.6532 9.13979 45.6532 9.03226 45.6532 8.96057C45.725 8.96057 45.7969 8.99643 45.8687 8.99643C45.8687 8.99643 46.0842 9.46237 46.2638 9.67742C46.2638 9.67742 46.2638 9.78494 46.192 9.96415C46.192 9.96415 46.0842 9.67743 45.8687 9.46237C45.8328 9.39069 45.7609 9.319 45.5095 9.13979Z" fill="#303030"/>
<path d="M44.9343 9.03231H45.6887C45.9042 9.17568 46.0479 9.3549 46.012 9.64164C46.012 9.64164 45.8324 9.39074 45.6527 9.28321C45.3295 9.46242 45.078 9.24737 44.9343 9.03231Z" fill="#303030"/>
<path d="M44.9348 6.84585H44.9707C44.9707 6.95337 44.827 7.20426 44.7552 7.31179C44.7192 7.20426 44.5396 6.95337 44.5396 6.84585C44.5396 6.73832 44.827 6.84585 44.9348 6.84585Z" fill="#303030"/>
<path d="M44.7907 7.67027V7.276C44.7189 7.20431 44.5752 7.20433 44.5034 7.20433C44.4315 7.20433 44.3597 7.276 44.3956 7.34768C44.4315 7.41937 44.683 7.84948 44.7189 7.88532C44.6471 7.67027 44.6471 7.67027 44.7907 7.67027Z" fill="#303030"/>
<path d="M45.0424 7.67027V7.276C45.1143 7.20431 45.2579 7.20433 45.3298 7.20433C45.4016 7.20433 45.4375 7.276 45.4375 7.34768C45.4016 7.41937 45.1502 7.84948 45.1143 7.88532C45.1861 7.67027 45.1861 7.67027 45.0424 7.67027Z" fill="#303030"/>
<path d="M45.2217 6.34415H45.0062V6.12911H44.8266V6.34415H44.611V6.52337H44.8266V6.77427H45.0062V6.52337H45.2217V6.34415Z" fill="#303030"/>
<path d="M42.5998 7.88534V7.84951C42.5998 7.74198 42.6357 7.63446 42.5998 7.56278C42.4561 7.63446 42.3483 7.67029 42.1328 7.99287C42.1328 7.88534 42.492 7.70613 42.5998 7.88534Z" fill="#303030"/>
<path d="M42.8871 8.45884V8.13625C42.959 7.88536 42.923 7.56277 42.8153 7.34772C42.7075 7.13267 42.6716 6.95345 42.6716 6.7384C42.6716 6.7384 42.4561 6.81009 42.3483 6.88177C42.3124 7.13267 42.4561 7.34773 42.5279 7.4911C42.5998 7.67031 42.5998 7.84951 42.5638 7.99288C42.7075 7.99288 42.7434 8.20795 42.8871 8.45884Z" fill="#303030"/>
<path d="M42.9232 6.59501V6.55916C42.9232 6.55916 43.2465 6.23657 43.4979 6.20073C43.6775 6.16489 43.7853 6.23658 43.8212 6.27242C43.8212 6.27242 43.7135 6.27242 43.5698 6.37994C43.4261 6.48747 43.2465 6.63086 43.1028 6.6667C43.031 6.63086 42.995 6.63085 42.9232 6.59501Z" fill="#303030"/>
<path d="M43.857 6.23659L44.0366 6.4158C44.0366 6.52333 43.8929 6.81006 43.8211 6.91758C43.7493 7.02511 43.6415 7.16848 43.6774 7.3477C43.6774 7.41938 43.7493 7.52691 43.8211 7.5986C43.8211 7.5986 43.426 7.49106 43.39 7.27601C43.3541 7.06095 43.426 6.9176 43.4978 6.77423C43.5696 6.6667 43.7493 6.41581 43.7852 6.30828C43.857 6.34413 43.8929 6.27244 43.857 6.23659Z" fill="#303030"/>
<path d="M46.1561 8.9247V8.96054L46.192 9.03223L46.6949 9.53403C46.8027 9.71324 46.8745 10.0358 46.8745 10.1433C46.8745 10.1433 47.0541 9.74907 46.9463 9.49817C46.6949 9.39065 46.4794 9.06807 46.1561 8.9247Z" fill="#303030"/>
<path d="M46.587 9.03231H46.8743C47.018 9.13984 47.1976 9.3549 47.2335 9.64164C47.2335 9.64164 46.9462 9.60579 46.8384 9.46242C46.8025 9.42658 46.6588 9.21152 46.587 9.03231Z" fill="#303030"/>
<path d="M45.1858 9.49825H44.9343C44.9343 9.49825 45.1499 9.56994 45.2576 9.64162C45.3654 9.71331 45.4372 9.85668 45.4731 10.0717C45.545 10.3585 45.6887 10.6811 45.7605 10.7886H45.7964C45.7605 10.5735 45.8683 10.1793 45.9042 10.1076C45.9042 10.1076 45.7246 10 45.6527 9.85667C45.6168 9.82083 45.5091 9.67746 45.1858 9.49825Z" fill="#303030"/>
<path d="M46.3715 10.1434L46.4074 10.1793V10.2509L46.4793 10.3226V10.9678C46.4074 11.2545 46.2278 11.3621 46.0841 11.6129C46.0841 11.6129 46.0123 11.1828 46.0123 10.8602C46.12 10.3585 46.2278 10.2509 46.3715 10.1434Z" fill="#303030"/>
<path d="M46.9101 10.1434L46.946 10.1793V10.5018L46.9819 10.5377L47.0538 10.681V11.0036C47.0897 11.2187 47.0538 11.3262 46.9819 11.4696C46.9101 11.5771 46.7305 11.7205 46.5868 11.9714C46.5868 11.9714 46.4431 11.7563 46.4072 11.6488C46.3713 11.5413 46.4072 11.2545 46.4431 11.147C46.479 11.0395 46.7664 10.5018 46.9101 10.1434Z" fill="#303030"/>
<path d="M47.054 11.7922L46.9821 11.8639H46.9462V11.8997H46.9103L46.8025 12.0072V12.0431L46.7666 12.0789V12.1147C46.7307 12.2223 46.6588 12.4373 46.7307 12.5807C46.8384 12.7241 47.054 12.9391 47.2336 13.0466C47.2336 13.0466 47.0181 12.7241 47.054 12.4373C47.054 12.2581 47.1977 12.1147 47.2336 12.0072C47.1258 12.1147 47.1258 11.9355 47.054 11.7922Z" fill="#303030"/>
<path d="M46.4432 11.5771L46.4791 11.6129V11.828C46.4791 11.9713 46.4791 12.1147 46.3713 12.3298C46.2636 12.6165 46.084 12.9391 46.0121 13.0824C46.0121 13.0824 45.8684 12.8674 45.7966 12.6882C45.7966 12.6882 46.0121 12.3656 46.1199 12.1506C46.3354 12.0072 46.3713 11.7921 46.4432 11.5771Z" fill="#303030"/>
<path d="M46.3356 11.4337V11.828L46.2997 11.8638V11.8997L46.2637 11.9713L46.2278 12.0072L45.9045 12.6523L45.8686 12.6882L45.7968 12.8316C45.5094 13.19 45.2579 13.3334 45.1143 13.3334C44.8628 13.3334 44.6473 13.1183 44.5395 12.9032C44.4677 12.6882 44.4677 12.3298 44.6473 12.1864C44.6473 12.1864 44.791 12.6165 45.0783 12.6523C45.4375 12.5807 45.8686 12.1864 46.3356 11.4337Z" fill="#303030"/>
<path d="M45.9761 11.147V11.6846C45.9402 11.828 45.8684 12.0072 45.6888 12.1147C45.5451 12.1864 45.1859 12.2223 45.0781 11.8997C45.0422 11.8997 45.6887 11.9355 45.9761 11.147Z" fill="#303030"/>
<path d="M46.9819 14.0861L47.0178 14.1219V14.2653L47.0537 14.3011V14.337L47.1256 14.4087H47.1974L47.2692 14.4804H47.3052V14.6596C47.3052 15.1255 47.0896 15.3764 47.0537 15.5556C47.0537 15.5556 46.6945 15.2689 46.6227 14.9463C46.6586 14.8746 46.6945 14.337 46.9819 14.0861Z" fill="#303030"/>
<path d="M46.5868 14.4087V14.337L46.7304 14.1936C46.7304 14.1936 46.946 13.6201 46.2994 13.2617C46.2994 13.2617 46.0479 13.6201 45.9761 13.9427C46.0839 13.9427 46.4431 14.1219 46.5868 14.4087Z" fill="#303030"/>
<path d="M45.7964 12.9391L45.4731 13.2617C45.4731 13.2617 45.4372 13.5126 45.4731 13.6918C45.509 13.9427 45.6887 14.2294 45.7605 14.4086C45.7605 14.4086 46.0479 14.0502 46.0838 13.8352C46.1197 13.6201 46.1197 13.4409 46.1197 13.3334C46.0119 13.3692 45.8683 13.1183 45.7964 12.9391Z" fill="#303030"/>
<path d="M45.0425 14.1936L45.0066 14.1578V13.8352L44.9707 13.7993V13.7635L44.8629 13.5484V13.3334V13.2976V13.2617V13.3334V13.2976C44.8629 13.2976 45.1862 13.4768 45.4377 13.3334C45.4377 13.3334 45.4736 13.7635 45.4017 13.9069C45.2221 14.0502 45.1862 14.0861 45.0425 14.1936Z" fill="#303030"/>
<path d="M45.1143 14.301L45.1502 14.2652H45.2939C45.2939 14.2652 45.5094 14.6595 45.5454 14.767C45.5454 14.767 45.4376 14.8028 45.3298 14.6953C45.258 14.4086 45.2221 14.4086 45.1143 14.301Z" fill="#303030"/>
<path d="M46.0841 14.0502L46.0482 14.086V14.1936L46.0123 14.2294V14.2653L45.9045 14.3728L45.8686 14.4445L45.7968 14.5162V14.552L45.7249 14.6237V14.6595H45.689C45.689 14.6595 45.7249 14.8387 45.8327 15.0896C45.9404 15.3405 46.12 15.5197 46.2278 15.5914C46.2278 15.5914 46.4433 15.233 46.5152 15.0538C46.587 14.8746 46.587 14.6954 46.5511 14.6237C46.4433 14.4803 46.1919 14.2653 46.0841 14.0502Z" fill="#303030"/>
<path d="M46.587 15.3047L46.6229 15.3405V15.3763L46.8384 15.5914V15.7348C46.8743 15.8781 46.8384 16.0215 46.8025 16.129C46.7666 16.2365 46.6229 16.4516 46.5151 16.595C46.5151 16.595 46.1918 16.3082 46.12 16.0932C46.0841 15.9498 46.0841 15.7348 46.1559 15.5556C46.3714 15.5914 46.5151 15.448 46.587 15.3047Z" fill="#303030"/>
<path d="M45.7249 15.233L46.0482 15.5556C46.0841 15.7348 46.1201 15.8424 46.0123 16.0574C45.9405 16.2366 45.8327 16.3442 45.7968 16.4517C45.7968 16.4517 45.5453 16.1291 45.5094 15.9857C45.4735 15.8424 45.4376 15.6273 45.5094 15.4839C45.5812 15.5556 45.6531 15.3764 45.7249 15.233Z" fill="#303030"/>
<path d="M46.9463 16.4875L46.9104 16.5233V16.5592L46.4075 17.061V17.3118C46.4075 17.6703 46.6589 17.8853 46.6948 18.1004C46.6948 18.1004 46.9104 17.8495 47.0181 17.6703C47.1259 17.4911 47.1977 17.3119 47.1618 17.0968C47.2337 16.8459 47.1977 16.7025 46.9463 16.4875Z" fill="#303030"/>
<path d="M46.156 16.4157L46.1919 16.4516V16.5591L46.2278 16.595V17.0968C46.156 17.3118 45.9404 17.5627 45.9045 17.7061C45.9045 17.7061 45.7249 17.3476 45.689 17.2043C45.7968 17.0251 45.8327 16.7383 46.156 16.4157Z" fill="#303030"/>
<path d="M50.5022 7.84947L50.4663 7.81362H50.0711H50.0352H49.9993H50.0711H50.0352C49.7838 7.81362 49.6042 7.84946 49.6042 7.8853C49.6042 7.92115 49.8197 7.95699 50.0352 7.95699C50.2867 7.92115 50.5022 7.88531 50.5022 7.84947Z" fill="#303030"/>
<path d="M47.4849 6.48746V6.16487L47.6645 5.80644V5.44802C47.6645 5.30465 47.5568 5.19712 47.4131 5.19712C47.2694 5.19712 47.1616 5.30465 47.1616 5.44802C47.2335 5.87813 47.449 6.30824 47.4849 6.48746Z" fill="#303030"/>
<path d="M48.2034 6.9175L48.2393 6.84583L48.5267 6.55908V6.52325L48.5626 6.48741V6.45156L48.5985 6.41572V5.91392C48.5985 5.84224 48.4908 5.77055 48.4189 5.73471C48.3112 5.69887 48.2393 5.69887 48.1675 5.73471C48.0597 5.84224 47.952 6.5591 47.8801 6.84583C48.0238 6.80999 48.0956 6.84582 48.2034 6.9175Z" fill="#303030"/>
<path d="M47.8083 6.81H47.5568C47.5927 6.52326 47.7005 6.02146 47.7364 5.84225C47.8083 5.66304 47.8801 5.51967 47.9879 5.48383C47.9879 5.48383 47.8801 5.73473 47.8442 6.02146C47.8801 6.27236 47.8442 6.52326 47.8083 6.81Z" fill="#303030"/>
<path d="M48.0239 7.4193L48.0598 7.45513H48.7423C48.5268 7.77771 48.419 7.49098 48.0239 7.4193Z" fill="#303030"/>
<path d="M47.8082 7.31181H48.8499C49.0655 7.45518 49.1373 7.59856 49.2091 7.74193C49.2091 7.74193 48.814 7.77777 48.4548 7.56271C47.9878 7.6344 47.8441 7.41934 47.8082 7.31181Z" fill="#303030"/>
<path d="M48.2395 7.92116C48.2395 7.92116 48.2755 8.10035 48.491 8.17204C48.491 8.17204 48.3832 8.17206 48.2755 8.27958C48.2755 8.27958 48.3473 8.42294 48.5269 8.49463C48.5269 8.49463 48.2036 8.81722 47.8444 8.81722C47.8444 8.81722 48.024 9.03226 48.3832 8.96057C48.7424 8.88889 48.8502 8.67383 48.922 8.60215C48.922 8.60215 48.8861 8.78136 48.8861 8.88888C48.8861 8.88888 49.0298 8.88888 49.1735 8.70967C49.1735 8.70967 49.0657 8.85306 49.0657 8.99643C49.0657 8.99643 49.1735 8.99641 49.3531 8.88888C49.3531 8.88888 49.3172 8.99642 49.3172 9.10395C49.3172 9.10395 49.7482 8.96057 49.9638 8.78136V8.81722C49.9638 8.81722 50.6103 8.74551 50.6463 7.81362C50.6463 7.81362 50.2152 7.95699 49.7842 7.95699C49.2813 8.06452 48.491 8.02869 48.2395 7.92116ZM49.4609 8.27958C49.7842 8.31542 50.2152 8.31542 50.2152 8.31542V8.45879C49.9997 8.31542 49.4609 8.31542 49.4609 8.27958Z" fill="#303030"/>
<path d="M50.6821 7.99284V8.56633C50.6821 8.56633 50.9336 8.38712 51.0054 8.20791C50.9336 8.0287 50.9336 7.92116 50.6821 7.99284Z" fill="#303030"/>
<path d="M51.2206 8.20793H51.1488C51.041 8.49467 50.7177 8.6022 50.574 8.63804C50.3944 8.70973 50.2507 8.92478 50.2507 8.92478C50.5022 8.99646 50.6459 9.0323 50.6459 9.0323C51.1488 8.67388 51.5439 9.0323 51.5439 9.0323C51.8313 8.88893 51.8672 8.49467 51.7235 8.31545L51.6876 8.27962V8.24377H51.2206V8.20793ZM51.1847 8.56635H51.2206C51.2206 8.63804 51.1488 8.67388 51.1128 8.67388C51.041 8.67388 51.0051 8.6022 51.0051 8.56635C51.1128 8.63804 51.1488 8.56635 51.1847 8.56635Z" fill="#303030"/>
<path d="M50.2149 8.99644L50.0712 9.1398C50.0712 9.1398 50.7537 9.13981 50.8974 9.71329C50.8974 9.71329 51.113 9.35485 50.9693 9.1398C50.6101 9.06812 50.4305 9.03229 50.2149 8.99644Z" fill="#303030"/>
<path d="M49.4605 9.13979H49.3169C49.3169 9.13979 49.3169 9.03226 49.3169 8.96057C49.245 8.96057 49.1732 8.99643 49.1013 8.99643C49.1013 8.99643 48.8858 9.46237 48.7062 9.67742C48.7062 9.67742 48.7062 9.78494 48.778 9.96415C48.778 9.96415 48.8858 9.67743 49.1013 9.46237C49.1372 9.39069 49.2091 9.319 49.4605 9.13979Z" fill="#303030"/>
<path d="M50.0353 9.03231H49.281C49.0655 9.17568 48.9218 9.3549 48.9577 9.64164C48.9577 9.64164 49.1373 9.39074 49.3169 9.28321C49.6402 9.46242 49.8917 9.24737 50.0353 9.03231Z" fill="#303030"/>
<path d="M50.0353 6.84585H49.9993C49.9993 6.95337 50.143 7.20426 50.2149 7.31179C50.2508 7.20426 50.4304 6.95337 50.4304 6.84585C50.4304 6.73832 50.143 6.84585 50.0353 6.84585Z" fill="#303030"/>
<path d="M50.1788 7.67027V7.276C50.2507 7.20431 50.3944 7.20433 50.4662 7.20433C50.538 7.20433 50.574 7.276 50.574 7.34768C50.538 7.41937 50.2866 7.84948 50.2507 7.88532C50.3225 7.67027 50.3225 7.67027 50.1788 7.67027Z" fill="#303030"/>
<path d="M49.9274 7.67027V7.276C49.8555 7.20431 49.7119 7.20433 49.64 7.20433C49.5682 7.20433 49.5323 7.276 49.5323 7.34768C49.5682 7.41937 49.8196 7.84948 49.8556 7.88532C49.7837 7.67027 49.7478 7.67027 49.9274 7.67027Z" fill="#303030"/>
<path d="M49.748 6.34415H49.9635V6.12911H50.1431V6.34415H50.3586V6.52337H50.1431V6.77427H49.9635V6.52337H49.748V6.34415Z" fill="#303030"/>
<path d="M47.1616 4.9462H47.3772V4.69532H47.5209V4.9462H47.7723V5.08958H47.5209V5.37631H47.3772V5.08958H47.1616V4.9462Z" fill="#303030"/>
<path d="M52.37 7.88534V7.84951C52.3341 7.74198 52.3341 7.63446 52.37 7.56278C52.5137 7.63446 52.6215 7.67029 52.837 7.99287C52.837 7.88534 52.4778 7.70613 52.37 7.88534Z" fill="#303030"/>
<path d="M52.0831 8.45884V8.13625C52.0112 7.88536 52.0471 7.56277 52.1549 7.34772C52.2627 7.13267 52.2986 6.95345 52.2986 6.7384C52.2986 6.7384 52.5141 6.81009 52.6219 6.88177C52.6578 7.13267 52.5141 7.34773 52.4423 7.4911C52.3704 7.67031 52.3704 7.84951 52.4064 7.99288C52.2627 7.99288 52.2268 8.20795 52.0831 8.45884Z" fill="#303030"/>
<path d="M52.0467 6.59501V6.55916C52.0467 6.55916 51.7234 6.23657 51.472 6.20073C51.2924 6.16489 51.1846 6.23658 51.1487 6.27242C51.1487 6.27242 51.2205 6.27242 51.4002 6.37994C51.5438 6.48747 51.7234 6.63086 51.8671 6.6667C51.939 6.63086 51.9749 6.63085 52.0467 6.59501Z" fill="#303030"/>
<path d="M51.1131 6.23659L50.9335 6.4158C50.9335 6.52333 51.0772 6.81006 51.149 6.91758C51.2209 7.02511 51.3286 7.16848 51.2927 7.3477C51.2927 7.41938 51.2209 7.52691 51.149 7.5986C51.149 7.5986 51.5442 7.49106 51.5801 7.27601C51.616 7.06095 51.5442 6.9176 51.4723 6.77423C51.4005 6.6667 51.2209 6.41581 51.185 6.30828C51.1131 6.34413 51.0772 6.27244 51.1131 6.23659Z" fill="#303030"/>
<path d="M48.8139 8.9247L48.778 8.96054L48.742 9.03223V9.06806L48.2751 9.53403C48.1673 9.71324 48.0595 10.0358 48.0955 10.1433C48.0955 10.1433 47.9159 9.74907 48.0236 9.49817C48.2751 9.39065 48.4547 9.06807 48.8139 8.9247Z" fill="#303030"/>
<path d="M48.3831 9.03231H48.0598C47.9161 9.13984 47.7365 9.3549 47.7006 9.64164C47.7006 9.64164 47.988 9.60579 48.0957 9.46242C48.1676 9.42658 48.3113 9.21152 48.3831 9.03231Z" fill="#303030"/>
<path d="M49.784 9.49825H49.9996C49.9996 9.49825 49.784 9.56994 49.6404 9.64162C49.5326 9.71331 49.4607 9.85668 49.4248 10.0717C49.353 10.3585 49.2093 10.6811 49.1375 10.7886H49.1015C49.1375 10.5735 48.9938 10.1793 48.9938 10.1076C48.9938 10.1076 49.1734 10 49.2452 9.85667C49.353 9.82083 49.4607 9.67746 49.784 9.49825Z" fill="#303030"/>
<path d="M48.5988 10.1434L48.5628 10.1793V10.2509L48.491 10.3226V10.9678C48.5628 11.2545 48.7784 11.3621 48.8861 11.6129C48.8861 11.6129 48.958 11.1828 48.958 10.8602C48.8502 10.3585 48.7424 10.2509 48.5988 10.1434Z" fill="#303030"/>
<path d="M47.4848 10.8961V10.6452L47.5926 10.5377V10.5018L47.6644 10.3585L47.7363 10.2868V10.2509L47.7722 10.2151V9.89252C47.7363 9.67747 47.4848 9.53409 47.377 9.49825C47.3052 9.53409 47.0178 9.67747 46.9819 9.89252C46.946 10.1076 47.4848 10.7527 47.4848 10.8961Z" fill="#303030"/>
<path d="M48.0597 10.1434L48.0238 10.1793V10.5377L47.9519 10.681V11.0036C47.916 11.2187 47.9519 11.3262 48.0238 11.4696C48.1315 11.5771 48.2752 11.7205 48.4189 11.9714C48.4189 11.9714 48.5985 11.7563 48.5985 11.6488C48.6344 11.5413 48.5985 11.2545 48.5626 11.147C48.3111 10.8603 48.2034 10.5018 48.0597 10.1434Z" fill="#303030"/>
<path d="M47.4849 12.1147L47.7363 11.8638V11.828L47.7723 11.7921C47.8082 11.6846 47.8082 11.5771 47.7363 11.4696C47.6286 11.362 47.5208 11.2187 47.5208 11.1111C47.5208 11.2187 47.413 11.362 47.3053 11.4696C47.2334 11.5771 47.2334 11.7205 47.2694 11.7921C47.2694 11.8638 47.3771 12.0072 47.4849 12.1147Z" fill="#303030"/>
<path d="M47.9162 11.7922L47.9521 11.828H47.988V11.8639H48.024L48.2036 12.0431V12.0789L48.2395 12.1147C48.2754 12.2223 48.3473 12.4373 48.2754 12.5807C48.1677 12.7241 47.9521 12.9391 47.7725 13.0466C47.7725 13.0466 47.988 12.7241 47.9521 12.4373C47.9521 12.2581 47.8084 12.1147 47.7725 12.0072C47.8444 12.1147 47.8444 11.9355 47.9162 11.7922Z" fill="#303030"/>
<path d="M48.5269 11.5771L48.491 11.6129V11.828C48.491 11.9713 48.5269 12.1147 48.5988 12.3298C48.7065 12.6165 48.8502 12.9391 48.958 13.0824C48.958 13.0824 49.1016 12.8674 49.1735 12.6882C49.1735 12.6882 48.958 12.3656 48.8502 12.1506C48.6347 12.0072 48.5988 11.7921 48.5269 11.5771Z" fill="#303030"/>
<path d="M48.6343 11.4337V11.8638L48.6702 11.8997L48.7061 11.9713L48.7421 12.0072L49.0653 12.6523L49.1013 12.6882L49.1731 12.8316C49.4605 13.19 49.7119 13.3334 49.8556 13.3334C50.1071 13.3334 50.3226 13.1183 50.4304 12.9032C50.5022 12.6882 50.5022 12.3298 50.3226 12.1864C50.3226 12.1864 50.1789 12.6165 49.8915 12.6523C49.5323 12.5807 49.1013 12.1864 48.6343 11.4337Z" fill="#303030"/>
<path d="M48.9938 11.147V11.6488C49.0297 11.7922 49.1015 11.9714 49.2811 12.0789C49.4248 12.1506 49.784 12.1864 49.8918 11.8639C49.9277 11.8997 49.2811 11.9355 48.9938 11.147Z" fill="#303030"/>
<path d="M47.485 13.3333L47.521 13.2975H47.5569C47.6287 13.19 47.7006 12.9391 47.6646 12.7957C47.5928 12.6165 47.485 12.509 47.4491 12.4014C47.4132 12.4373 47.3773 12.4731 47.3054 12.509C47.2336 12.4731 47.1977 12.4373 47.1617 12.4014C47.0899 12.509 46.9821 12.6165 46.9462 12.7957C46.9103 12.9749 46.9821 13.19 47.054 13.2975C47.3054 13.2617 47.3773 13.2617 47.485 13.3333Z" fill="#303030"/>
<path d="M47.4848 14.5519L47.5207 14.4803V14.3369L47.7003 14.1577L47.8081 13.9426L47.9158 13.8351V13.5125C47.844 13.1899 47.6644 13.2616 47.5207 13.1541C47.377 13.2616 47.1615 13.2258 47.1256 13.5125C47.0178 13.9785 47.4489 14.3727 47.4848 14.5519Z" fill="#303030"/>
<path d="M47.9519 14.0861V14.337L47.7363 14.552V14.6954C47.7363 15.1614 47.9518 15.4122 47.9878 15.5915C47.9878 15.5915 48.347 15.3047 48.4188 14.9821C48.3111 14.8746 48.2392 14.337 47.9519 14.0861Z" fill="#303030"/>
<path d="M48.3828 14.4087V14.337L48.2391 14.1936H48.2032C48.2032 14.1936 47.9876 13.6201 48.6342 13.2617C48.6342 13.2617 48.8857 13.6201 48.9575 13.9427C48.8857 13.9427 48.5265 14.1219 48.3828 14.4087Z" fill="#303030"/>
<path d="M49.1731 12.9391L49.4963 13.2617C49.4963 13.2617 49.5323 13.5126 49.5323 13.6918C49.4963 13.9427 49.3167 14.2294 49.2449 14.4086C49.2449 14.4086 48.9575 14.0502 48.9216 13.8352C48.8857 13.6201 48.8857 13.4409 48.8857 13.3334C48.9216 13.3692 49.1012 13.1183 49.1731 12.9391Z" fill="#303030"/>
<path d="M49.9277 14.1936L49.9636 14.1578V13.9427L49.9996 13.9069V13.7635L50.1073 13.5484V13.3334V13.2976V13.2617V13.3334V13.2976C50.1073 13.2976 49.784 13.4768 49.5326 13.3334C49.5326 13.3334 49.4967 13.7635 49.5326 13.9069C49.7481 14.0502 49.784 14.0861 49.9277 14.1936Z" fill="#303030"/>
<path d="M49.856 14.301L49.8201 14.2652H49.7123C49.7123 14.2652 49.4968 14.6595 49.4609 14.767C49.4609 14.767 49.5686 14.8028 49.6764 14.6953C49.7123 14.4086 49.7482 14.4086 49.856 14.301Z" fill="#303030"/>
<path d="M48.8857 14.0502L48.9216 14.086V14.1577L48.9575 14.1936V14.2294L49.0294 14.3011V14.3369L49.0653 14.3728L49.1012 14.4445L49.209 14.552V14.5878L49.2449 14.6237V14.6595H49.2808C49.2808 14.6595 49.2449 14.8387 49.1371 15.0896C48.9935 15.3405 48.8498 15.5197 48.742 15.5914C48.742 15.5914 48.5265 15.233 48.4546 15.0538C48.3828 14.8746 48.3828 14.6954 48.4187 14.6237C48.5265 14.4803 48.7779 14.2653 48.8857 14.0502Z" fill="#303030"/>
<path d="M47.4847 16.8459V16.81L47.7003 16.595V16.5233C47.7362 16.3799 47.7362 16.2365 47.7003 16.129C47.6284 16.0215 47.4129 15.6989 47.4129 15.6272C47.377 15.6989 47.1614 16.0215 47.1255 16.129C47.0537 16.2365 47.0537 16.3799 47.1255 16.5233C47.2692 16.5591 47.4488 16.7025 47.4847 16.8459Z" fill="#303030"/>
<path d="M48.347 15.3047L48.3111 15.3405V15.3763L48.0955 15.5914V15.7348C48.0596 15.8781 48.0955 16.0215 48.1314 16.129C48.1674 16.2365 48.3111 16.4516 48.4188 16.595C48.4188 16.595 48.7421 16.3082 48.8139 16.0932C48.8499 15.9498 48.8499 15.7348 48.778 15.5556C48.5984 15.5914 48.4188 15.448 48.347 15.3047Z" fill="#303030"/>
<path d="M49.2449 15.233L48.9216 15.5556C48.8857 15.7348 48.8498 15.8424 48.9575 16.0574C49.0294 16.2366 49.1371 16.3442 49.173 16.4517C49.173 16.4517 49.4245 16.1291 49.4604 15.9857C49.4963 15.8424 49.5323 15.6273 49.4604 15.4839C49.3886 15.5556 49.3167 15.3764 49.2449 15.233Z" fill="#303030"/>
<path d="M47.4848 19.319V18.9606L47.5207 18.9247V18.8889L47.5566 18.853V18.8172L47.6285 18.7455V18.6738L47.6644 18.638V18.2437C47.6644 17.9928 47.4489 17.5627 47.3052 17.4193C47.1615 17.5627 46.946 17.9928 46.946 18.2437C47.1256 18.6738 47.4848 19.1756 47.4848 19.319Z" fill="#303030"/>
<path d="M48.0236 16.4875L48.0595 16.5233H48.0954V16.5592L48.5624 17.0251V17.061L48.5983 17.0968V17.3118C48.5983 17.6703 48.3469 17.8853 48.311 18.1004C48.311 18.1004 48.0954 17.8495 47.9877 17.6703C47.8799 17.4911 47.8081 17.3119 47.844 17.0968C47.7362 16.8459 47.7721 16.7025 48.0236 16.4875Z" fill="#303030"/>
<path d="M48.8142 16.4157L48.7783 16.4516V16.5591L48.7424 16.595V17.0968C48.7783 17.3118 48.9938 17.5627 49.0657 17.7061C49.0657 17.7061 49.2453 17.3476 49.2812 17.2043C49.1734 17.0251 49.1375 16.7383 48.8142 16.4157Z" fill="#303030"/>
<path d="M47.7724 20.1792V19.6774L47.8083 19.6057L47.952 19.4624V19.2831C47.9879 19.0323 47.9879 18.8172 47.8083 18.5663C47.6646 19.0681 47.521 19.4265 47.3773 19.6774C47.3773 19.6774 47.3773 19.6774 47.3773 19.7133C47.3773 19.7133 47.3773 19.7133 47.3773 19.6774C47.2695 19.4265 47.0899 19.0681 46.9462 18.5663C46.7666 18.853 46.7307 19.0681 46.8025 19.2831C46.8385 19.4982 47.0899 19.7491 47.0899 20.1434C47.1258 20.5376 46.6589 20.7168 46.6589 20.7168C46.8025 20.7885 46.9821 20.7885 47.2695 20.5376C47.3054 20.5018 47.3414 20.4301 47.3773 20.3943C47.4132 20.466 47.4491 20.5018 47.485 20.5376C47.7724 20.7885 47.952 20.7885 48.0957 20.7168C48.2035 20.7168 47.7724 20.5735 47.7724 20.1792Z" fill="#303030"/>
<path d="M46.3355 17.4552L46.3715 17.491V17.5269L46.4433 17.5986V17.6344L46.4792 17.6703C46.5152 17.8495 46.4792 18.0287 46.1919 18.2437C46.1919 18.2437 46.0123 18.1004 45.9404 17.9212C45.8686 17.742 45.9045 17.6344 45.9763 17.5627C46.0841 17.7778 46.2637 17.5986 46.3355 17.4552Z" fill="#303030"/>
<path d="M46.9461 18.0645V18.2079L46.946 18.2437L46.9461 18.2795V18.4946L46.9462 18.5663L46.9102 18.638V18.9964C46.7306 19.319 46.4432 19.5699 46.2277 19.5699C46.0122 19.5699 45.9762 19.4265 45.8685 19.3907C45.8685 19.3907 45.9403 19.1039 46.1559 19.0322C46.2995 18.7814 46.7665 18.4229 46.9461 18.0645Z" fill="#303030"/>
<path d="M46.1559 18.638L46.1199 18.6022C46.1199 18.6022 45.9044 18.6738 45.6889 18.8172C45.5093 18.9606 45.2938 19.1756 45.2219 19.2832C45.2219 19.2832 45.5093 19.3548 45.6889 19.2832C45.6889 19.2832 45.7607 18.9964 45.9763 18.8889C45.9044 18.7814 46.0481 18.7097 46.1559 18.638Z" fill="#303030"/>
<path d="M45.9401 18.4229L45.9042 18.3871C45.9042 18.3871 45.5091 18.638 45.3654 18.7455C45.2576 18.853 45.0062 19.1039 44.9343 19.1756C44.9343 19.1756 45.2217 19.1039 45.4731 19.0323C45.6527 18.6022 45.8324 18.4588 45.9401 18.4229Z" fill="#303030"/>
<path d="M45.2578 18.853H44.1443C43.9288 18.9247 43.7851 19.0322 43.6055 19.2114C43.6055 19.2114 43.8928 19.2831 44.0724 19.3548C44.0724 19.3548 44.3239 19.1756 44.6113 19.0681C44.9705 19.2473 45.0423 19.0322 45.2578 18.853Z" fill="#303030"/>
<path d="M44.791 20.2868L44.8269 20.2509C44.791 20.1792 44.6114 20.0717 44.5036 20C44.324 19.9283 43.857 19.785 43.6774 19.7491C43.6774 19.7491 43.6056 19.8567 43.5697 19.9283C43.5338 19.9642 43.5697 20 43.6415 20C43.7852 20.0359 44.1085 19.9642 44.1803 20C44.2522 20.0717 44.2522 20.1434 44.2522 20.2151C44.2522 20.2151 44.3959 20.1434 44.5036 20.1434C44.6473 20.0359 44.7192 20.0717 44.791 20.2868Z" fill="#303030"/>
<path d="M44.3596 19.6058H44.7548C44.7548 19.6058 44.8266 19.5699 44.8625 19.4983C44.8985 19.4266 45.0781 19.1757 45.2218 19.1398C45.2218 19.1398 45.0781 19.1398 45.0062 19.104C45.0062 19.104 44.8625 19.1398 44.7189 19.1757C44.647 19.4266 44.5392 19.4982 44.3596 19.6058Z" fill="#303030"/>
<path d="M45.617 19.3189H45.5811C45.5811 19.3189 45.15 19.6057 45.1141 19.8924C45.0782 20.1433 45.186 20.2509 45.2578 20.2867C45.3296 20.3225 45.617 20.4301 45.8325 20.0358C45.8325 20.0358 45.5092 20.1433 45.4015 19.9999C45.3296 19.8207 45.4733 19.6057 45.5452 19.534C45.6529 19.4623 45.8685 19.3906 46.0121 19.4265C45.8325 19.4623 45.7248 19.3906 45.617 19.3189Z" fill="#303030"/>
<path d="M42.8151 22.6881L42.9228 22.4731V22.2581L42.9587 22.2222V22.1864L43.0306 22.1147C43.2102 21.7204 43.7131 20.6093 44.683 20.4301C44.7548 20.3942 44.5752 20.1792 44.4674 20.1792C44.3956 20.1792 44.216 20.2867 44.1441 20.3584C44.1441 20.3584 44.1441 20.1075 44.1441 20.0717C44.1441 20.0358 44.1082 20 44.0723 20C44.0364 20 43.7849 20 43.7131 20.0717C43.4976 20.3226 43.1024 21.0394 42.8869 21.5412C42.6714 22.043 42.5277 22.2222 42.2762 22.1505C42.0607 22.0788 41.917 21.7921 41.5219 21.8996C41.3782 21.9355 41.2345 22.0071 41.1268 22.1505C41.1627 22.2222 41.1986 22.2939 41.3782 22.2939C41.5578 22.2939 41.917 22.3656 42.0966 22.5089C42.3122 22.6165 42.5277 22.6523 42.8151 22.6881Z" fill="#303030"/>
<path d="M46.7664 19.3189V19.7132L46.8023 19.7491V19.7849L46.8382 19.8207V19.8566L46.8741 19.8924C46.8741 19.8924 46.5868 21.2903 45.4732 21.3978C45.4732 21.3978 45.5091 21.111 45.7965 20.896C46.1198 20.6809 46.5868 20.3225 46.5868 19.8207C46.5868 19.8207 46.5149 19.8207 46.3353 20.0358C46.1557 20.2508 45.8324 20.7885 45.3295 20.7885C45.3295 20.7885 45.4013 20.5376 45.6528 20.3584C45.8683 20.215 46.1916 19.9999 46.2994 19.7849C46.5149 19.4623 46.6586 19.3548 46.7664 19.3189Z" fill="#303030"/>
<path d="M46.2275 24.3727L46.8741 25.3047L47.377 24.4086L47.1974 24.086C47.0537 24.3369 46.91 24.5878 46.8381 24.7312C46.7663 24.6595 46.6226 24.4086 46.4071 24.086L46.2275 24.3727Z" fill="#303030"/>
<path d="M46.0841 23.5842L45.9404 23.405L45.8326 23.2258L45.6889 23.0824L45.5812 22.9032L45.4375 22.724L45.3297 22.5448L45.2579 22.4731L45.222 22.4014L45.1501 22.2939L45.1142 22.2222L45.0424 22.1505L45.0064 22.0788L44.9346 22.0071L44.8628 21.8638L44.7191 21.7204L44.6832 21.6487V21.6129L44.6113 21.5412V21.5053H44.5754V21.4695H44.5395L44.7909 21.2903L44.0007 20.9677L44.0366 21.8279L44.288 21.6487L45.9045 23.8709L46.0841 23.5842Z" fill="#303030"/>
<path d="M40.624 18.5305L40.6599 18.4947H41.3424L41.3783 18.5305H41.4142L41.7016 18.8173C42.0249 19.104 42.2404 19.4266 42.0608 19.6416C41.8812 19.8208 41.522 19.6775 41.1987 19.3549C40.6599 19.0682 40.4444 18.7456 40.624 18.5305Z" fill="#303030"/>
<path d="M41.1629 22.2939C40.9473 22.1147 40.8396 21.8638 40.8396 21.6129C40.8396 21.1111 41.2347 20.7169 41.7376 20.7169C42.2405 20.7169 42.6356 21.1111 42.6356 21.6129C42.6356 21.6846 42.6356 21.7921 42.6356 21.7921C42.6715 21.7204 42.8152 21.362 42.8512 21.3262C42.7075 20.8244 42.2764 20.466 41.7376 20.466C41.2706 20.466 40.8755 20.7169 40.6959 21.1111C40.7677 20.6452 40.9832 20.2509 41.1629 20.1076C41.3425 19.9283 41.7017 19.8567 41.7017 19.8567C41.4861 19.8925 41.1988 19.7491 40.8755 19.4624C40.5881 19.1756 40.4085 18.9247 40.4085 18.7455C40.4085 19.0323 40.4085 19.1756 40.3367 19.4265C40.2289 19.7491 39.9056 20.3226 40.0493 20.9678C40.1211 21.3262 40.3726 21.8638 40.8036 22.2939C40.8755 22.4014 40.9114 22.5448 40.9473 22.6165C40.9473 22.6165 41.5939 22.6165 41.7376 22.6165C41.7376 22.6165 41.8813 22.6165 41.8813 22.509C41.8813 22.4014 41.8094 22.4014 41.7376 22.4014C41.6657 22.4014 41.3425 22.4014 41.1629 22.2939Z" fill="#303030"/>
<path d="M44.7548 22.509L44.3238 22.724H43.8927L43.6054 22.7957C43.3539 22.8316 43.1025 22.8674 42.851 22.8316C42.851 22.8674 42.851 22.9033 42.8151 22.9749C42.8151 22.9749 42.851 23.0466 42.851 23.0825C43.1025 23.0825 43.3539 23.0825 43.6054 23.0466C44.0364 22.9749 44.5034 22.9033 44.9344 22.724L44.7548 22.509Z" fill="#303030"/>
<path d="M45.4372 22.4731L45.6527 22.3297L45.7605 22.2939L46.2993 21.9354L46.8381 21.3978V21.2186L47.0537 20.7885C46.91 20.8602 46.7663 20.7885 46.7663 20.7885C46.7663 20.7885 46.7304 20.8243 46.7304 20.8602C46.2993 21.5412 45.7605 21.9354 45.2576 22.2222L45.4372 22.4731Z" fill="#303030"/>
<path d="M41.8092 22.7241H41.4141C41.2345 22.7599 41.0549 22.7957 41.0549 22.8674C41.0549 22.9391 41.0908 23.0467 41.1626 23.1542C41.2345 23.2259 41.3422 23.19 41.4141 23.1542C41.4859 23.1183 41.8451 22.9391 41.917 22.8674C41.8811 22.8316 41.917 22.7241 41.8092 22.7241Z" fill="#303030"/>
<path d="M42.1684 22.9749L42.1325 22.939C42.0247 22.9749 41.6655 23.1899 41.6296 23.2975C41.5936 23.405 41.6655 23.4408 41.7014 23.4767C41.7373 23.5125 41.8092 23.5125 41.881 23.5125C41.9528 23.5125 42.0606 23.4767 42.0965 23.405C42.1325 23.3333 42.3121 23.1541 42.348 23.0824C42.2043 23.0466 42.2043 22.9749 42.1684 22.9749Z" fill="#303030"/>
<path d="M42.2044 23.19L42.1685 23.2259V23.2975C42.1685 23.3334 42.1685 23.3692 42.2404 23.3692C42.2763 23.3692 42.5277 23.3334 42.6714 23.2259C42.8151 23.1183 42.9229 22.9391 42.8151 22.8674C42.5277 22.975 42.384 23.0108 42.2044 23.19Z" fill="#303030"/>
<path d="M42.3123 22.6523H42.2764C42.2046 22.724 42.2764 22.8316 42.4201 22.9032C42.5638 22.9749 42.8512 23.0466 42.8871 22.9749C42.7075 22.8674 42.6356 22.724 42.3123 22.6523Z" fill="#303030"/>
<path d="M48.6344 17.4552L48.5985 17.491V17.5269L48.5626 17.5627V17.5986L48.4907 17.6703C48.4548 17.8495 48.4907 18.0287 48.7781 18.2437C48.7781 18.2437 48.9577 18.1004 49.0296 17.9212C49.1014 17.742 49.0655 17.6344 48.9936 17.5627C48.8859 17.7778 48.7063 17.5986 48.6344 17.4552Z" fill="#303030"/>
<path d="M48.0239 18.0645V18.9964C48.2035 19.319 48.455 19.5699 48.7064 19.5699C48.9219 19.5699 48.9579 19.4265 49.0656 19.3907C49.0656 19.3907 48.9938 19.1039 48.7783 19.0322C48.6705 18.7814 48.2035 18.4229 48.0239 18.0645Z" fill="#303030"/>
<path d="M48.7781 18.638L48.814 18.6022C48.814 18.6022 49.0655 18.6738 49.2451 18.8172C49.4247 18.9606 49.6402 19.1756 49.712 19.2832C49.712 19.2832 49.4247 19.3548 49.2451 19.2832C49.2451 19.2832 49.1732 18.9964 48.9577 18.8889C49.0655 18.7814 48.9218 18.7097 48.7781 18.638Z" fill="#303030"/>
<path d="M49.0295 18.4229L49.0654 18.3871C49.0654 18.3871 49.4605 18.638 49.6042 18.7455C49.712 18.853 49.9634 19.1039 50.0353 19.1756C50.0353 19.1756 49.7479 19.1039 49.4965 19.0323C49.3168 18.6022 49.1372 18.4588 49.0295 18.4229Z" fill="#303030"/>
<path d="M49.7122 18.853H50.8258C51.0413 18.9247 51.185 19.0322 51.3646 19.2114C51.3646 19.2114 51.0773 19.2831 50.8976 19.3548C50.8976 19.3548 50.6462 19.1756 50.3588 19.0681C49.9996 19.2473 49.9278 19.0322 49.7122 18.853Z" fill="#303030"/>
<path d="M50.1791 20.2868L50.1431 20.2509C50.1791 20.1792 50.3587 20.0717 50.4664 20C50.646 19.9283 51.113 19.785 51.2926 19.7491C51.2926 19.7491 51.3645 19.8567 51.4004 19.9283C51.4004 19.9642 51.4004 20 51.3285 20C51.1849 20.0359 50.8616 19.9642 50.7897 20C50.7179 20.0717 50.7179 20.1434 50.7179 20.2151C50.7179 20.2151 50.5742 20.1434 50.4664 20.1434C50.3227 20.0359 50.2509 20.0717 50.1791 20.2868Z" fill="#303030"/>
<path d="M50.6103 19.6058H50.1792C50.1792 19.6058 50.1074 19.5699 50.0715 19.4983C50.0355 19.4266 49.8559 19.1757 49.7122 19.1398C49.7122 19.1398 49.82 19.1398 49.9278 19.104C49.9278 19.104 50.0715 19.1398 50.2151 19.1757C50.287 19.4266 50.4307 19.4982 50.6103 19.6058Z" fill="#303030"/>
<path d="M49.3527 19.3189H49.3886C49.3886 19.3189 49.8197 19.6057 49.8556 19.8924C49.8915 20.1433 49.7838 20.2509 49.7119 20.2867C49.6401 20.3225 49.3527 20.4301 49.1372 20.0358C49.1372 20.0358 49.4605 20.1433 49.5682 19.9999C49.6401 19.8207 49.4964 19.6057 49.4246 19.534C49.3168 19.4623 49.1013 19.3906 48.9576 19.4265C49.1372 19.4623 49.2449 19.3906 49.3527 19.3189Z" fill="#303030"/>
<path d="M52.1548 22.6881L52.0471 22.4731V22.2939L52.0112 22.2581V22.2222L51.9034 22.1147C51.7238 21.7204 51.2568 20.6093 50.251 20.4301C50.1432 20.3942 50.3588 20.1792 50.4306 20.1792C50.5025 20.1792 50.6821 20.2867 50.7898 20.3584V20.0717C50.7898 20.0358 50.8258 20 50.8617 20C50.8976 20 51.149 20 51.2209 20.0717C51.4364 20.3226 51.8315 21.0394 52.0471 21.5412C52.2626 22.0788 52.4063 22.2222 52.6577 22.1505C52.8733 22.0788 53.0169 21.7921 53.4121 21.8996C53.5558 21.9355 53.6995 22.0071 53.8072 22.1505C53.7713 22.2222 53.7354 22.2939 53.5558 22.2939C53.3762 22.2939 53.0169 22.3656 52.8014 22.5089C52.6577 22.6165 52.4422 22.6523 52.1548 22.6881Z" fill="#303030"/>
<path d="M48.2036 19.3189V19.6415L48.1676 19.6774V19.7491L48.1317 19.7849V19.8207L48.0958 19.8924C48.0958 19.8924 48.3832 21.2903 49.4967 21.3978C49.4967 21.3978 49.4608 21.111 49.1375 20.896C48.8142 20.6809 48.3473 20.3225 48.3832 19.8207C48.3832 19.8207 48.455 19.8207 48.6346 20.0358C48.7783 20.215 49.1375 20.7885 49.6404 20.7885C49.6404 20.7885 49.5686 20.5376 49.3171 20.3584C49.0657 20.215 48.7783 19.9999 48.6705 19.7849C48.455 19.4623 48.3113 19.3548 48.2036 19.3189Z" fill="#303030"/>
<path d="M47.4852 20.681V20.8244L47.5211 20.8602V20.896L47.7725 21.1469L47.8803 21.362L48.2036 21.6846H48.2395L48.2754 21.7204H48.3113C48.491 21.8996 48.922 22.3297 49.1735 22.5448C49.1735 22.5448 48.491 22.3656 48.1317 22.043C48.1317 22.043 47.8803 22.1864 47.6648 22.1864C47.4852 22.1864 47.1978 22.043 47.1978 22.043C46.8386 22.4014 46.1561 22.5448 46.1561 22.5448C46.4075 22.3297 46.8386 21.8996 47.0182 21.7204C47.0182 21.4337 47.4133 20.8602 47.4852 20.681Z" fill="#303030"/>
<path d="M47.4852 22.2223H47.8444C47.7725 22.4015 47.6288 22.6524 47.4852 22.7599C47.3415 22.6524 47.1978 22.4015 47.1259 22.2223C47.1978 22.1506 47.3415 22.2223 47.4852 22.2223Z" fill="#303030"/>
<path d="M48.0596 25.3046L50.6819 21.6487L50.9333 21.8279L50.9692 20.9677L50.179 21.2544L50.4304 21.4337C50.3227 21.6129 48.347 24.3369 48.0956 24.6953L46.9101 22.5448L46.7665 22.7598L45.7248 24.3369L45.4733 24.1577V24.982L46.2636 24.6595L45.9762 24.4802C46.1199 24.2652 46.6946 23.405 46.8742 23.1182L48.0596 25.3046Z" fill="#303030"/>
<path d="M48.5268 23.871L48.4549 23.7635L48.1675 23.4768V23.4409C48.0957 23.5484 47.952 23.7993 47.8083 24.0861L47.6287 23.7635L48.1316 22.8674L48.2753 23.0825L48.8141 23.871H48.5268Z" fill="#303030"/>
<path d="M49.0654 24.086L49.245 24.3727L49.4965 24.1935V25.0179L48.7062 24.6953L48.9576 24.5161C48.9217 24.4803 48.8858 24.4086 48.8499 24.3369L49.0654 24.086Z" fill="#303030"/>
<path d="M54.3461 18.5305L54.3101 18.4947H53.5917L53.5558 18.5305H53.5199L53.2325 18.8173C52.9092 19.104 52.6937 19.4266 52.8733 19.6416C53.0529 19.8208 53.3762 19.6775 53.7354 19.3549C54.3101 19.0682 54.5257 18.7456 54.3461 18.5305Z" fill="#303030"/>
<path d="M53.8069 22.2939L53.8428 22.2581C54.0224 22.1147 54.1302 21.8638 54.1302 21.6129C54.1302 21.1111 53.735 20.7169 53.2321 20.7169C52.7292 20.7169 52.3341 21.1111 52.3341 21.6129C52.3341 21.6846 52.3341 21.7921 52.3341 21.7921C52.2982 21.7204 52.1545 21.362 52.1186 21.3262C52.2623 20.8244 52.6933 20.466 53.2321 20.466C53.6991 20.466 54.0942 20.7169 54.2738 21.1111C54.202 20.6452 53.9865 20.2509 53.8069 20.1076C53.6273 19.9283 53.304 19.8567 53.304 19.8567C53.5195 19.8925 53.8069 19.7491 54.1302 19.4624C54.4175 19.1756 54.5971 18.9247 54.5971 18.7455C54.5612 19.0323 54.5971 19.1756 54.669 19.4265C54.7767 19.7491 55.0641 20.3226 54.9563 20.9678C54.8845 21.3262 54.6331 21.8638 54.202 22.2939C54.0942 22.4014 54.0583 22.5448 54.0583 22.6165C54.0583 22.6165 53.4117 22.6165 53.2681 22.6165C53.2681 22.6165 53.1244 22.6165 53.1244 22.509C53.1244 22.4014 53.1962 22.4014 53.2681 22.4014C53.304 22.4014 53.6273 22.4014 53.8069 22.2939Z" fill="#303030"/>
<path d="M49.5327 22.4731L48.6705 21.8996L48.024 21.2544L47.9162 21.1111L47.7725 20.8244C47.9162 20.896 48.0599 20.8244 48.0599 20.8244C48.0599 20.8244 48.0958 20.8602 48.0958 20.896C48.5628 21.577 49.0657 21.9713 49.5686 22.258L49.5327 22.4731Z" fill="#303030"/>
<path d="M50.2151 22.509L50.6462 22.724H51.0773L51.3646 22.7957C51.6161 22.8316 51.8675 22.8674 52.119 22.8316C52.119 22.8674 52.119 22.9033 52.1549 22.9749C52.1549 22.9749 52.119 23.0466 52.119 23.0825C51.8675 23.0825 51.6161 23.0825 51.3646 23.0466C50.9336 22.9749 50.4666 22.9033 50.0355 22.724L50.2151 22.509Z" fill="#303030"/>
<path d="M53.1603 22.7241H53.6273C53.7709 22.7599 53.9505 22.7957 53.9865 22.8674C54.0224 22.9391 53.9505 23.0467 53.8787 23.1542C53.8428 23.2259 53.6991 23.19 53.6273 23.1542C53.5554 23.1183 53.1962 22.9391 53.1244 22.8674C53.0884 22.8316 53.0525 22.7241 53.1603 22.7241Z" fill="#303030"/>
<path d="M52.8014 22.9749L52.8374 22.939C52.9451 22.9749 53.3043 23.1899 53.3403 23.2975C53.3762 23.405 53.3043 23.4408 53.2684 23.4767C53.1966 23.5125 53.1247 23.5125 53.0888 23.5125C53.017 23.5125 52.9092 23.4767 52.8733 23.405C52.8374 23.3333 52.6578 23.1541 52.6218 23.0824C52.7655 23.0466 52.7655 22.9749 52.8014 22.9749Z" fill="#303030"/>
<path d="M52.7293 23.1899L52.873 23.3333C52.873 23.3691 52.873 23.405 52.8012 23.405C52.7652 23.405 52.5138 23.3691 52.3701 23.2616C52.2264 23.1541 52.1187 22.9749 52.2264 22.9032C52.406 22.9749 52.5856 23.0107 52.7293 23.1899Z" fill="#303030"/>
<path d="M52.6576 22.6523H52.6935C52.7295 22.724 52.6935 22.8316 52.5498 22.9032C52.4062 22.9749 52.1188 23.0466 52.0829 22.9749C52.2625 22.8674 52.3343 22.724 52.6576 22.6523Z" fill="#303030"/>
</svg>
