<svg width="155" height="40" viewBox="0 0 155 40" fill="none" xmlns="http://www.w3.org/2000/svg">
<path fill-rule="evenodd" clip-rule="evenodd" d="M19.9731 0.427061C12.7709 3.69722 6.8048 8.03705 1.58447 13.7929C0.818281 14.6385 0.808065 14.6589 0.848929 15.0154C0.86936 15.209 0.951087 15.9017 1.0226 16.5537C1.81944 23.6543 4.3019 31.0707 8.08179 37.6212C8.68453 38.6604 8.48021 38.5483 10.4417 38.9456C17.4191 40.3515 24.9687 40.3515 31.9564 38.9456C33.9689 38.5381 33.7441 38.6705 34.3775 37.5601C38.3515 30.6531 40.8238 22.9208 41.4674 15.3618L41.5287 14.669L41.1507 14.231C36.247 8.53623 29.2185 3.39159 22.2002 0.345562C21.1071 -0.123058 21.2092 -0.133245 19.9731 0.427061ZM23.5998 2.63773C29.5658 5.60226 33.9893 8.86223 38.7908 13.8642L40.0065 15.1275L39.9554 15.7591C39.4344 22.1364 36.8804 30.1844 33.4581 36.1746C32.7736 37.3767 32.978 37.2341 31.5171 37.5194C24.6724 38.8641 17.9504 38.8539 10.9422 37.5092L9.57331 37.2443L9.19532 36.6025C5.86494 30.9485 3.43355 23.6238 2.5652 16.7371C2.33024 14.8932 2.14635 15.2599 4.46536 12.9372C9.0523 8.34267 13.9253 4.87895 19.5849 2.20986C21.3114 1.40505 21.0458 1.37449 23.5998 2.63773ZM20.3511 8.73998C20.3511 9.01504 20.3715 9.03541 20.6167 9.03541H20.8823L20.8415 10.0236C20.7802 11.2563 20.443 12.4176 20.1263 12.4686C19.9425 12.4991 19.9322 12.5297 19.9322 13.3752V14.2514H20.8517V13.1511L22.997 13.1919L22.9357 14.2514H23.8756V12.5806L23.4057 12.5195L23.375 11.2155C23.3341 9.35122 23.3852 9.03541 23.7019 9.03541C23.9267 9.03541 23.9471 9.01504 23.9471 8.73998V8.44454H20.3307V8.73998M15.1103 9.27991L14.8345 9.52441L14.8549 10.3598C14.8754 11.1544 14.8652 11.2053 14.6915 11.3276C14.4565 11.4906 14.4157 11.4498 14.2522 10.8793C14.0785 10.2885 14.0785 10.2273 14.2931 10.1764C14.4565 10.1356 14.4667 9.70778 14.3135 9.53459C14.242 9.45309 12.5972 9.97265 12.5972 10.0745C12.5972 10.3903 12.7505 10.5941 12.965 10.5533C13.2102 10.5024 13.629 11.5823 13.4145 11.7249C13.1693 11.8879 12.9752 11.7453 12.6789 11.185C12.2192 10.319 11.8617 10.0643 11.3407 10.2273C11.0546 10.319 11.0853 10.9405 11.3713 10.9405C11.6267 10.9405 11.8208 11.134 11.9843 11.5211C12.1375 11.8981 12.4133 12.1935 12.6074 12.1935C12.6892 12.1935 12.7607 12.2343 12.7607 12.275C12.7607 12.3259 12.73 12.3565 12.6892 12.3565C12.5155 12.3565 12.4031 12.8761 12.4542 13.4567C12.5053 14.017 12.4951 14.0578 12.2907 14.2514L12.066 14.4551L12.2907 14.7505C12.5359 15.0765 12.8322 15.0562 13.1591 14.6996C13.3225 14.5264 13.3532 13.6605 13.2306 12.9779C13.1795 12.6825 13.343 12.4482 13.5984 12.4482C13.9457 12.4482 14.1807 13.8642 13.8333 13.8744C13.7414 13.8744 13.7516 14.231 13.8538 14.3736C14.007 14.6181 15.6416 14.0782 15.57 13.8031C15.4883 13.4771 15.4679 13.4567 15.2125 13.4567C14.998 13.4567 14.9673 13.416 14.8345 12.9168C14.7528 12.6214 14.671 12.3158 14.6404 12.2444C14.5689 12.0713 14.9775 11.9694 15.1614 12.112C15.2329 12.1731 15.4372 12.5093 15.6211 12.8761C15.9889 13.6096 16.1932 13.7929 16.6529 13.7929C16.9901 13.7929 17.0105 13.7725 17.082 13.2734C17.1229 12.9779 17.1127 12.9576 16.8573 12.9372C16.6325 12.9168 16.5508 12.8353 16.2852 12.3667C16.0808 11.9999 15.8765 11.7656 15.6824 11.6536C15.4066 11.4906 15.3964 11.4702 15.5088 11.3174C15.6007 11.1951 15.6211 10.9914 15.6007 10.5228C15.5701 9.94209 15.5803 9.88096 15.7744 9.70778C15.9787 9.51422 15.9787 9.51422 15.8254 9.25953C15.6416 8.97429 15.4577 8.9641 15.1103 9.27991ZM22.4249 12.438L22.1797 12.4686C22.0469 12.4889 21.7711 12.4686 21.577 12.4482L21.2194 12.3973L21.3829 11.9796C21.5464 11.5517 21.7098 10.37 21.7098 9.57534V9.13728H22.4658L22.4249 12.438ZM28.3808 9.37159C28.2684 9.42253 28.1663 9.57534 28.1152 9.7689C27.8904 10.6348 27.87 10.5839 28.3706 10.6756C28.6668 10.7367 28.6771 10.7265 28.7894 10.37C29.0346 9.59572 30.0971 10.2375 30.0766 11.1442C30.0664 11.7249 30.046 11.7249 28.8916 11.4193C28.7384 11.3785 28.6975 11.4193 28.6158 11.6739C28.483 12.0713 28.5136 12.1018 29.1061 12.2241C29.8315 12.3769 29.8519 12.3973 29.6782 12.8353C29.3207 13.7725 27.7883 14.1087 27.9824 13.2122C28.0845 12.7538 28.0743 12.7131 27.7781 12.6316C27.3694 12.5195 27.2979 12.5806 27.1753 13.1409C27.0323 13.7929 27.0732 13.8744 27.6555 14.1393C28.3093 14.4449 29.2287 14.4551 29.7702 14.1699C30.9348 13.5484 31.3945 10.8284 30.4751 9.90134C30.046 9.47347 28.8609 9.16785 28.3808 9.37159ZM18.0014 12.4788C17.7665 12.7131 17.7665 13.1817 18.0117 13.4058C18.5735 13.9254 19.4827 13.1919 19.0332 12.5806C18.8085 12.275 18.2568 12.2241 18.0014 12.4788ZM25.0198 12.6112C24.8461 12.7844 24.8154 12.8761 24.8563 13.09C25.0095 13.8846 26.1742 13.8235 26.1742 13.0289C26.1639 12.4278 25.459 12.1731 25.0198 12.6112ZM5.27242 16.0749C5.34393 16.1157 8.95014 17.6947 13.3021 19.5794L21.199 23.0023L29.1981 19.5386C33.6011 17.6336 37.1869 16.0647 37.1767 16.0545C37.1665 16.0443 36.6148 16.1258 35.961 16.2379C32.7634 16.7778 28.6873 17.2974 25.7042 17.5521C24.9585 17.6132 23.1094 17.6641 21.199 17.6641C17.838 17.6641 16.8777 17.6132 13.5269 17.2363C11.1466 16.9714 6.55962 16.3092 5.36436 16.0647C5.21112 16.0138 5.18047 16.024 5.27242 16.0749ZM15.4781 30.0113C12.3623 33.8315 9.81849 36.9591 9.83893 36.9794C9.84914 36.9896 12.3827 35.2883 15.4679 33.1897C18.5531 31.0911 21.1173 29.3796 21.1786 29.3796C21.2705 29.3796 23.8858 31.1319 32.2118 36.7859C32.4059 36.9183 32.5693 37.01 32.5693 36.9896C32.5693 36.9285 21.2807 23.1246 21.2092 23.094C21.1786 23.0736 18.6042 26.191 15.4781 30.0113Z" fill="#303030"/>
<path d="M57.6596 8.8826H56.0557L54.0738 12.3259H53.2463V8.8826H51.9183V12.3259H51.0805L49.0987 8.8826H47.4948L49.9568 12.9066L47.1576 16.9816H48.9046L51.0908 13.5892H51.9183V16.9816H53.2463V13.5892H54.0636L56.2498 16.9816H57.9967L55.1976 12.9066L57.6596 8.8826Z" fill="#303030"/>
<path d="M62.2057 11.4906C61.8583 11.2461 61.4293 11.1238 60.9389 11.1238C60.4179 11.1238 59.9684 11.2257 59.5904 11.4396C59.2124 11.6536 58.9366 11.9592 58.7323 12.3667C58.5382 12.7742 58.436 13.2632 58.436 13.8337V14.4857C58.436 15.0358 58.5382 15.5044 58.7425 15.8915C58.9468 16.2786 59.243 16.5741 59.6313 16.7778C60.0195 16.9816 60.4894 17.0733 61.0308 17.0733C61.3986 17.0733 61.7766 17.002 62.1342 16.8491C62.5019 16.6963 62.8288 16.4824 63.1251 16.2073L62.2567 15.3923C62.0831 15.5452 61.889 15.6572 61.6744 15.7387C61.4599 15.8202 61.2454 15.861 61.0206 15.861C60.5916 15.861 60.2544 15.7387 60.0195 15.5044C59.8049 15.2905 59.6926 15.0052 59.6619 14.6283H63.2681V14.2514C63.2681 13.5892 63.1762 13.0289 62.9923 12.5602C62.8288 12.0916 62.5632 11.7351 62.2057 11.4906ZM59.6823 13.6503C59.7028 13.2428 59.8049 12.9168 60.0092 12.6927C60.2238 12.438 60.5405 12.3157 60.9389 12.3157C61.2556 12.3157 61.511 12.4278 61.7051 12.6519C61.8992 12.8761 62.0116 13.1919 62.0422 13.5892L62.0524 13.6503H59.6823Z" fill="#303030"/>
<path d="M64.9231 11.1951V14.5264C64.9231 14.9135 64.8516 15.2192 64.6984 15.4229C64.5451 15.6368 64.3408 15.7387 64.065 15.7387V17.0121H64.1773C64.6064 17.0121 64.9742 16.9204 65.2807 16.7371C65.5871 16.5537 65.8221 16.2888 65.9753 15.9425C66.1286 15.5961 66.2103 15.1682 66.2103 14.6792V12.4686H67.8755V16.9714H69.2036V11.1951H64.9231Z" fill="#303030"/>
<path d="M76.9472 15.698V8.8826H71.8393V13.7318C71.8393 14.3634 71.7269 14.8422 71.5124 15.1886C71.2876 15.535 70.9811 15.7081 70.5725 15.7081H70.4601V18.6523H71.7678V16.9816H76.6203V18.6523H77.928V15.698H76.9472ZM72.6668 15.698C72.7587 15.5655 72.8302 15.4331 72.8915 15.2803C73.0856 14.832 73.1776 14.3023 73.1776 13.6605V10.156H75.609V15.698H72.6668Z" fill="#303030"/>
<path d="M82.6375 11.4091C82.2697 11.2155 81.8304 11.1136 81.3196 11.1136C80.8088 11.1136 80.3696 11.2155 80.0018 11.4091C79.634 11.6026 79.3582 11.8879 79.1641 12.2648C78.97 12.6417 78.878 13.09 78.878 13.6095V14.5468C78.878 15.0765 78.97 15.535 79.1641 15.9119C79.3582 16.2888 79.634 16.5741 80.0018 16.7676C80.3696 16.9612 80.8088 17.0631 81.3196 17.0631C81.8304 17.0631 82.2697 16.9612 82.6375 16.7676C83.0053 16.5741 83.2811 16.2888 83.4752 15.9119C83.6693 15.535 83.7612 15.0867 83.7612 14.5672V13.6095C83.7612 13.09 83.6693 12.6417 83.4752 12.2648C83.2811 11.8879 83.0053 11.6026 82.6375 11.4091ZM82.4332 14.557C82.4332 14.9441 82.3412 15.2497 82.1471 15.4636C81.953 15.6776 81.6772 15.7795 81.3298 15.7795C80.9723 15.7795 80.6965 15.6776 80.5024 15.4636C80.3083 15.2497 80.2163 14.9441 80.2163 14.557V13.5993C80.2163 13.2122 80.3083 12.9168 80.5024 12.7029C80.6965 12.4889 80.9723 12.387 81.3196 12.387C81.667 12.387 81.9428 12.4889 82.1369 12.7029C82.331 12.9168 82.423 13.2122 82.423 13.5993V14.557H82.4332Z" fill="#303030"/>
<path d="M89.0837 11.3989C88.7875 11.2053 88.4401 11.1136 88.0315 11.1136C87.7046 11.1136 87.4083 11.2053 87.1325 11.3887C86.918 11.5313 86.7443 11.7249 86.6013 11.9592V11.1951H85.263V19.3247H86.6013V16.2379C86.7238 16.4722 86.8873 16.6556 87.0916 16.7982C87.347 16.9714 87.6535 17.0529 88.0008 17.0529C88.4095 17.0529 88.767 16.9612 89.0633 16.7676C89.3596 16.5741 89.5843 16.299 89.7375 15.9425C89.8908 15.5757 89.9725 15.1478 89.9725 14.6385V13.5484C89.9725 13.0289 89.901 12.5908 89.7478 12.2241C89.5945 11.8675 89.38 11.5924 89.0837 11.3989ZM88.6444 14.6487C88.6444 15.0358 88.5525 15.321 88.3686 15.535C88.1847 15.7387 87.9293 15.8508 87.6024 15.8508C87.3879 15.8508 87.2142 15.81 87.061 15.7285C86.9077 15.647 86.7954 15.5248 86.7238 15.372C86.6421 15.2191 86.6115 15.0358 86.6115 14.8117V13.3752C86.6115 13.1613 86.6523 12.9677 86.7238 12.8149C86.8056 12.6621 86.9179 12.5399 87.061 12.4584C87.2142 12.3769 87.3879 12.3361 87.6024 12.3361C87.9293 12.3361 88.1949 12.438 88.3686 12.6519C88.5525 12.8659 88.6444 13.1715 88.6444 13.5586V14.6487Z" fill="#303030"/>
<path d="M95.5913 9.16784C95.1622 8.92334 94.6514 8.80109 94.0589 8.80109C93.5685 8.80109 93.1292 8.90297 92.7308 9.1169C92.3324 9.32065 92.0055 9.62627 91.7399 10.0134C91.4743 10.4005 91.3006 10.8691 91.1984 11.3989H92.5674C92.6389 11.1442 92.741 10.9099 92.884 10.7163C93.0271 10.5228 93.2007 10.37 93.4051 10.2681C93.5992 10.1662 93.8239 10.1153 94.0487 10.1153C94.3551 10.1153 94.6208 10.1866 94.8455 10.319C95.0703 10.4514 95.2439 10.6552 95.3665 10.9099C95.4891 11.1646 95.5504 11.4702 95.5504 11.8166V12.3259H92.7104V13.5688H95.5606V14.0272C95.5606 14.3736 95.4993 14.6792 95.3767 14.9339C95.2541 15.1886 95.0805 15.3821 94.8557 15.5248C94.631 15.6572 94.3654 15.7285 94.0589 15.7285C93.8239 15.7285 93.6094 15.6776 93.4051 15.5757C93.211 15.4738 93.0373 15.3312 92.884 15.1377C92.741 14.9441 92.6389 14.7098 92.5674 14.4449H91.1984C91.3006 14.9747 91.4845 15.4433 91.7399 15.8304C92.0055 16.2175 92.3324 16.5231 92.7308 16.7269C93.1292 16.9306 93.5685 17.0427 94.0487 17.0427C94.6412 17.0427 95.152 16.9204 95.5811 16.6759C96.0101 16.4314 96.3472 16.0851 96.5822 15.6368C96.8172 15.1886 96.9296 14.6487 96.9296 14.0272V11.8064C96.9296 11.1849 96.8172 10.6552 96.5822 10.1968C96.3575 9.75871 96.0203 9.41234 95.5913 9.16784Z" fill="#303030"/>
<path d="M103.314 11.1951H101.833L100.648 13.4465H99.8922V11.1951H98.5539V16.9816H99.8922V14.72H100.669L102.027 16.9816H103.662L101.731 14.0069L103.314 11.1951Z" fill="#303030"/>
<path d="M105.777 12.7232C106.001 12.4991 106.328 12.387 106.737 12.387C106.962 12.387 107.176 12.4278 107.38 12.5195C107.585 12.601 107.769 12.7232 107.912 12.8862L108.811 12.0407C108.668 11.8471 108.484 11.6739 108.269 11.5415C108.055 11.4091 107.809 11.297 107.534 11.2257C107.258 11.1544 106.972 11.1136 106.665 11.1136C106.124 11.1136 105.664 11.2155 105.286 11.4192C104.898 11.623 104.612 11.9082 104.408 12.2954C104.203 12.6825 104.111 13.1409 104.111 13.6808V14.4653C104.111 15.0154 104.213 15.484 104.408 15.8711C104.612 16.2583 104.898 16.5537 105.286 16.7574C105.674 16.9612 106.134 17.0631 106.665 17.0631C106.972 17.0631 107.258 17.0325 107.534 16.9612C107.809 16.8899 108.055 16.788 108.269 16.6556C108.484 16.5231 108.668 16.3601 108.821 16.1666L107.922 15.2701C107.769 15.4433 107.595 15.5757 107.391 15.6674C107.186 15.7591 106.972 15.81 106.747 15.81C106.328 15.81 106.011 15.698 105.787 15.4636C105.562 15.2395 105.45 14.9135 105.45 14.4857V13.7012C105.439 13.2734 105.552 12.9474 105.777 12.7232Z" fill="#303030"/>
<path d="M109.965 11.1951V16.9816H111.293V12.4787H113.541V16.9816H114.879V11.1951H109.965Z" fill="#303030"/>
<path d="M120.15 11.4906C119.803 11.2461 119.374 11.1238 118.884 11.1238C118.363 11.1238 117.913 11.2257 117.535 11.4396C117.157 11.6536 116.881 11.9592 116.677 12.3667C116.483 12.7742 116.381 13.2632 116.381 13.8337V14.4857C116.381 15.0358 116.483 15.5044 116.687 15.8915C116.891 16.2786 117.188 16.5741 117.576 16.7778C117.964 16.9816 118.434 17.0733 118.975 17.0733C119.343 17.0733 119.721 17.002 120.079 16.8491C120.447 16.6963 120.773 16.4824 121.07 16.2073L120.201 15.3923C120.028 15.5452 119.834 15.6572 119.619 15.7387C119.405 15.8202 119.19 15.861 118.965 15.861C118.536 15.861 118.199 15.7387 117.964 15.5044C117.75 15.2905 117.637 15.0052 117.607 14.6283H121.213V14.2514C121.213 13.5892 121.121 13.0289 120.937 12.5602C120.763 12.0916 120.498 11.7351 120.15 11.4906ZM117.617 13.6503C117.637 13.2428 117.739 12.9168 117.944 12.6927C118.158 12.438 118.475 12.3157 118.873 12.3157C119.19 12.3157 119.445 12.4278 119.64 12.6519C119.834 12.8761 119.946 13.1919 119.977 13.5892L119.987 13.6503H117.617Z" fill="#303030"/>
<path d="M127.383 11.2053H123.184V14.068C123.184 14.4755 123.164 14.8015 123.133 15.046C123.092 15.2803 123.021 15.4636 122.919 15.5859C122.817 15.7081 122.653 15.7693 122.439 15.7693H122.102V18.4486H123.348V16.9918H127.056V18.4486H128.303V15.7795H127.383V11.2053ZM124.175 15.7591C124.39 15.4433 124.502 15.0052 124.502 14.4449V12.4176H126.045V15.7591H124.175Z" fill="#303030"/>
<path d="M130.887 14.9135V11.1951H129.6V16.9714H130.754L133.176 13.3549V16.9714H134.473V11.1951H133.329L130.887 14.9135Z" fill="#303030"/>
<path d="M140.868 11.1951H139.54V15.7285H137.456V11.1951H136.128V16.9816H140.541V18.4282H141.869V15.7285H140.868V11.1951Z" fill="#303030"/>
<path d="M144.454 14.9135V11.1951H143.157V16.9714H144.311L146.742 13.3549V16.9714H148.04V11.1951H146.896L144.454 14.9135Z" fill="#303030"/>
<path d="M151.452 11.1951C151.053 11.1951 150.696 11.2766 150.389 11.4396C150.083 11.6026 149.848 11.8267 149.684 12.1222C149.521 12.4176 149.429 12.764 149.429 13.1511C149.429 13.5382 149.511 13.8846 149.684 14.18C149.858 14.4755 150.093 14.6996 150.4 14.8626C150.471 14.9033 150.543 14.9339 150.614 14.9543L149.317 16.9714H150.859L152.014 15.1071H152.831V16.9714H154.169V11.1951H151.452ZM151.493 13.9254C151.36 13.9254 151.237 13.8948 151.135 13.8337C151.033 13.7725 150.951 13.691 150.9 13.579C150.849 13.4669 150.818 13.3447 150.818 13.202C150.818 12.9881 150.88 12.8149 151.002 12.6825C151.125 12.5501 151.288 12.4889 151.503 12.4889H152.851V13.9355H151.493V13.9254Z" fill="#303030"/>
<path d="M52.0409 23.4913V29.0231L52.5823 29.0434L52.5312 31.1624H51.9081L51.857 29.6751H47.9545L47.9034 31.1624H47.2803L47.2292 29.0434L47.6991 29.0231C47.9239 28.6054 48.1588 28.1571 48.3018 27.6681C48.5164 26.955 48.5981 26.1298 48.5981 25.0602V23.4913H52.0409ZM49.3234 25.325C49.3234 26.3132 49.2315 27.1486 49.0067 27.8413C48.8739 28.2692 48.69 28.6869 48.5062 29.0129H51.244V24.1535H49.3234V25.325Z" fill="#303030"/>
<path d="M57.537 27.4236C57.537 29.0638 56.3928 29.7769 55.3201 29.7769C54.1147 29.7769 53.185 28.9008 53.185 27.495C53.185 26.0076 54.1555 25.1417 55.3917 25.1417C56.6789 25.1417 57.537 26.0585 57.537 27.4236ZM54.0125 27.4644C54.0125 28.4322 54.5744 29.1657 55.361 29.1657C56.1374 29.1657 56.7095 28.4424 56.7095 27.444C56.7095 26.6901 56.3315 25.7427 55.3814 25.7427C54.4314 25.7427 54.0125 26.6188 54.0125 27.4644Z" fill="#303030"/>
<path d="M61.7357 29.5121C61.5212 29.6241 61.0513 29.7667 60.4588 29.7667C59.1205 29.7667 58.2419 28.8601 58.2419 27.5051C58.2419 26.14 59.1818 25.1518 60.6324 25.1518C61.1126 25.1518 61.5314 25.2741 61.7562 25.376L61.5723 25.9974C61.3782 25.8853 61.0717 25.7835 60.6324 25.7835C59.6108 25.7835 59.0592 26.5373 59.0592 27.4644C59.0592 28.4933 59.7232 29.1249 60.6018 29.1249C61.0615 29.1249 61.368 29.0027 61.5927 28.9008L61.7357 29.5121Z" fill="#303030"/>
<path d="M65.8324 25.2334V25.8752H64.443V29.6751H63.6461V25.8752H62.2568V25.2334H65.8324Z" fill="#303030"/>
<path d="M68.938 29.6751L68.8767 29.1148H68.846C68.6008 29.4611 68.1207 29.7769 67.4873 29.7769C66.5883 29.7769 66.1286 29.1453 66.1286 28.5035C66.1286 27.4338 67.0889 26.843 68.8052 26.8531V26.7615C68.8052 26.3947 68.703 25.7325 67.7938 25.7325C67.3852 25.7325 66.9459 25.865 66.6394 26.0585L66.4555 25.5288C66.8233 25.2945 67.3545 25.1315 67.9164 25.1315C69.2751 25.1315 69.6122 26.0585 69.6122 26.9448V28.6054C69.6122 28.9925 69.6327 29.3694 69.6837 29.6649H68.938V29.6751ZM68.8154 27.4135C67.9368 27.3931 66.9357 27.5561 66.9357 28.4118C66.9357 28.9314 67.283 29.1861 67.7019 29.1861C68.2842 29.1861 68.6519 28.8193 68.7745 28.4424C68.8052 28.3609 68.8256 28.2692 68.8256 28.1877V27.4135H68.8154Z" fill="#303030"/>
<path d="M70.8892 25.2945C71.2059 25.2435 71.778 25.1926 72.3092 25.1926C73.055 25.1926 74.2809 25.3148 74.2809 26.303C74.2809 26.8531 73.8621 27.1893 73.3513 27.3014V27.3218C74.0051 27.4135 74.4852 27.7802 74.4852 28.422C74.4852 29.5834 73.0141 29.7362 72.1458 29.7362C71.6452 29.7362 71.1344 29.6954 70.8994 29.6852V25.2945H70.8892ZM71.6554 29.1453C71.8802 29.1759 72.0538 29.1861 72.3092 29.1861C72.8507 29.1861 73.6577 29.0536 73.6577 28.4118C73.6577 27.77 73.0141 27.6376 72.2377 27.6376H71.6554V29.1453ZM71.6656 27.0976H72.2684C72.8609 27.0976 73.4841 26.9245 73.4841 26.4049C73.4841 25.9668 73.0959 25.7529 72.2888 25.7529C72.0232 25.7529 71.8597 25.7733 71.6656 25.7937V27.0976Z" fill="#303030"/>
<path d="M76.3036 27.1588H76.4977L78.1731 25.2334H79.1539L77.2129 27.2403C77.928 27.3116 78.357 27.7904 78.7146 28.585C78.8372 28.8804 78.9904 29.3083 79.1947 29.6649H78.3468C78.2242 29.4713 78.071 29.1249 77.9382 28.7582C77.6317 28.0451 77.2231 27.7089 76.4671 27.7089H76.3139V29.6649H75.517V25.2232H76.3036V27.1588Z" fill="#303030"/>
<path d="M82.4638 29.6751L82.4025 29.1148H82.3719C82.1267 29.4611 81.6466 29.7769 81.0132 29.7769C80.1142 29.7769 79.6544 29.1453 79.6544 28.5035C79.6544 27.4338 80.6147 26.843 82.331 26.8531V26.7615C82.331 26.3947 82.2289 25.7325 81.3196 25.7325C80.911 25.7325 80.4717 25.865 80.1652 26.0585L79.9814 25.5288C80.3491 25.2945 80.8804 25.1315 81.4422 25.1315C82.8009 25.1315 83.1381 26.0585 83.1381 26.9448V28.6054C83.1381 28.9925 83.1585 29.3694 83.2096 29.6649H82.4638V29.6751ZM82.3412 27.4135C81.4627 27.3931 80.4615 27.5561 80.4615 28.4118C80.4615 28.9314 80.8089 29.1861 81.2277 29.1861C81.81 29.1861 82.1778 28.8193 82.3004 28.4424C82.331 28.3609 82.3515 28.2692 82.3515 28.1877V27.4135H82.3412Z" fill="#303030"/>
<path d="M89.094 25.2334V25.8853H87.1632V29.6751H86.3663V25.2334H89.094Z" fill="#303030"/>
<path d="M89.8601 26.6901C89.8601 26.1197 89.8397 25.6612 89.8193 25.2435H90.5446L90.5855 26.0076H90.6059C90.9328 25.4677 91.464 25.1417 92.1894 25.1417C93.262 25.1417 94.0691 26.0483 94.0691 27.3931C94.0691 28.9925 93.0986 29.7769 92.0463 29.7769C91.4538 29.7769 90.943 29.5222 90.6774 29.0842H90.657V31.4986H89.8601V26.6901ZM90.657 27.8719C90.657 27.9941 90.6774 28.096 90.6979 28.1979C90.8409 28.7582 91.3312 29.1453 91.9135 29.1453C92.7717 29.1453 93.262 28.4526 93.262 27.4338C93.262 26.5475 92.7921 25.7835 91.934 25.7835C91.3823 25.7835 90.8715 26.1808 90.7081 26.7818C90.6774 26.8837 90.657 27.006 90.657 27.1078V27.8719Z" fill="#303030"/>
<path d="M95.295 25.2334L96.2655 27.8515C96.3677 28.147 96.48 28.4933 96.5516 28.7582H96.572C96.6537 28.4933 96.7457 28.1571 96.858 27.8311L97.7366 25.2232H98.5947L97.3791 28.3813C96.7967 29.8992 96.4085 30.6836 95.8569 31.1624C95.4585 31.5088 95.0703 31.6514 94.8659 31.682L94.6616 30.9994C94.8659 30.9383 95.1315 30.8059 95.3665 30.6021C95.5913 30.4289 95.8671 30.1131 96.051 29.7056C96.0918 29.6241 96.1123 29.563 96.1123 29.5121C96.1123 29.4611 96.0919 29.4 96.0612 29.2981L94.4164 25.213H95.295V25.2334Z" fill="#303030"/>
<path d="M99.7389 27.0976H100.127C100.812 27.0976 101.271 26.7818 101.271 26.3743C101.271 25.977 100.914 25.7325 100.403 25.7325C100.045 25.7325 99.6368 25.8548 99.3303 26.0483L99.126 25.5492C99.5755 25.2741 100.096 25.1417 100.607 25.1417C101.292 25.1417 102.119 25.4473 102.119 26.303C102.119 26.8531 101.608 27.2097 101.118 27.3116V27.332C101.782 27.3829 102.334 27.7904 102.334 28.4424C102.334 29.4 101.353 29.7667 100.413 29.7667C99.8922 29.7667 99.3609 29.6241 98.9727 29.4102L99.1873 28.8703C99.504 29.0434 99.9433 29.1759 100.362 29.1759C101.036 29.1759 101.455 28.8601 101.455 28.4118C101.455 27.8209 100.832 27.6478 100.158 27.6478H99.7491V27.0976H99.7389Z" fill="#303030"/>
<path d="M107.36 27.4236C107.36 29.0638 106.216 29.7769 105.143 29.7769C103.938 29.7769 103.008 28.9008 103.008 27.495C103.008 26.0076 103.979 25.1417 105.215 25.1417C106.502 25.1417 107.36 26.0585 107.36 27.4236ZM103.836 27.4644C103.836 28.4322 104.397 29.1657 105.184 29.1657C105.96 29.1657 106.533 28.4424 106.533 27.444C106.533 26.6901 106.155 25.7427 105.204 25.7427C104.254 25.7427 103.836 26.6188 103.836 27.4644Z" fill="#303030"/>
<path d="M108.361 25.2945C108.678 25.2435 109.25 25.1926 109.781 25.1926C110.527 25.1926 111.753 25.3148 111.753 26.303C111.753 26.8531 111.334 27.1893 110.823 27.3014V27.3218C111.477 27.4135 111.957 27.7802 111.957 28.422C111.957 29.5834 110.486 29.7362 109.618 29.7362C109.117 29.7362 108.606 29.6954 108.371 29.6852V25.2945H108.361ZM109.127 29.1453C109.352 29.1759 109.526 29.1861 109.781 29.1861C110.323 29.1861 111.13 29.0536 111.13 28.4118C111.13 27.77 110.486 27.6376 109.71 27.6376H109.117V29.1453H109.127ZM109.138 27.0976H109.74C110.333 27.0976 110.956 26.9245 110.956 26.4049C110.956 25.9668 110.568 25.7529 109.761 25.7529C109.495 25.7529 109.332 25.7733 109.138 25.7937V27.0976Z" fill="#303030"/>
<path d="M118.587 25.2334V29.6751H117.78V25.8752H115.717V29.6751H114.92V25.2334H118.587Z" fill="#303030"/>
<path d="M123.93 27.4236C123.93 29.0638 122.786 29.7769 121.713 29.7769C120.508 29.7769 119.578 28.9008 119.578 27.495C119.578 26.0076 120.549 25.1417 121.785 25.1417C123.062 25.1417 123.93 26.0585 123.93 27.4236ZM120.396 27.4644C120.396 28.4322 120.957 29.1657 121.744 29.1657C122.52 29.1657 123.093 28.4424 123.093 27.444C123.093 26.6901 122.715 25.7427 121.764 25.7427C120.814 25.7427 120.396 26.6188 120.396 27.4644Z" fill="#303030"/>
<path d="M126.923 23.5728C127.312 23.5117 127.812 23.4506 128.456 23.4506C129.242 23.4506 129.825 23.6339 130.193 23.9599C130.53 24.2554 130.734 24.7036 130.734 25.2537C130.734 25.814 130.571 26.2521 130.254 26.5781C129.835 27.0263 129.14 27.2606 128.364 27.2606C128.129 27.2606 127.904 27.2505 127.72 27.2097V29.6852H126.923V23.5728ZM127.731 26.5475C127.904 26.5985 128.129 26.6087 128.395 26.6087C129.355 26.6087 129.947 26.14 129.947 25.2843C129.947 24.4693 129.365 24.072 128.487 24.072C128.139 24.072 127.874 24.1026 127.731 24.1331V26.5475Z" fill="#303030"/>
<path d="M135.556 27.4236C135.556 29.0638 134.412 29.7769 133.339 29.7769C132.134 29.7769 131.204 28.9008 131.204 27.495C131.204 26.0076 132.174 25.1417 133.411 25.1417C134.698 25.1417 135.556 26.0585 135.556 27.4236ZM132.031 27.4644C132.031 28.4322 132.593 29.1657 133.38 29.1657C134.156 29.1657 134.728 28.4424 134.728 27.444C134.728 26.6901 134.35 25.7427 133.4 25.7427C132.45 25.7427 132.031 26.6188 132.031 27.4644Z" fill="#303030"/>
<path d="M139.755 29.5121C139.54 29.6241 139.07 29.7667 138.478 29.7667C137.139 29.7667 136.261 28.8601 136.261 27.5051C136.261 26.14 137.201 25.1518 138.651 25.1518C139.131 25.1518 139.55 25.2741 139.775 25.376L139.591 25.9974C139.397 25.8853 139.091 25.7835 138.651 25.7835C137.63 25.7835 137.078 26.5373 137.078 27.4644C137.078 28.4933 137.742 29.1249 138.621 29.1249C139.08 29.1249 139.387 29.0027 139.612 28.9008L139.755 29.5121Z" fill="#303030"/>
<path d="M143.821 29.5121C143.606 29.6241 143.136 29.7667 142.544 29.7667C141.205 29.7667 140.327 28.8601 140.327 27.5051C140.327 26.14 141.267 25.1518 142.717 25.1518C143.197 25.1518 143.616 25.2741 143.841 25.376L143.657 25.9974C143.463 25.8853 143.157 25.7835 142.717 25.7835C141.696 25.7835 141.144 26.5373 141.144 27.4644C141.144 28.4933 141.808 29.1249 142.687 29.1249C143.146 29.1249 143.453 29.0027 143.678 28.9008L143.821 29.5121Z" fill="#303030"/>
<path d="M145.506 25.2334V27.1078C145.506 27.8108 145.496 28.2488 145.455 28.8906L145.486 28.9008C145.751 28.3609 145.905 28.0451 146.201 27.5357L147.59 25.2435H148.54V29.6852H147.764V27.8108C147.764 27.0875 147.784 26.7105 147.815 25.9974H147.784C147.498 26.5679 147.304 26.9245 147.049 27.3727C146.63 28.0654 146.14 28.911 145.659 29.6954H144.73V25.2537H145.506V25.2334Z" fill="#303030"/>
<path d="M150.604 25.2334V27.1078C150.604 27.8108 150.594 28.2488 150.553 28.8906L150.583 28.9008C150.849 28.3609 151.002 28.0451 151.299 27.5357L152.688 25.2435H153.638V29.6852H152.862V27.8108C152.862 27.0875 152.882 26.7105 152.913 25.9974H152.882C152.596 26.5679 152.402 26.9245 152.147 27.3727C151.728 28.0654 151.237 28.911 150.757 29.6954H149.827V25.2537H150.604V25.2334Z" fill="#303030"/>
</svg>
