<svg width="20" height="20" viewBox="0 0 20 20" fill="none" xmlns="http://www.w3.org/2000/svg">
<path d="M8.91406 2.96995C10.4353 0.595076 13.5905 -0.0947114 15.9612 1.42927C18.332 2.95324 19.0206 6.11388 17.4992 8.48878L16.1784 7.63971C17.2316 5.99556 16.7549 3.80742 15.1136 2.75237C13.4724 1.69731 11.2881 2.17485 10.2348 3.819L8.91406 2.96995Z" fill="#303030"/>
<path d="M10.2339 3.81966L3.66479 14.0744C2.96372 15.1703 3.28158 16.6278 4.37537 17.3307C5.46964 18.0339 6.92605 17.7156 7.6283 16.6196L9.32358 13.9735L9.32251 13.9728L13.5604 7.35729L13.5614 7.358C13.9124 6.80994 13.7535 6.0806 13.2064 5.72893C12.6593 5.37725 11.9312 5.53643 11.5802 6.08448L11.5791 6.08381L8.21401 11.4293C8.00815 11.7506 7.58101 11.8439 7.25994 11.6375L7.10175 11.5358C6.78072 11.3294 6.68735 10.9016 6.89321 10.5802L10.2584 5.2347L10.2594 5.23536C11.0786 3.95664 12.7774 3.58525 14.054 4.40583C15.3305 5.22643 15.7013 6.92832 14.8822 8.20708L14.8811 8.20643L13.1864 10.8519L13.1877 10.8528L8.94951 17.4689C7.77901 19.2954 5.35138 19.8257 3.52764 18.6537C1.70385 17.4816 1.17424 15.0507 2.34472 13.224L8.91308 2.97061L10.2339 3.81966Z" fill="#303030"/>
<path d="M11.0366 16.9444C10.7156 16.7381 10.6222 16.3102 10.8281 15.9889L16.1764 7.63979L17.4972 8.48886L12.1489 16.8379C11.943 17.1593 11.5159 17.2525 11.1948 17.0461L11.0366 16.9444Z" fill="#303030"/>
</svg>
