<svg width="285" height="60" viewBox="0 0 285 60" fill="none" xmlns="http://www.w3.org/2000/svg">
<path fill-rule="evenodd" clip-rule="evenodd" d="M68.538 34.9756C68.7578 35.9422 68.516 36.9532 67.9555 37.7753C67.9555 37.7753 67.9555 37.7864 67.9445 37.7864C66.0761 40.5528 63.6581 41.1527 60.7895 40.0751C58.7122 39.2974 56.3272 37.1976 55.5798 33.998C55.4919 33.6202 55.3929 33.1981 55.371 32.8314C55.1511 23.3103 67.1862 22.2438 71.3187 27.7987C71.4506 27.9653 71.6375 28.3097 71.7474 28.332C71.9232 28.3764 71.8573 28.0987 71.7693 27.8431C71.6924 27.5876 71.5056 27.1543 71.2638 26.8432C68.1643 22.9548 64.4934 21.9327 61.1522 22.4104C53.1728 23.5658 47.1168 34.2757 55.6238 41.9859C57.1075 43.3302 59.0309 44.619 60.9653 45.0078C63.0316 45.4189 65.1528 45.0856 67.0872 44.1635C69.4723 43.0303 71.4176 41.3305 72.9234 40.5417C76.8911 38.3197 77.6055 42.5748 77.2758 43.708C77.1988 43.7413 75.4513 43.0747 75.4293 42.8636C75.3194 42.0193 74.638 41.6971 74.3082 41.7304C73.0113 41.8971 72.6156 43.8857 74.1214 43.9746C74.5281 43.9968 74.9237 43.7857 75.1655 43.8191C75.2644 43.8302 76.9241 44.519 76.9351 44.5634C76.979 44.6856 75.5062 45.1856 75.3194 45.2633C75.2425 45.2967 74.638 45.4633 74.605 45.4411C73.9455 44.9189 73.2861 45.2189 72.9893 45.7411C72.7585 46.141 72.8355 46.6632 72.9454 46.8854C73.2751 47.552 74.4291 47.9853 74.9347 46.5854C75.2974 46.3299 77.0889 45.4411 77.3307 45.5189C77.3197 45.5522 77.023 45.9855 76.6603 46.5076C76.3745 46.9298 76.2866 47.0631 76.0008 47.5186C75.9459 47.6186 75.6711 47.5075 75.4403 47.5964C74.4181 47.9741 74.5281 49.2518 75.2205 49.6962C75.9019 50.1295 77.0889 49.785 76.9241 48.3741C76.9131 48.2408 76.8032 48.1519 76.8691 47.9964C77.0999 47.4409 77.5505 46.641 77.8253 46.141C77.9242 45.9966 78.0122 45.7744 78.1441 45.8522C78.265 45.9188 78.4738 47.4742 78.5177 47.7186C78.5617 47.9297 78.6057 48.0741 78.5837 48.2408C78.5287 48.3963 78.3419 48.5185 78.2759 48.7629C77.9572 50.0295 79.375 50.2294 79.9356 49.785C80.7049 49.174 80.7379 48.0075 79.474 47.9519C79.2981 47.9408 78.9354 45.941 78.9024 45.8855C79.0343 45.7966 80.3752 46.1744 80.5181 46.2966C80.7709 46.5076 80.8258 46.8298 81.2435 46.8743C82.4415 47.1076 82.8701 44.9967 81.5402 44.8412C81.3974 44.819 81.0347 45.0634 80.8148 45.1522C80.7049 45.1967 80.628 45.2189 80.5071 45.2522C80.3862 45.2745 80.2103 45.2967 80.0894 45.2967C79.8367 45.3078 79.2431 45.1522 79.0563 44.9967C78.9244 44.8856 78.8804 44.7523 78.8475 44.6079C78.8145 44.4634 78.8365 44.3079 78.8804 44.1635C78.9354 44.0302 79.0563 43.9191 79.1332 43.8191C79.2102 43.7191 79.2761 43.6413 79.3531 43.5635C80.0345 42.8303 79.8806 41.686 79.6718 40.6972C79.3201 39.5418 78.9684 38.9085 78.5617 38.4308C78.2979 38.1086 77.9682 37.9086 77.7374 37.5087C77.7374 37.5087 77.6165 37.2865 77.7814 36.9865C78.5287 36.0422 79.7597 35.8089 80.8038 35.3756C81.0676 35.2645 81.2325 35.2089 81.4963 35.0867C81.7491 34.9534 82.1118 34.7534 82.3426 34.609C82.5734 34.4646 82.7273 34.3202 82.9031 34.198C83.079 34.0757 83.2438 33.9869 83.4087 33.8535L84.3979 33.0536C84.2989 33.3758 83.9692 34.4868 83.9692 34.8757C84.0022 37.842 84.8815 37.2309 86.629 38.3864C86.7279 38.453 86.8049 38.4863 86.7719 38.6197C86.7389 38.753 86.596 38.853 86.4532 39.0085C86.1454 39.2863 85.8596 39.6307 85.5079 39.864C85.2661 39.9306 84.1561 39.4862 83.8703 40.6639C83.5296 42.0748 85.6508 42.3526 85.7827 40.7639C85.8487 40.6194 86.0355 40.3972 86.1564 40.275C86.2773 40.1639 87.2775 39.2307 87.3874 39.3974C87.4204 39.764 87.1346 41.6082 86.7829 41.7082C85.5079 42.0637 86.0465 43.9746 87.4643 43.4636C88.1018 43.2302 87.9479 42.3748 87.794 41.9637C87.7611 41.886 88.1018 40.2639 88.3326 39.7195C88.4315 39.4862 89.1679 40.9527 89.1899 41.6415C89.2009 41.8415 89.1129 41.9859 89.1239 42.1415C89.2229 43.3302 90.5528 43.008 90.7946 42.1415C90.9704 41.4971 90.7506 41.2638 90.0582 41.0083C89.7944 40.9194 88.9811 39.0974 89.102 38.9974C89.2778 38.853 90.1571 39.2196 90.3769 39.2974C90.5308 39.3418 90.6627 39.4085 90.8165 39.4529C90.9704 39.5085 91.2232 39.5418 91.3111 39.664C92.1135 40.7972 92.8938 39.7418 92.8389 38.9752C92.8059 38.4752 92.3333 38.1419 91.5639 38.5086C91.443 38.5641 91.1023 38.5641 90.8935 38.5419C90.7396 38.5308 90.5747 38.4863 90.4209 38.453C90.1461 38.3753 89.3877 38.1086 89.1569 37.9086C89.5416 37.6642 89.7944 36.9976 90.8605 36.7199C91.498 36.5532 91.6958 35.9644 91.5309 35.4756C91.3331 34.8534 90.6297 34.5201 90.1351 35.0867C89.9592 35.1534 89.8493 35.2978 89.7614 35.4423C89.6735 35.5867 89.6625 35.7533 89.6295 35.9089C89.5965 36.0755 89.5965 36.1644 89.5306 36.3088C89.4647 36.4644 88.8272 36.9421 88.6513 37.031C87.4753 37.4754 86.607 36.3199 87.2775 35.3978C87.3654 35.2756 87.4863 35.2423 87.5962 35.109C87.7061 34.9756 87.794 34.7979 87.9149 34.609C88.0468 34.4202 88.2227 34.1757 88.3656 33.9869C88.5084 33.798 88.6403 33.6425 88.7832 33.4536C88.9261 33.2758 89.08 33.0759 89.1899 32.8981C89.6845 32.1426 90.1571 31.165 90.3549 30.2873C90.4319 29.9318 90.5967 28.9874 90.8605 28.743C90.9704 28.643 91.1353 28.5875 91.2452 28.5653C91.3881 28.543 93.2125 30.2429 93.828 30.5984C94.3116 30.8872 94.7513 31.0872 95.2678 31.2983C97.7188 32.3204 100.796 31.7871 103.258 30.6095C103.665 30.4206 104.324 30.1318 104.588 29.7985C108.204 25.0768 98.2244 20.1329 94.6853 22.1438C93.7621 22.6771 92.8389 23.6103 91.8277 23.9658C91.5639 24.0547 91.3111 24.0991 91.1023 24.088C90.8935 24.0658 90.7396 24.0102 90.6077 23.8658C89.7944 22.977 89.2558 21.2772 87.805 19.7885C86.0905 18.0332 87.5962 16.8999 89.3657 17.1666C89.8164 17.211 90.9484 17.2444 91.0473 17.9109C91.0583 18.0109 91.0473 18.1665 91.0254 18.2887C90.7396 19.9107 92.1025 19.8441 92.619 19.4441C93.883 18.4442 93.0587 17.0999 91.7398 17.5332C91.6299 17.5665 91.5419 17.4443 91.421 17.311C91.1902 17.0666 90.8935 16.7889 90.7396 16.5333C90.7176 16.3889 91.1133 16.0889 91.2342 16.0556C91.3661 16.0112 92.4652 16.0667 92.5751 16.1C94.1688 16.7444 94.5205 16.2334 94.8172 15.4668C95.125 14.678 93.839 13.6448 92.718 14.8891C92.3003 15.3557 91.2012 15.3112 90.9045 15.1446C90.8055 15.089 92.652 13.6781 92.9488 13.6559C94.3226 13.5226 94.5754 12.4116 94.1248 11.7783C93.7181 11.2228 92.5421 10.8673 92.0915 12.7338C92.0145 13.0448 90.4209 14.7558 90.3549 14.6891C90.3219 14.6558 90.5637 12.6004 90.7616 12.4449C92.4871 11.0562 91.3661 9.96742 90.3769 10.0007C89.4537 10.0341 88.6513 11.0228 89.8274 12.4338C89.8823 12.5005 89.6075 14.4447 89.2229 14.7335C89.1679 14.7446 87.7171 13.6225 87.6512 13.3226C87.5413 12.8226 87.7831 12.256 87.6731 11.845C87.3874 10.734 86.2553 10.9006 85.6618 11.5783C85.3651 11.9116 85.2442 12.4338 85.5409 13.0448C85.7058 13.3892 86.4202 13.5115 86.8708 13.7114C87.0577 13.7892 87.9369 15.5001 87.9809 15.7667C88.0029 15.8778 87.9479 15.9889 87.871 16.0667C87.0906 16.8333 84.3319 16.3556 84.3869 19.1552C84.4089 20.8217 86.3872 22.4549 86.3542 22.4771C86.3103 22.5215 85.2881 22.666 85.1233 22.6993C83.4856 22.977 82.4745 23.0881 80.8698 23.5881C80.5291 23.6992 79.5839 23.988 79.2431 24.1213C77.6275 24.7213 76.5284 25.4101 75.5392 26.2211C74.3632 27.1877 73.385 28.3653 72.231 30.2651C72.0661 30.5428 71.1758 31.9871 70.945 32.3759L70.9121 32.3315L70.5823 31.8316L70.1647 31.2761L69.725 30.7095L69.2744 30.3762L68.8897 30.2206L68.3402 30.1762L67.6588 30.2317L66.9883 30.2762L66.208 30.3206L65.4496 30.3428L64.9001 30.2984L64.6473 30.0651L64.5374 29.7096L64.8561 27.5432C65.0539 27.1654 65.4606 26.621 65.021 26.0433C64.2956 25.1101 62.3282 26.3211 63.4712 27.5765L63.6471 28.0764L63.6801 28.4875L63.713 29.0319L63.724 29.7096V30.2429L63.2624 30.054C62.8997 29.9318 61.8666 29.4874 61.7457 29.1541C61.4269 28.2653 60.7785 27.7765 60.2839 27.9431C59.2288 28.2986 58.5803 30.4873 61.1302 30.3206C61.1412 30.3206 62.7568 30.965 63.1195 31.0872C62.7019 31.3983 61.1961 32.1982 60.8774 31.9315C59.9981 31.1983 59.4266 31.4983 59.0859 32.076C58.2506 33.5091 60.2509 34.9868 61.2511 32.9759C61.339 32.8092 62.8228 32.2204 63.1745 32.1093C62.9766 32.6204 62.1413 34.2979 61.8006 34.2646C60.0421 34.0757 60.119 35.5422 60.7565 36.1644C61.1082 36.4977 61.7237 36.6532 62.1304 36.4088C62.7348 36.0422 62.4381 35.1423 62.57 34.9756L63.779 33.398L63.9658 33.8313C64.0757 34.2535 64.1637 34.5646 64.2076 35.009C63.4932 36.4421 64.6253 36.931 65.4276 36.531C66.142 36.1866 66.5926 35.0645 65.6694 34.5868C64.955 34.4868 64.911 34.1757 64.7792 33.3425L64.8121 31.9204L65.8343 32.176C67.417 32.8314 68.2413 33.6536 68.538 34.9756Z" fill="#303030"/>
<path fill-rule="evenodd" clip-rule="evenodd" d="M187.569 18.6442C186.173 18.6442 184.964 18.6442 184.558 18.6442C184.173 16.7444 182.436 15.8334 180.865 16.4556C179.667 16.9333 179.216 18.3331 179.623 18.6331C178.293 18.6109 177.501 18.6109 176.271 18.5886C176.172 18.1887 176.139 17.7443 176.183 17.2444C176.457 14.7002 179.051 13.3226 181.843 13.2781C185.316 13.2337 187.228 15.9223 187.569 18.6442ZM185.723 29.8318C182.348 32.5426 175.732 32.4981 175.27 25.2212C176.161 25.2434 177.062 25.1879 177.952 25.2101C179.183 29.1985 183.766 28.6542 183.81 26.1878C183.865 23.0881 177.952 26.3655 176.249 21.0106C177.447 21.0217 178.853 21.0328 179.963 20.9884C181.183 22.1549 183.063 21.5216 184.173 21.7327C188.075 22.9881 188.569 27.5543 185.723 29.8318ZM123.888 18.5775L117.348 18.5998L117.436 13.4115H122.184L123.888 18.5775ZM130.68 13.3781L135.297 13.4226L135.154 18.5998L128.515 18.6109L130.68 13.3781ZM117.271 21.0439H120.58L120.349 31.2094L117.074 31.1539L117.271 21.0439ZM127.768 20.9773L131.428 20.9884L128.065 31.1205L124.097 31.1316L121.261 20.9995L125.097 20.9884L126.372 24.588L127.768 20.9773ZM131.911 20.9884L135.11 20.9995L134.835 31.1539L131.637 31.1427L131.911 20.9884ZM170.731 13.3781H173.907L173.71 18.5664L170.643 18.5886L170.731 13.3781ZM170.566 21.0217L173.885 20.9995L173.512 31.1761L170.335 31.165L170.566 21.0217ZM146.353 18.5998L143.221 18.5886L143.309 13.3781H146.474L146.353 18.5998ZM151.651 13.3781L156.014 13.3892L151.255 18.5998L147.035 18.6109L151.651 13.3781ZM151.376 21.0328L155.816 31.1316L151.717 31.165L149.288 25.4212L146.364 25.3212L146.309 31.0872L143.001 31.1094L143.265 21.0328H151.376ZM160.147 18.5998L157.036 18.622L157.124 13.3448L160.257 13.3559L160.147 18.5998ZM165.302 13.3781H169.665L164.95 18.6109L160.773 18.5998L165.302 13.3781ZM164.928 20.9995L169.368 31.1539L165.269 31.165L162.862 25.5212L159.971 25.4212L159.905 31.1539L156.652 31.1205L156.905 20.9773L164.928 20.9995ZM141.122 18.5998H138.088L138.154 13.3781L141.287 13.3892L141.122 18.5998ZM138.022 20.9884L141.363 20.9661L141.001 31.1539L137.824 31.1872L138.022 20.9884ZM214.068 18.5664H211.002L211.09 13.3337L214.266 13.367L214.068 18.5664ZM210.98 20.9773H214.266L213.914 31.1205L210.738 31.1094L210.98 20.9773ZM222.168 18.5886L215.684 18.6109L215.772 13.3781L220.476 13.3559L222.168 18.5886ZM233.5 13.367L233.357 18.5775H226.785L228.928 13.3226L233.5 13.367ZM215.64 20.9439L218.904 20.9773L218.673 31.165L215.431 31.1094L215.64 20.9439ZM226.026 20.9773L229.642 20.9884L226.389 31.165L222.432 31.1427L219.597 20.9884H223.432L224.674 24.5768L226.026 20.9773ZM230.203 20.9773L233.357 20.9661L233.093 31.1539L229.928 31.065L230.203 20.9773ZM192.218 18.5998C190.976 18.622 189.701 18.6109 188.668 18.622L187.327 13.367L190.954 13.3559L192.218 18.5998ZM198.318 21.0106L195.439 31.1761L191.152 31.1094L188.756 20.9884C189.8 20.9773 191.009 21.0106 192.218 20.9884L193.284 25.71L194.592 20.9884C195.538 20.9773 197.197 20.9884 198.318 21.0106ZM199.175 18.6775L198.791 16.9555L198.34 18.5998C197.241 18.5998 196.175 18.5886 195.219 18.5886L196.845 13.367H201.066L202.374 18.6553C201.176 18.6775 200.253 18.6664 199.175 18.6775ZM208.902 21.0106L206.045 31.2094L202.077 31.1539L199.154 20.9884C200.198 20.9773 201.78 20.9995 202.978 21.0106L203.792 26.0544L204.902 20.9995C205.352 20.9995 208.32 21.0439 208.902 21.0106ZM206.704 13.3892L210.441 13.3448L209.089 18.5664C208.496 18.5775 205.825 18.5775 205.385 18.5775L206.704 13.3892Z" fill="#303030"/>
<path fill-rule="evenodd" clip-rule="evenodd" d="M193.966 46.8432H143.364C140.407 46.8432 138 44.4213 138 41.4216C138 38.4331 140.396 36 143.364 36H193.966C196.922 36 199.329 38.4219 199.329 41.4216C199.318 44.4213 196.922 46.8432 193.966 46.8432Z" fill="#11CB5B"/>
<path d="M152.387 42.477C152.387 43.3436 151.706 43.8324 150.409 43.8324H147.859V38.8441H150.266C151.497 38.8441 152.134 39.3663 152.134 40.144C152.134 40.6439 151.881 41.0328 151.475 41.2438C152.035 41.4216 152.387 41.8549 152.387 42.477ZM148.991 39.7218V40.8994H150.123C150.683 40.8994 150.98 40.6995 150.98 40.3106C150.98 39.9218 150.672 39.7218 150.123 39.7218H148.991ZM151.233 42.3548C151.233 41.9326 150.914 41.7327 150.321 41.7327H148.991V42.9659H150.321C150.925 42.9659 151.233 42.7881 151.233 42.3548Z" fill="white"/>
<path d="M156.772 42.8992V43.8435H153.046V43.0992L154.948 41.2772C155.387 40.855 155.464 40.5995 155.464 40.3551C155.464 39.9662 155.201 39.7329 154.673 39.7329C154.255 39.7329 153.893 39.8995 153.651 40.2328L152.816 39.6885C153.2 39.1219 153.882 38.7663 154.772 38.7663C155.871 38.7663 156.607 39.3329 156.607 40.244C156.607 40.7328 156.476 41.1661 155.783 41.8216L154.651 42.8992H156.772Z" fill="white"/>
<path d="M162.213 42.477C162.213 43.3436 161.531 43.8324 160.235 43.8324H157.685V38.8441H160.092C161.323 38.8441 161.96 39.3663 161.96 40.144C161.96 40.6439 161.707 41.0328 161.301 41.2438C161.861 41.4216 162.213 41.8549 162.213 42.477ZM158.828 39.7218V40.8994H159.96C160.52 40.8994 160.817 40.6995 160.817 40.3106C160.817 39.9218 160.509 39.7218 159.96 39.7218H158.828ZM161.07 42.3548C161.07 41.9326 160.751 41.7327 160.158 41.7327H158.828V42.9659H160.158C160.751 42.9659 161.07 42.7881 161.07 42.3548Z" fill="white"/>
<path d="M164.971 43.3436L165.356 42.477C165.774 42.7881 166.389 42.9992 166.983 42.9992C167.664 42.9992 167.939 42.7659 167.939 42.4659C167.939 41.5327 165.07 42.1771 165.07 40.3217C165.07 39.4774 165.752 38.7663 167.148 38.7663C167.763 38.7663 168.401 38.9108 168.862 39.2107L168.51 40.0884C168.049 39.8218 167.576 39.6996 167.148 39.6996C166.466 39.6996 166.213 39.9551 166.213 40.2662C166.213 41.1883 169.082 40.555 169.082 42.377C169.082 43.2103 168.401 43.9213 166.994 43.9213C166.202 43.9213 165.411 43.688 164.971 43.3436Z" fill="white"/>
<path d="M170.95 39.7885H169.368V38.8441H173.665V39.7885H172.083V43.8324H170.939V39.7885H170.95Z" fill="white"/>
<path d="M174.039 41.3438C174.039 39.8662 175.182 38.7663 176.743 38.7663C178.292 38.7663 179.446 39.8551 179.446 41.3438C179.446 42.8325 178.292 43.9213 176.743 43.9213C175.182 43.9213 174.039 42.8214 174.039 41.3438ZM178.281 41.3438C178.281 40.3995 177.622 39.744 176.743 39.744C175.863 39.744 175.204 40.3884 175.204 41.3438C175.204 42.2882 175.863 42.9436 176.743 42.9436C177.622 42.9436 178.281 42.2882 178.281 41.3438Z" fill="white"/>
<path d="M183.59 43.8435L182.634 42.4548H181.59V43.8435H180.447V38.8552H182.579C183.898 38.8552 184.722 39.544 184.722 40.6661C184.722 41.4105 184.348 41.966 183.711 42.2437L184.821 43.8435H183.59ZM182.513 39.7885H181.579V41.5216H182.513C183.205 41.5216 183.568 41.1883 183.568 40.655C183.568 40.1106 183.216 39.7885 182.513 39.7885Z" fill="white"/>
<path d="M189.58 43.8324H185.755V38.8441H189.481V39.7662H186.887V40.8439H189.174V41.7438H186.887V42.8992H189.58V43.8324Z" fill="white"/>
</svg>
