<svg width="149" height="26" viewBox="0 0 149 26" fill="none" xmlns="http://www.w3.org/2000/svg">
<path fill-rule="evenodd" clip-rule="evenodd" d="M133.49 21.9453H132.104V7.02428H133.49V14.0459L138.479 7.02428H139.835L134.934 13.9582L140.2 21.9453H138.654L133.49 14.2215V21.9453Z" fill="#303030"/>
<path fill-rule="evenodd" clip-rule="evenodd" d="M107.525 8.17993V21.9453H106.139V8.17993H102.682V7.02428H110.953V8.17993H107.525Z" fill="#303030"/>
<path fill-rule="evenodd" clip-rule="evenodd" d="M6.8016 13.7241L3.15484 21.9307H0.5L4.51143 13.1536C2.62971 12.1881 1.37522 10.462 1.37522 7.24371C1.37522 2.75278 4.21969 0.5 7.5893 0.5H11.0318V21.9307H8.72708V13.7241H6.8016ZM8.72708 2.44559H7.50177C5.64922 2.44559 3.85502 3.67437 3.85502 7.24371C3.85502 10.696 5.50335 11.7932 7.50177 11.7932H8.72708V2.44559Z" fill="#303030"/>
<path fill-rule="evenodd" clip-rule="evenodd" d="M78.3363 1.72879H73.7123C73.6247 7.15594 73.4789 11.2958 73.2309 14.3824C72.9683 17.586 72.487 19.7218 71.6701 20.7019H78.3363V1.72879ZM79.9118 21.9307H70.7657L70.5615 25.5H69.3945V20.7019H70.0218C71.072 19.8388 71.5826 17.4397 71.8743 14.3824C72.166 11.208 72.2682 6.4684 72.3557 0.5H79.8242V20.7019H81.2829V25.5H80.116L79.9118 21.9307Z" fill="#303030"/>
<path fill-rule="evenodd" clip-rule="evenodd" d="M55.7411 14.3824C55.7411 9.64278 57.5645 6.6147 61.0945 6.6147C62.4365 6.6147 63.2096 6.98041 63.8806 7.39L63.5452 9.61353C62.9179 9.07228 62.0135 8.56028 61.0654 8.56028C59.3878 8.56028 58.1917 10.4474 58.1917 14.2507C58.1917 18.0249 59.0815 20.1899 60.9778 20.1899C62.1156 20.1899 62.9763 19.7364 63.516 19.2683L64.0557 21.0091C63.2534 21.6966 62.2907 22.1501 60.9195 22.1501C57.6812 22.1355 55.7411 19.5316 55.7411 14.3824ZM48.9289 14.4117V21.9307H46.595V6.8195H48.9289V13.7973L52.5465 6.8195H54.9096L51.1754 13.9289L55.4494 21.9307H52.9112L48.9289 14.4117ZM37.9595 12.9927H41.8105C41.8105 10.4181 41.3875 8.53102 40.0454 8.53102C38.6159 8.53102 38.1054 10.3011 37.9595 12.9927ZM40.5268 22.1355C37.4198 22.1355 35.5089 19.6486 35.5089 14.9968C35.5089 10.1402 36.8509 6.60007 40.0454 6.60007C42.5544 6.60007 44.2028 8.48714 44.2028 13.6071V14.8944H37.9303C37.9303 18.3174 38.8931 20.1167 40.7456 20.1167C42.0585 20.1167 43.1087 19.517 43.7068 19.0928L44.2465 20.8921C43.2692 21.6674 42.0147 22.1355 40.5268 22.1355ZM30.6076 8.70656H28.0112V8.96987C28.0112 12.1442 27.8653 16.7961 26.6108 19.9997H30.6076V8.70656ZM34.0939 24.9002H32.008V21.9307H25.5459V24.9002H23.46V20.0143H24.379C25.7502 16.8107 25.9106 12.1296 25.9106 8.12143V6.83413H32.8978V20.029H34.0939V24.9002ZM22.118 6.8195V21.9307H19.8132V15.1577H16.3415V21.9307H14.0076V6.8195H16.3415V13.2414H19.8132V6.8195H22.118Z" fill="#303030"/>
<path fill-rule="evenodd" clip-rule="evenodd" d="M123.95 14.6457V20.8043H125.744C126.722 20.8043 127.466 20.5556 128.122 20.146C128.691 19.6486 129.026 18.8294 129.026 17.6884C129.026 16.6205 128.778 15.8013 128.209 15.3918C127.641 14.8944 126.824 14.6457 125.759 14.6457H123.95ZM123.95 8.07753V13.5778H125.671C126.488 13.5778 127.145 13.3291 127.641 12.9195C128.137 12.4222 128.385 11.6908 128.385 10.6229C128.385 9.64277 128.137 8.9845 127.641 8.64804C127.145 8.23845 126.488 8.07753 125.598 8.07753H123.95ZM122.55 7.00965H125.657C126.97 7.00965 127.947 7.33148 128.691 7.91662C129.347 8.48713 129.756 9.39409 129.756 10.6229C129.756 11.3689 129.595 12.0126 129.26 12.5977C128.939 13.1682 128.355 13.6656 127.699 13.9874C128.676 14.2361 129.333 14.7335 129.829 15.304C130.237 15.8745 130.485 16.6937 130.485 17.6006C130.485 19.0781 130.077 20.146 129.26 20.8774C128.443 21.5357 127.29 21.9453 125.905 21.9453H122.55V7.00965Z" fill="#303030"/>
<path fill-rule="evenodd" clip-rule="evenodd" d="M86.8698 20.9798C87.7888 20.9798 88.5327 20.3947 89.1162 19.3122C89.7872 18.2297 90.0352 16.5474 90.0352 14.2946C90.0352 13.1243 89.9477 12.115 89.7872 11.2812C89.6268 10.4473 89.3642 9.77442 89.1162 9.18929C88.8682 8.69192 88.4452 8.2677 88.1097 8.01901C87.6867 7.77033 87.2783 7.68256 86.8552 7.68256C85.9362 7.68256 85.1923 8.17993 84.6088 9.27706C83.9378 10.3596 83.6898 12.0418 83.6898 14.2946C83.6898 15.4649 83.7774 16.4742 83.9378 17.3081C84.0983 18.1419 84.3608 18.8148 84.6088 19.3999C84.8568 19.8973 85.2798 20.3215 85.6153 20.5702C85.9508 20.892 86.3738 20.9798 86.8698 20.9798ZM86.8698 22.2232C86.1988 22.2232 85.6153 22.0623 85.0318 21.7259C84.4484 21.3894 83.9524 20.892 83.6169 20.3069C83.1939 19.634 82.873 18.8879 82.6104 17.8786C82.3624 16.8692 82.2749 15.7867 82.2749 14.4555C82.2749 13.1975 82.3624 12.0272 82.6104 11.1056C82.8584 10.0963 83.1939 9.26243 83.6169 8.60415C84.0399 7.93124 84.5359 7.43388 85.0318 7.00965C85.6153 6.6732 86.1988 6.51228 86.8698 6.51228C87.5408 6.51228 88.1243 6.6732 88.7078 7.00965C89.2913 7.3461 89.7872 7.84347 90.1227 8.42861C90.5457 9.10152 90.8667 9.93534 91.1292 10.8569C91.3772 11.8663 91.4647 12.9488 91.4647 14.28C91.4647 15.538 91.3772 16.7083 91.1292 17.6299C90.8812 18.6393 90.5457 19.4731 90.1227 20.1314C89.6997 20.8043 89.2037 21.3016 88.7078 21.7259C88.1243 21.9745 87.5408 22.2232 86.8698 22.2232Z" fill="#303030"/>
<path fill-rule="evenodd" clip-rule="evenodd" d="M98.2768 20.9944C95.9429 20.9944 94.8926 18.5369 94.8926 14.3824C94.8926 10.1109 95.9721 7.68257 98.2768 7.68257C99.5605 7.68257 100.523 8.45788 101.18 9.3941L101.574 7.88737C100.917 7.0828 99.8376 6.46841 98.2768 6.46841C95.199 6.46841 93.4777 9.37947 93.4777 14.3678C93.4777 19.2976 95.2136 22.2086 98.2477 22.2086C100.611 22.2086 101.719 20.5263 101.719 20.5263L101.267 19.3561C101.282 19.3707 100.231 20.9944 98.2768 20.9944Z" fill="#303030"/>
<path fill-rule="evenodd" clip-rule="evenodd" d="M147.216 21.9307H148.5C148.325 21.3602 148.165 20.1899 148.165 19.1366V10.8716C148.165 7.87274 146.75 6.48304 144.27 6.48304C142.563 6.48304 141.309 7.22909 140.711 8.01902L141.104 9.36484C141.819 8.31159 142.986 7.71183 144.284 7.71183C145.933 7.71183 146.793 8.70656 146.793 11.0179V12.9049H145.145C141.877 12.9049 140.112 14.5872 140.112 17.8347C140.112 20.5995 141.527 22.2232 143.555 22.2232C145.057 22.2232 146.137 21.3163 146.852 19.8827C146.954 20.9652 147.1 21.5357 147.216 21.9307ZM143.861 21.0822C142.417 21.0822 141.498 19.8534 141.498 17.7177C141.498 15.0699 142.694 13.9289 145.189 13.9289H146.808V18.098C146.268 19.7364 145.276 21.0822 143.861 21.0822Z" fill="#303030"/>
<path fill-rule="evenodd" clip-rule="evenodd" d="M118.874 21.9307H120.157C119.982 21.3602 119.822 20.1899 119.822 19.1366V10.8716C119.822 7.87274 118.407 6.48304 115.927 6.48304C114.22 6.48304 112.966 7.22909 112.368 8.01902L112.762 9.36484C113.477 8.31159 114.643 7.71183 115.942 7.71183C117.59 7.71183 118.451 8.70656 118.451 11.0179V12.9049H116.802C113.535 12.9049 111.77 14.5872 111.77 17.8347C111.77 20.5995 113.185 22.2232 115.212 22.2232C116.715 22.2232 117.794 21.3163 118.509 19.8827C118.611 20.9652 118.757 21.5357 118.874 21.9307ZM115.519 21.0822C114.075 21.0822 113.156 19.8534 113.156 17.7177C113.156 15.0699 114.352 13.9289 116.846 13.9289H118.465V18.098C117.926 19.7364 116.934 21.0822 115.519 21.0822Z" fill="#303030"/>
</svg>
